<?xml version="1.0" encoding="UTF-8" standalone="no"?>
<!-- Generator: Adobe Illustrator 16.0.0, SVG Export Plug-In . SVG Version: 6.00 Build 0)  -->

<svg
   xmlns:dc="http://purl.org/dc/elements/1.1/"
   xmlns:cc="http://creativecommons.org/ns#"
   xmlns:rdf="http://www.w3.org/1999/02/22-rdf-syntax-ns#"
   xmlns:svg="http://www.w3.org/2000/svg"
   xmlns="http://www.w3.org/2000/svg"
   xmlns:sodipodi="http://sodipodi.sourceforge.net/DTD/sodipodi-0.dtd"
   xmlns:inkscape="http://www.inkscape.org/namespaces/inkscape"
   version="1.1"
   id="Capa_1"
   x="0px"
   y="0px"
   width="820.29993"
   height="770.71497"
   viewBox="0 0 88.195059 82.865406"
   xml:space="preserve"
   inkscape:version="0.48.4 r9939"
   sodipodi:docname="background.svg"><metadata
     id="metadata51"><rdf:RDF><cc:Work
         rdf:about=""><dc:format>image/svg+xml</dc:format><dc:type
           rdf:resource="http://purl.org/dc/dcmitype/StillImage" /><dc:title></dc:title></cc:Work></rdf:RDF></metadata><defs
     id="defs49" /><sodipodi:namedview
     pagecolor="#ffffff"
     bordercolor="#666666"
     borderopacity="1"
     objecttolerance="10"
     gridtolerance="10"
     guidetolerance="10"
     inkscape:pageopacity="0"
     inkscape:pageshadow="2"
     inkscape:window-width="1797"
     inkscape:window-height="948"
     id="namedview47"
     showgrid="false"
     fit-margin-top="0"
     fit-margin-left="0"
     fit-margin-right="0"
     fit-margin-bottom="0"
     inkscape:zoom="0.921875"
     inkscape:cx="211.14931"
     inkscape:cy="284.23575"
     inkscape:window-x="90"
     inkscape:window-y="42"
     inkscape:window-maximized="0"
     inkscape:current-layer="g5" /><g
     id="g3"
     transform="translate(34.801885,9.6230458)"><g
       id="g5"
       style="fill:#0061d7;fill-opacity:1"
       transform="translate(0,-8.3863726)"><path
         d="m 13.938655,61.054879 0.02649,-2.53e-4 c 0.384332,1.066518 1.138359,1.594422 2.048857,1.585744 1.137627,-0.01084 2.118789,-0.94336 2.101697,-2.736547 -0.0099,-1.043598 -0.340289,-2.00401 -0.692649,-2.495344 l -1.187691,0.386149 c 0.243812,0.358597 0.558486,1.064858 0.565246,1.774054 0.0091,0.949567 -0.482051,1.395964 -1.070067,1.401569 -0.869445,0.0083 -1.226935,-0.951866 -1.2342,-1.714037 l -0.007,-0.735683 -1.203844,0.01147 0.0073,0.76217 c 0.0096,1.003867 -0.422929,1.970888 -1.45262,1.980703 -0.682583,0.01975 -1.397288,-0.482038 -1.409268,-1.738857 -0.0079,-0.829051 0.319379,-1.648714 0.517494,-1.985035 0,0 0.700953,-1.470858 0.920801,-2.053579 0.656446,-1.739946 -2.2815851,-2.190096 -2.2815851,-2.190096 l -0.051435,1.052084 c 0,0 1.3390531,0.452328 0.9859271,1.167969 -0.217357,0.440492 -0.8221813,1.660695 -0.8221813,1.660695 -0.3222066,0.529203 -0.5881248,1.383729 -0.5780511,2.44057 0.020532,2.154075 1.1957184,3.37398 2.6670844,3.359955 1.178019,-0.01123 1.972421,-0.875079 2.149745,-1.933706 z"
         id="path15"
         style="fill:#f9f9f9;fill-opacity:1"
         inkscape:connector-curvature="0"
         sodipodi:nodetypes="ccssccsssccscscsccscssc" /><path
         style="fill:#f9f9f9;fill-opacity:1"
         inkscape:connector-curvature="0"
         d="m 40.503008,80.472878 -0.105724,-11.091531 4.911397,-0.04682 -0.07365,-7.726328 -4.911397,0.04681 -0.105717,-11.090868 c -0.0055,-0.579407 -0.479485,-1.044418 -1.058229,-1.038901 -0.578747,0.0055 -1.043758,0.479477 -1.038235,1.058885 l 0.105717,11.090867 -4.911397,0.04682 0.02465,2.585816 -1.591222,0.01517 c -0.372807,0.0036 -0.704987,0.170293 -0.936294,0.428785 -0.02939,-0.165942 -0.05291,-0.339888 -0.07377,-0.513196 -0.09384,-0.743464 -0.199885,-1.586149 -0.991565,-1.756746 l -0.06695,-0.0074 c -0.213923,-0.002 -0.403217,0.07868 -0.548763,0.233042 -0.451062,0.478464 -0.40242,1.549466 -0.284825,3.258954 0.09228,1.341443 0.206568,3.011577 -0.239391,3.509511 -0.07629,0.08518 -0.16438,0.125533 -0.284844,0.130528 -0.646772,0.02682 -0.787084,-1.00241 -0.914838,-2.46144 -0.103367,-1.180447 -0.201405,-2.293986 -0.806812,-2.800211 -0.236388,-0.197661 -0.594029,-0.387271 -0.859998,-0.2514 -0.565871,0.289072 -0.434936,1.214862 -0.496233,1.840985 -0.190917,1.950136 -0.153941,3.440709 -1.346137,3.337342 -0.627364,-0.05439 -0.345011,-1.24669 -0.265304,-2.077907 0.09433,-0.983699 0.0268,-1.648474 -0.427863,-1.988289 -0.585545,-0.43763 -1.215976,-0.378839 -1.460969,-0.05115 -0.193563,1.432763 -0.552076,2.970923 -0.919251,3.235033 -0.461543,0.331989 -0.739755,-0.845566 -1.678872,-0.386207 -1.4088,0.04081 -1.365053,0.736542 -0.04583,0.70003 0.132894,-0.0037 0.293564,0.03763 0.451829,0.01649 0.750116,0.653747 1.349968,0.371215 1.695288,0.08585 1.089037,-0.89995 0.591808,-3.531726 1.297174,-3.269532 0.45728,0.169978 0.390668,1.156943 0.371401,1.5782 -0.01498,0.327565 -0.208228,2.236502 0.559306,2.79847 0.388809,0.284676 1.072804,0.157519 1.436987,-0.15805 1.274895,-1.104711 0.865638,-5.163741 1.263526,-4.900534 0.42785,0.283027 0.48843,1.401926 0.571393,2.349483 0.12809,1.462976 0.272833,3.123124 1.602704,3.065469 0.29526,-0.01282 0.554213,-0.133817 0.748957,-0.351504 0.63285,-0.707408 0.518142,-2.378437 0.406938,-3.995869 -0.07485,-1.088699 -0.168284,-2.439417 0.156333,-2.774294 0.263253,0.105436 0.334109,0.521972 0.41516,1.174169 0.06586,0.51857 0.1408,1.084735 0.426859,1.498557 0.104448,0.605618 0.631333,1.064827 1.265703,1.05878 l 1.591882,-0.01517 0.02464,2.585155 4.911396,-0.04682 0.105723,11.091531 c 0.0055,0.578747 0.479478,1.043758 1.058225,1.038242 0.578747,-0.0055 1.046399,-0.480166 1.040882,-1.058912 z"
         sodipodi:nodetypes="cccccssscccscccccsssssssssscscscsssaassssscccscccsssc"
         id="path9" /><path
         style="fill:#f9f9f9;fill-opacity:1"
         inkscape:connector-curvature="0"
         id="path11"
         d="m 42.372622,60.891791 0.0021,0.219844 2.234861,-0.0213 -0.0021,-0.219844 c -0.0059,-0.617815 -0.510601,-1.112997 -1.128415,-1.107108 -0.617815,0.0059 -1.112335,0.510595 -1.106446,1.12841 z" /><path
         style="fill:#f9f9f9;fill-opacity:1"
         inkscape:connector-curvature="0"
         id="path13"
         d="m 44.6915,69.68478 -2.234861,0.0213 0.0021,0.219844 c 0.0059,0.618477 0.510602,1.112995 1.128416,1.107106 0.617815,-0.0059 1.112997,-0.510601 1.107108,-1.128415 l -0.0027,-0.219838 0,0 z" /><path
         style="fill:#f9f9f9;fill-opacity:1"
         inkscape:connector-curvature="0"
         id="path16"
         d="m 45.527528,66.031835 0.0037,0.182081 c 1.105043,-0.02444 1.902084,0.222262 2.436935,0.752918 1.014892,1.008191 0.987374,2.984581 0.957245,4.895434 -0.02936,1.991638 -0.05939,4.052158 1.113294,5.148246 0.658168,0.61491 1.604875,0.86151 2.892583,0.755197 l -0.05463,-0.659071 c -1.091179,0.08987 -1.871778,-0.09938 -2.385609,-0.578576 -0.627444,-0.587387 -0.830892,-1.574835 -0.889558,-2.727238 0.137552,0.257624 0.305376,0.495093 0.527827,0.696944 0.672686,0.609472 1.690183,0.848776 3.10957,0.731275 l -0.05464,-0.660397 c -1.226819,0.102418 -2.080883,-0.08215 -2.610619,-0.562522 -0.79695,-0.723518 -0.81781,-2.078266 -0.83944,-3.513798 -0.02415,-1.560672 -0.04881,-3.174981 -1.098164,-4.186155 -0.685766,-0.661664 -1.71184,-0.967109 -3.136027,-0.936316 l 0.01492,0.662098 c 0.0046,-6.86e-4 0.008,-7.6e-5 0.01258,-1.2e-4 z" /><text
         xml:space="preserve"
         style="font-size:12.58148098px;font-style:normal;font-weight:normal;line-height:125%;letter-spacing:0px;word-spacing:0px;fill:#000000;fill-opacity:1;stroke:none;font-family:Sans"
         x="26.202744"
         y="60.252274"
         id="text3826"
         sodipodi:linespacing="125%"
         transform="scale(1.0190765,0.98128061)"><tspan
           sodipodi:role="line"
           id="tspan3828"
           x="26.202744"
           y="60.252274"
           style="fill:#0361cd;fill-opacity:1" /></text>
<rect
         style="fill:#f9f9f9;fill-opacity:1"
         id="rect3830"
         width="0.8191815"
         height="10.185156"
         x="68.090034"
         y="-18.916452"
         transform="matrix(0.00953146,0.99995457,-0.99995457,0.00953146,0,0)" /><text
         xml:space="preserve"
         style="font-size:9.7251997px;font-style:normal;font-weight:normal;line-height:125%;letter-spacing:0px;word-spacing:0px;fill:#f9f9f9;fill-opacity:1;stroke:none;font-family:Sans"
         x="58.968544"
         y="-9.071825"
         id="text3832"
         sodipodi:linespacing="125%"
         transform="matrix(0.01014883,1.0647232,-0.93912591,0.00895165,0,0)"><tspan
           sodipodi:role="line"
           id="tspan3834"
           x="58.968544"
           y="-9.071825"
           style="fill:#f9f9f9;fill-opacity:1">o</tspan></text>
<rect
         style="fill:#f9f9f9;fill-opacity:1"
         id="rect3857"
         width="0.8737936"
         height="13.379965"
         x="69.318802"
         y="-18.506861"
         transform="matrix(0.00953146,0.99995457,-0.99995457,0.00953146,0,0)" /><rect
         style="fill:#f9f9f9;fill-opacity:1"
         id="rect3880"
         width="8.9263973"
         height="0.75774282"
         x="69.318985"
         y="-5.8583226"
         transform="matrix(0.00953146,0.99995457,-0.99995457,0.00953146,0,0)" /></g></g><g
     id="g17"
     transform="translate(34.801885,9.6230458)" /><g
     id="g19"
     transform="translate(34.801885,9.6230458)" /><g
     id="g21"
     transform="translate(34.801885,9.6230458)" /><g
     id="g23"
     transform="translate(34.801885,9.6230458)" /><g
     id="g25"
     transform="translate(34.801885,9.6230458)" /><g
     id="g27"
     transform="translate(34.801885,9.6230458)" /><g
     id="g29"
     transform="translate(34.801885,9.6230458)" /><g
     id="g31"
     transform="translate(34.801885,9.6230458)" /><g
     id="g33"
     transform="translate(34.801885,9.6230458)" /><g
     id="g35"
     transform="translate(34.801885,9.6230458)" /><g
     id="g37"
     transform="translate(34.801885,9.6230458)" /><g
     id="g39"
     transform="translate(34.801885,9.6230458)" /><g
     id="g41"
     transform="translate(34.801885,9.6230458)" /><g
     id="g43"
     transform="translate(34.801885,9.6230458)" /><g
     id="g45"
     transform="translate(34.801885,9.6230458)" /><path
     inkscape:connector-curvature="0"
     d="m 60.934852,57.298199 c 0.0097,-9.2e-5 0.01818,-0.0038 0.02791,-0.0045 0.04493,-0.0029 0.08862,-0.0087 0.131043,-0.02069 0.01817,-0.0057 0.03449,-0.0143 0.05204,-0.02176 0.03268,-0.01307 0.06416,-0.02552 0.09375,-0.04403 0.01812,-0.01111 0.03378,-0.02523 0.05007,-0.03754 0.02594,-0.01969 0.05126,-0.03998 0.07352,-0.06328 0.01504,-0.01594 0.02822,-0.03429 0.04143,-0.05205 0.0126,-0.01652 0.02765,-0.03064 0.03903,-0.04837 0.006,-0.01039 0.0089,-0.02196 0.01427,-0.03234 0.0047,-0.0085 0.0114,-0.0153 0.01556,-0.02445 l 7.741678,-16.478914 c 0.08159,-0.173335 0.07663,-0.375009 -0.01368,-0.543668 L 61.158676,24.813419 c -0.0037,-0.0067 -0.0092,-0.01084 -0.01293,-0.0175 -0.0037,-0.0067 -0.0056,-0.01453 -0.0099,-0.02178 -0.01296,-0.02054 -0.03012,-0.03618 -0.04548,-0.05486 -0.01414,-0.01749 -0.02708,-0.0362 -0.04303,-0.05245 -0.02331,-0.02286 -0.049,-0.04085 -0.0753,-0.05943 -0.01713,-0.01199 -0.03245,-0.02642 -0.05078,-0.03658 -0.03238,-0.01852 -0.06713,-0.03095 -0.102483,-0.04277 -0.01524,-0.0053 -0.02869,-0.01309 -0.04452,-0.0172 -0.04934,-0.01289 -0.102271,-0.02029 -0.156342,-0.01977 l -19.441277,0.185312 c -0.230258,0.0022 -0.439227,0.134212 -0.540547,0.341152 l -7.747483,15.871326 c -0.0041,0.0091 -0.0023,0.01885 -0.0064,0.028 -0.03327,0.0787 -0.05558,0.160327 -0.05478,0.244169 7.99e-4,0.08385 0.02466,0.165638 0.06004,0.243073 0.0043,0.0091 0.0026,0.01942 0.007,0.02787 l 8.048585,15.720773 c 0.104637,0.204977 0.316085,0.332987 0.546344,0.330792 l 19.44128,-0.185312 c 6.39e-4,-6e-6 0.0012,-1.1e-5 0.0024,-2.3e-5 6.41e-4,-6e-6 0.0012,-1.1e-5 0.0019,-1.8e-5 z M 43.02239,27.089179 c -0.0032,-0.335362 0.266386,-0.610134 0.601748,-0.613331 0.335362,-0.0032 0.610135,0.266387 0.613331,0.601749 0.0032,0.335362 -0.266387,0.610134 -0.601749,0.613331 -0.335362,0.0032 -0.610134,-0.266387 -0.61333,-0.601749 z m 3.645239,-0.03475 c -0.0032,-0.335362 0.266387,-0.610134 0.601749,-0.613331 0.335362,-0.0032 0.610134,0.266387 0.613331,0.601749 0.0032,0.335362 -0.266387,0.610134 -0.601749,0.613331 -0.335362,0.0032 -0.610134,-0.266387 -0.613331,-0.601749 z m 3.64524,-0.03475 c -0.0032,-0.335362 0.266387,-0.610134 0.601749,-0.613331 0.335362,-0.0032 0.610135,0.266387 0.613331,0.601749 0.0032,0.335362 -0.266387,0.610134 -0.601749,0.613331 -0.335362,0.0032 -0.610134,-0.266387 -0.613331,-0.601749 z m 3.645241,-0.03475 c -0.0032,-0.335362 0.266386,-0.610134 0.601748,-0.613331 0.335362,-0.0032 0.610135,0.266387 0.613332,0.601749 0.0032,0.335362 -0.266388,0.610134 -0.60175,0.613331 -0.335362,0.0032 -0.610134,-0.266387 -0.61333,-0.601749 z m 3.645239,-0.03475 c -0.0032,-0.335362 0.266387,-0.610134 0.60175,-0.613331 0.335361,-0.0032 0.610133,0.266387 0.61333,0.601749 0.0032,0.335362 -0.266387,0.610134 -0.601748,0.613331 -0.335363,0.0032 -0.610135,-0.266387 -0.613332,-0.601749 z m -16.386207,1.978978 c -0.0032,-0.335363 0.266387,-0.610135 0.601749,-0.613332 0.335362,-0.0032 0.610135,0.266387 0.613331,0.60175 0.0032,0.335361 -0.266387,0.610133 -0.601749,0.61333 -0.335362,0.0032 -0.610134,-0.266387 -0.613331,-0.601748 z m 3.645241,-0.03475 c -0.0032,-0.335363 0.266385,-0.610135 0.601748,-0.613332 0.335362,-0.0032 0.610134,0.266387 0.613331,0.60175 0.0032,0.335361 -0.266387,0.610133 -0.601749,0.61333 -0.335363,0.0032 -0.610134,-0.266387 -0.61333,-0.601748 z m 3.645239,-0.03475 c -0.0032,-0.335363 0.266387,-0.610135 0.60175,-0.613332 0.33536,-0.0032 0.610133,0.266387 0.61333,0.60175 0.0032,0.335361 -0.266388,0.610133 -0.601748,0.61333 -0.335363,0.0032 -0.610135,-0.266387 -0.613332,-0.601749 z m 3.645241,-0.03475 c -0.0032,-0.335363 0.266386,-0.610135 0.601748,-0.613332 0.335362,-0.0032 0.610135,0.266387 0.613331,0.60175 0.0032,0.335361 -0.266387,0.610133 -0.601749,0.61333 -0.335362,0.0032 -0.610134,-0.266387 -0.61333,-0.601748 z m 3.64524,-0.03475 c -0.0032,-0.335363 0.266387,-0.610135 0.601748,-0.613332 0.335362,-0.0032 0.610134,0.266387 0.613331,0.60175 0.0032,0.335361 -0.266387,0.610133 -0.601749,0.61333 -0.335361,0.0032 -0.610133,-0.266387 -0.61333,-0.601748 z m -16.386208,1.978977 c -0.0032,-0.335363 0.266387,-0.610135 0.601749,-0.613332 0.335361,-0.0032 0.610134,0.266387 0.613331,0.60175 0.0032,0.335362 -0.266388,0.610134 -0.601749,0.61333 -0.335362,0.0032 -0.610134,-0.266386 -0.613331,-0.601748 z m 3.645241,-0.03475 c -0.0032,-0.335363 0.266386,-0.610135 0.601748,-0.613332 0.335362,-0.0032 0.610135,0.266387 0.613331,0.60175 0.0032,0.335361 -0.266387,0.610134 -0.601749,0.61333 -0.335362,0.0032 -0.610134,-0.266386 -0.61333,-0.601748 z m 3.645239,-0.03475 c -0.0032,-0.335363 0.266387,-0.610135 0.601749,-0.613332 0.335362,-0.0032 0.610134,0.266387 0.613331,0.60175 0.0032,0.335361 -0.266387,0.610133 -0.601749,0.61333 -0.335362,0.0032 -0.610134,-0.266387 -0.613331,-0.601748 z m 3.64524,-0.03475 c -0.0032,-0.335363 0.266387,-0.610135 0.601749,-0.613332 0.335362,-0.0032 0.610135,0.266387 0.613331,0.60175 0.0032,0.335362 -0.266387,0.610134 -0.601749,0.61333 -0.335362,0.0032 -0.610134,-0.266386 -0.613331,-0.601748 z m 3.645241,-0.03475 c -0.0032,-0.335363 0.266386,-0.610135 0.601748,-0.613332 0.335362,-0.0032 0.610135,0.266387 0.613332,0.60175 0.0032,0.335361 -0.266388,0.610134 -0.60175,0.61333 -0.335362,0.0032 -0.610134,-0.266387 -0.61333,-0.601748 z m -16.386208,1.978975 c -0.0032,-0.335362 0.266387,-0.610134 0.601749,-0.61333 0.335361,-0.0032 0.610134,0.266386 0.613331,0.601748 0.0032,0.335363 -0.266388,0.610136 -0.601749,0.613332 -0.335362,0.0032 -0.610134,-0.266387 -0.613331,-0.60175 z m 3.64524,-0.03475 c -0.0032,-0.335362 0.266387,-0.610134 0.601749,-0.61333 0.335362,-0.0032 0.610135,0.266386 0.613331,0.601748 0.0032,0.335363 -0.266387,0.610136 -0.601749,0.613332 -0.335362,0.0032 -0.610134,-0.266387 -0.613331,-0.60175 z m 3.645241,-0.03475 c -0.0032,-0.335362 0.266385,-0.610134 0.601748,-0.61333 0.335362,-0.0032 0.610134,0.266386 0.613331,0.601748 0.0032,0.335363 -0.266387,0.610136 -0.601749,0.613332 -0.335363,0.0032 -0.610134,-0.266387 -0.61333,-0.60175 z m 3.645239,-0.03475 c -0.0032,-0.335362 0.266387,-0.610134 0.60175,-0.61333 0.33536,-0.0032 0.610133,0.266386 0.61333,0.601748 0.0032,0.335363 -0.266388,0.610136 -0.601748,0.613332 -0.335363,0.0032 -0.610135,-0.266387 -0.613332,-0.60175 z m 3.645241,-0.03475 c -0.0032,-0.335362 0.266386,-0.610134 0.601748,-0.61333 0.335362,-0.0032 0.610135,0.266386 0.613331,0.601748 0.0032,0.335363 -0.266387,0.610136 -0.601749,0.613332 -0.335362,0.0032 -0.610134,-0.266387 -0.61333,-0.60175 z m 3.934958,0.464367 0,0 0,0 c -0.06724,-0.0425 -0.123036,-0.09543 -0.169226,-0.160615 -0.01661,-0.02171 -0.03323,-0.04343 -0.04621,-0.067 -0.01238,-0.02418 -0.02294,-0.04778 -0.03229,-0.07381 -0.02428,-0.06174 -0.04131,-0.126593 -0.04199,-0.197676 -0.0032,-0.335362 0.266387,-0.610134 0.601749,-0.61333 0.335361,-0.0032 0.610134,0.266386 0.613331,0.601748 0.0032,0.335362 -0.266388,0.610135 -0.601748,0.613332 -0.121509,0.0012 -0.228252,-0.04218 -0.323612,-0.102638 z M 39.446641,34.41434 c -0.0032,-0.335362 0.266387,-0.610134 0.601749,-0.61333 0.335361,-0.0032 0.610134,0.266386 0.613331,0.601748 0.0032,0.335363 -0.266388,0.610136 -0.601749,0.613333 -0.335362,0.0032 -0.610134,-0.266388 -0.613331,-0.601751 z m 3.645241,-0.03475 c -0.0032,-0.335362 0.266386,-0.610134 0.601748,-0.61333 0.335362,-0.0032 0.610135,0.266386 0.613331,0.601748 0.0032,0.335363 -0.266387,0.610136 -0.601749,0.613333 -0.335362,0.0032 -0.610134,-0.266388 -0.61333,-0.601751 z m 3.645239,-0.03475 c -0.0032,-0.335362 0.266387,-0.610134 0.601749,-0.61333 0.335362,-0.0032 0.610134,0.266386 0.613331,0.601748 0.0032,0.335363 -0.266387,0.610136 -0.601749,0.613333 -0.335362,0.0032 -0.610134,-0.266388 -0.613331,-0.601751 z m 3.64524,-0.03475 c -0.0032,-0.335362 0.266387,-0.610134 0.601749,-0.61333 0.335362,-0.0032 0.610135,0.266386 0.613331,0.601748 0.0032,0.335363 -0.266387,0.610136 -0.601749,0.613333 -0.335362,0.0032 -0.610134,-0.266388 -0.613331,-0.601751 z m 3.645241,-0.03475 c -0.0032,-0.335362 0.266387,-0.610134 0.601748,-0.61333 0.335362,-0.0032 0.610135,0.266386 0.613332,0.601748 0.0032,0.335363 -0.266388,0.610136 -0.60175,0.613333 -0.335361,0.0032 -0.610133,-0.266388 -0.61333,-0.601751 z m -16.386208,1.978978 c -0.0032,-0.335362 0.266387,-0.610134 0.601749,-0.613331 0.335361,-0.0032 0.610134,0.266387 0.613331,0.601749 0.0032,0.335362 -0.266388,0.610135 -0.601749,0.613332 -0.335362,0.0032 -0.610134,-0.266388 -0.613331,-0.60175 z m 3.64524,-0.03475 c -0.0032,-0.335362 0.266387,-0.610134 0.601749,-0.613331 0.335362,-0.0032 0.610135,0.266387 0.613331,0.601749 0.0032,0.335362 -0.266387,0.610135 -0.601749,0.613332 -0.335362,0.0032 -0.610134,-0.266388 -0.613331,-0.60175 z m 3.645241,-0.03475 c -0.0032,-0.335362 0.266386,-0.610134 0.601748,-0.613331 0.335362,-0.0032 0.610134,0.266387 0.613331,0.601749 0.0032,0.335362 -0.266387,0.610135 -0.601749,0.613331 -0.335362,0.0032 -0.610133,-0.266387 -0.61333,-0.601749 z m 3.645239,-0.03475 c -0.0032,-0.335362 0.266387,-0.610134 0.60175,-0.613331 0.33536,-0.0032 0.610133,0.266387 0.61333,0.601749 0.0032,0.335362 -0.266388,0.610135 -0.601748,0.613331 -0.335363,0.0032 -0.610135,-0.266387 -0.613332,-0.601749 z m 3.645241,-0.03475 c -0.0032,-0.335362 0.266386,-0.610134 0.601748,-0.613331 0.335362,-0.0032 0.610135,0.266387 0.613332,0.601749 0.0032,0.335362 -0.266388,0.610135 -0.60175,0.613331 -0.335362,0.0032 -0.610134,-0.266387 -0.61333,-0.601749 z M 35.836147,38.09439 c -0.0032,-0.335361 0.266387,-0.610133 0.601749,-0.61333 0.335362,-0.0032 0.610134,0.266387 0.613331,0.601748 0.0032,0.335363 -0.266387,0.610135 -0.601749,0.613332 -0.335362,0.0032 -0.610134,-0.266387 -0.613331,-0.60175 z m 3.64524,-0.03475 c -0.0032,-0.335361 0.266387,-0.610133 0.601749,-0.61333 0.335361,-0.0032 0.610134,0.266387 0.613331,0.601748 0.0032,0.335363 -0.266388,0.610135 -0.601749,0.613332 -0.335362,0.0032 -0.610134,-0.266387 -0.613331,-0.60175 z m 3.645241,-0.03475 c -0.0032,-0.335361 0.266386,-0.610133 0.601748,-0.61333 0.335362,-0.0032 0.610135,0.266387 0.613331,0.601748 0.0032,0.335363 -0.266387,0.610135 -0.601749,0.613332 -0.335362,0.0032 -0.610134,-0.266387 -0.61333,-0.60175 z m 3.645239,-0.03475 c -0.0032,-0.335361 0.266387,-0.610133 0.60175,-0.61333 0.335361,-0.0032 0.610133,0.266386 0.61333,0.601748 0.0032,0.335363 -0.266387,0.610135 -0.601748,0.613332 -0.335363,0.0032 -0.610135,-0.266387 -0.613332,-0.60175 z m 3.645241,-0.03475 c -0.0032,-0.335362 0.266386,-0.610134 0.601748,-0.61333 0.335362,-0.0032 0.610135,0.266386 0.613331,0.601748 0.0032,0.335363 -0.266387,0.610135 -0.601749,0.613332 -0.335362,0.0032 -0.610134,-0.266387 -0.61333,-0.60175 z m -16.386207,1.978978 c -0.0032,-0.335362 0.266385,-0.610134 0.601748,-0.613331 0.335362,-0.0032 0.610134,0.266387 0.613331,0.601749 0.0032,0.335362 -0.266387,0.610134 -0.601749,0.613331 -0.335363,0.0032 -0.610134,-0.266387 -0.61333,-0.601749 z m 3.645239,-0.03475 c -0.0032,-0.335362 0.266387,-0.610134 0.60175,-0.613331 0.33536,-0.0032 0.610133,0.266387 0.61333,0.601749 0.0032,0.335362 -0.266388,0.610134 -0.601748,0.613331 -0.335363,0.0032 -0.610135,-0.266387 -0.613332,-0.601749 z m 3.645241,-0.03475 c -0.0032,-0.335362 0.266386,-0.610134 0.601748,-0.613331 0.335362,-0.0032 0.610135,0.266387 0.613331,0.601749 0.0032,0.335362 -0.266387,0.610134 -0.601749,0.613331 -0.335362,0.0032 -0.610134,-0.266387 -0.61333,-0.601749 z m 3.64524,-0.03475 c -0.0032,-0.335361 0.266386,-0.610133 0.601748,-0.61333 0.335362,-0.0032 0.610134,0.266387 0.613331,0.601748 0.0032,0.335363 -0.266387,0.610135 -0.601749,0.613332 -0.335362,0.0032 -0.610133,-0.266387 -0.61333,-0.60175 z m 3.645239,-0.03475 c -0.0032,-0.335361 0.266387,-0.610133 0.60175,-0.61333 0.33536,-0.0032 0.610133,0.266387 0.61333,0.601748 0.0032,0.335363 -0.266387,0.610135 -0.601748,0.613332 -0.335363,0.0032 -0.610135,-0.266387 -0.613332,-0.60175 z m 3.93496,0.464368 0,0 0,0 c -0.06724,-0.0425 -0.123036,-0.09543 -0.169227,-0.160616 -0.01661,-0.02171 -0.03323,-0.04343 -0.04621,-0.067 -0.01238,-0.02418 -0.02294,-0.04778 -0.03231,-0.07382 -0.02428,-0.06174 -0.04131,-0.126594 -0.04199,-0.197676 -0.0032,-0.335362 0.266386,-0.610134 0.601748,-0.613331 0.335362,-0.0032 0.610134,0.266387 0.613331,0.601749 0.0032,0.335362 -0.266387,0.610134 -0.601749,0.613331 -0.121508,0.0012 -0.22825,-0.04218 -0.323612,-0.102636 z M 53.555452,40.963469 60.646751,26.435718 67.98734,40.22864 60.901335,55.311683 53.555452,40.963469 z M 41.853197,56.264894 34.423733,41.753425 52.506553,41.581061 59.936018,56.09253 41.853197,56.264894 z"
     id="path3"
     style="fill:#f9f9f9;fill-opacity:1;fill-rule:nonzero" /><text
     xml:space="preserve"
     style="font-size:4.37295198px;font-style:normal;font-weight:normal;line-height:125%;letter-spacing:0px;word-spacing:0px;fill:#f9f9f9;fill-opacity:1;stroke:none;font-family:Sans"
     x="58.950184"
     y="-5.3972764"
     id="text3035"
     sodipodi:linespacing="125%"
     transform="matrix(0.57880641,0.81546498,-0.81546498,0.57880641,0,0)"><tspan
       sodipodi:role="line"
       id="tspan3037"
       x="58.950184"
       y="-5.3972764"
       style="font-size:15.74262905px;fill:#f9f9f9;fill-opacity:1">@</tspan></text>
</svg>