<?xml version="1.0" encoding="UTF-8" standalone="no"?>
<svg
   xmlns:dc="http://purl.org/dc/elements/1.1/"
   xmlns:cc="http://creativecommons.org/ns#"
   xmlns:rdf="http://www.w3.org/1999/02/22-rdf-syntax-ns#"
   xmlns:svg="http://www.w3.org/2000/svg"
   xmlns="http://www.w3.org/2000/svg"
   id="svg6405"
   version="1.1"
   viewBox="0 0 4715.0347 5176.5098"
   height="5176.5098mm"
   width="4715.0347mm">
  <defs
     id="defs6399" />
  <metadata
     id="metadata6402">
    <rdf:RDF>
      <cc:Work
         rdf:about="">
        <dc:format>image/svg+xml</dc:format>
        <dc:type
           rdf:resource="http://purl.org/dc/dcmitype/StillImage" />
        <dc:title></dc:title>
      </cc:Work>
    </rdf:RDF>
  </metadata>
  <g
     transform="translate(2251.6845,2439.4214)"
     id="layer1">
    <g
       style="fill:#009ddc;fill-opacity:1"
       transform="matrix(596.86965,21.335369,-21.335369,596.86965,-123518.55,-24193.646)"
       id="g1324-5-1-3-0-8-1-0-2-5">
      <g
         style="fill:#009ddc;fill-opacity:1"
         transform="translate(85.574679,47.868718)"
         id="g1328-1-6-2-8-6-7-8-5-3">
        <path
           transform="matrix(1.0770063,0.9492221,-1.0046359,1.1398799,106.44427,61.330811)"
           d="m -24.368763,-42.459402 c -0.510632,0.458109 -0.966292,-1.013121 -1.673771,-0.941195 -0.70748,0.07193 -0.713441,1.943161 -1.33609,1.649999 -0.62265,-0.293163 0.476797,-1.660298 -1.99e-4,-2.167068 -0.476997,-0.506769 -1.962992,0.698959 -2.041117,-0.01042 -0.07813,-0.709382 1.403473,-0.584108 1.673571,-1.225873 0.270099,-0.641765 -1.074275,-1.238953 -0.529768,-1.66393 0.544507,-0.424977 0.932233,0.862979 1.649867,0.736536 0.717635,-0.126443 0.251286,-1.622607 0.91659,-1.44534 0.665304,0.177267 -0.02098,1.244997 0.44361,1.77276 0.464589,0.527762 1.510908,-0.06253 1.621617,0.658485 0.110709,0.721014 -1.238868,0.06682 -1.453697,0.732663 -0.214829,0.665845 1.240019,1.445276 0.729387,1.903385 z"
           id="path1237-1-0-5-6-8-7-9-0-5"
           style="fill:#009ddc;fill-opacity:1;stroke:none;stroke-width:0.12845102" />
      </g>
    </g>
  </g>
</svg>
