<?xml version="1.0" encoding="iso-8859-1"?>
<!-- Generator: Adobe Illustrator 19.0.0, SVG Export Plug-In . SVG Version: 6.00 Build 0)  -->
<svg xmlns="http://www.w3.org/2000/svg" xmlns:xlink="http://www.w3.org/1999/xlink" version="1.1" id="Capa_1" x="0px" y="0px" viewBox="0 0 512 512" style="enable-background:new 0 0 512 512;" xml:space="preserve" width="512px" height="512px">
<g>
	<g>
		<path d="M486.4,401.067h-8.533V179.2c9.421-0.011,17.056-7.646,17.067-17.067v-102.4c-0.011-9.421-7.645-17.056-17.067-17.067    V25.6c0-14.138-11.462-25.6-25.6-25.6c-14.138,0-25.6,11.461-25.6,25.6v17.067c-9.421,0.011-17.056,7.645-17.067,17.067v5.737    l-85.835,117.047c-2.53-2.639-5.211-5.132-8.032-7.462v-64.123H332.8c9.422-0.009,17.057-7.645,17.067-17.067V59.733    c-0.009-9.422-7.645-17.057-17.067-17.067h-17.067v-25.6C315.724,7.645,308.088,0.009,298.667,0h-85.333    c-9.422,0.009-17.057,7.645-17.067,17.067v25.6H179.2c-9.422,0.009-17.057,7.645-17.067,17.067v34.133    c0.009,9.422,7.645,17.057,17.067,17.067h17.067v64.123c-2.821,2.33-5.502,4.823-8.032,7.462L102.4,65.471v-5.737    c-0.009-9.422-7.645-17.057-17.067-17.067V25.6c0-14.138-11.461-25.6-25.6-25.6s-25.6,11.461-25.6,25.6v17.067    c-9.422,0.009-17.057,7.645-17.067,17.067v102.4c0.009,9.422,7.645,17.057,17.067,17.067v221.867H25.6    c-14.132,0.015-25.585,11.468-25.6,25.6v76.8C0,508.18,3.82,512,8.533,512h51.2h51.2h290.133h51.2h51.2    c2.263,0.001,4.434-0.898,6.035-2.499c1.6-1.6,2.499-3.771,2.499-6.035v-76.8C511.985,412.535,500.532,401.082,486.4,401.067z     M460.8,401.067h-17.067V179.2H460.8V401.067z M418.133,401.067c-14.132,0.015-25.585,11.468-25.6,25.6v8.533h-76.8V319.821    c19.555-16.167,32.451-40.098,33.977-67.071l61.388-83.663c2.667,5.951,8.627,10.106,15.569,10.113v221.867H418.133z     M119.467,435.2v-8.533c-0.015-14.132-11.468-25.585-25.6-25.6h-8.533V179.2c6.944-0.007,12.905-4.162,15.571-10.115    l61.379,83.656c1.496,27.004,14.402,50.965,33.983,67.136V435.2H119.467z M209.238,186.562c0.484-0.296,0.935-0.637,1.349-1.02    c12.721-9.345,28.418-14.875,45.413-14.875c17.094,0.02,32.875,5.623,45.633,15.075c0.277,0.239,0.567,0.462,0.873,0.664    c18.385,14.031,30.265,36.153,30.294,61.06c0,0.532-0.029,1.057-0.04,1.587c-0.039,0.411-0.052,0.825-0.031,1.238    c-0.857,23.657-12.405,44.576-29.966,58.08c-0.484,0.296-0.935,0.637-1.349,1.02c-12.721,9.345-28.418,14.875-45.413,14.875    c-16.994,0-32.692-5.53-45.413-14.875c-0.414-0.383-0.865-0.724-1.349-1.02c-17.56-13.503-29.108-34.42-29.966-58.074    c0.022-0.415,0.008-0.831-0.031-1.244c-0.011-0.53-0.04-1.055-0.04-1.587C179.2,222.653,190.979,200.602,209.238,186.562z     M264.533,341.333V358.4h-17.067v-17.067H264.533z M213.333,331.097c5.407,2.764,11.117,5.018,17.067,6.701v29.135    c0,4.713,3.82,8.533,8.533,8.533h8.533v17.067c0,4.713,3.82,8.533,8.533,8.533s8.533-3.821,8.533-8.533v-17.067h8.533    c4.713,0,8.533-3.82,8.533-8.533v-29.16c5.95-1.688,11.66-3.948,17.067-6.717V435.2h-85.333V331.097z M443.733,25.6    c0-4.713,3.821-8.533,8.533-8.533c4.713,0,8.533,3.82,8.533,8.533v17.067h-17.067V25.6z M477.867,59.733l0.009,102.4h-51.209    V68.312c0.001-0.116,0.004-0.231,0-0.346v-8.232H477.867z M409.6,94.335v47.931l-62.021,84.536    c-2.47-10.992-6.867-21.253-12.819-30.412L409.6,94.335z M213.333,17.067h85.333v25.6h-85.333V17.067z M179.2,59.733h153.6    l0.013,34.133H179.2V59.733z M213.333,110.933h85.333v52.903C285.865,157.292,271.364,153.6,256,153.6    s-29.865,3.692-42.667,10.236V110.933z M177.24,196.389c-5.952,9.159-10.349,19.421-12.819,30.413L102.4,142.271V94.335    L177.24,196.389z M51.2,25.6c0-4.713,3.82-8.533,8.533-8.533s8.533,3.82,8.533,8.533v17.067H51.2V25.6z M34.133,59.733h51.2    l0.001,8.22c-0.004,0.127-0.001,0.254,0,0.381l0.009,76.396c-0.006,0.158-0.003,0.314,0,0.472l0.002,16.931H34.133V59.733z     M51.2,179.2h17.067v221.867H51.2V179.2z M17.067,426.667c0.006-4.71,3.823-8.527,8.533-8.533h17.067H76.8h17.067    c4.71,0.006,8.527,3.823,8.533,8.533v8.533H68.267c-9.422,0.009-17.057,7.645-17.067,17.067v42.667H17.067V426.667z     M401.067,494.933H110.933H68.267v-42.667H204.8h102.4h136.533v42.667H401.067z M494.933,494.933H460.8v-42.667    c-0.011-9.421-7.646-17.056-17.067-17.067H409.6v-8.533c0.005-4.711,3.822-8.529,8.533-8.533H435.2h34.133H486.4    c4.711,0.005,8.529,3.822,8.533,8.533V494.933z" fill="#006DF0"/>
	</g>
</g>
<g>
</g>
<g>
</g>
<g>
</g>
<g>
</g>
<g>
</g>
<g>
</g>
<g>
</g>
<g>
</g>
<g>
</g>
<g>
</g>
<g>
</g>
<g>
</g>
<g>
</g>
<g>
</g>
<g>
</g>
</svg>
