<?xml version="1.0" encoding="iso-8859-1"?>
<!-- Generator: Adobe Illustrator 19.0.0, SVG Export Plug-In . SVG Version: 6.00 Build 0)  -->
<svg xmlns="http://www.w3.org/2000/svg" xmlns:xlink="http://www.w3.org/1999/xlink" version="1.1" id="Capa_1" x="0px" y="0px" viewBox="0 0 512.084 512.084" style="enable-background:new 0 0 512.084 512.084;" xml:space="preserve" width="512px" height="512px">
<g transform="translate(-1 -1)">
	<g>
		<g>
			<path d="M257.084,146.081c13.1,0,128-0.958,128-34.133s-114.9-34.133-128-34.133s-128,0.958-128,34.133     S243.984,146.081,257.084,146.081z M257.084,94.88c63.133,0,102.8,10.425,110.217,17.067     c-7.417,6.642-47.083,17.067-110.217,17.067s-102.8-10.425-110.217-17.067C154.284,105.306,193.951,94.88,257.084,94.88z" fill="#006DF0"/>
			<path d="M469.283,352.806c-1.638-6.683-4.904-12.843-9.477-17.948c6.822-7.457,10.612-15.708,10.612-24.731     c-0.618-9.929-4.809-19.181-11.619-26.167c7.451-7.854,11.619-16.591,11.619-26.191c-0.591-9.86-4.642-19.08-11.269-26.143     c7.233-7.877,11.269-16.624,11.269-26.22c-0.558-9.666-4.388-18.737-10.689-25.83c6.872-7.744,10.689-16.317,10.689-25.695     c0.006-0.814-0.025-1.627-0.087-2.437c26.558-10.424,42.753-23.622,42.753-39.509c0-44.817-128.783-68.267-256-68.267     s-256,23.45-256,68.267c0,15.887,16.196,29.085,42.755,39.509c-0.061,0.81-0.094,1.622-0.088,2.436     c0,9.378,3.817,17.951,10.689,25.695c-6.3,7.093-10.13,16.164-10.689,25.83c0,9.596,4.036,18.343,11.269,26.22     c-6.627,7.063-10.677,16.283-11.269,26.143c0,9.6,4.168,18.337,11.619,26.191c-6.81,6.986-11.001,16.238-11.619,26.167     c0,9.023,3.79,17.274,10.612,24.731c-5.104,5.697-8.578,12.71-9.981,20.294C15.491,367.354,0.9,381.79,1.001,398.118     c0.1,21.967,27.458,40.592,79.108,53.867c56.387,12.996,114.132,19.161,171.992,18.363c1.758,0,3.534-0.004,5.292-0.012     c168.033-1.029,255.775-38.55,255.608-75.096C512.899,378.838,498.203,364.577,469.283,352.806z M67.309,190.824     c37.844,26.566,115.485,40.59,189.774,40.59s151.931-14.023,189.774-40.59c3.555,4.047,5.85,9.118,6.492,14.581     c0,28.446-80.6,60.142-196.267,60.142S60.817,233.851,60.817,205.406C61.459,199.942,63.754,194.872,67.309,190.824z      M68.069,242.711c38.112,26.119,115.212,39.903,189.015,39.903s150.903-13.784,189.015-39.903     c3.958,4.054,6.541,9.325,7.252,15.057c0,27.896-80.6,58.979-196.267,58.979S60.817,285.664,60.817,257.768     C61.528,252.035,64.111,246.765,68.069,242.711z M68.628,294.883c38.302,25.484,115.012,38.931,188.456,38.931     s150.154-13.448,188.456-38.931c4.243,3.995,7.038,9.361,7.81,15.244c0,5.457-3.218,11.037-9.272,16.475     c-0.16,0.051-0.322,0.089-0.48,0.15c-1.844,0.713-3.341,2.033-4.301,3.691c-27.877,20.219-95.095,37.505-182.213,37.505     c-87.211,0-154.477-17.323-182.3-37.569c-0.202-0.339-0.421-0.671-0.675-0.988c-1.072-1.333-2.465-2.253-3.977-2.75     c-6.082-5.45-9.314-11.044-9.314-16.513C61.589,304.243,64.384,298.878,68.628,294.883z M61.746,355.892     c1.131-3.724,3.08-7.138,5.688-9.999c37.889,25.606,115.44,39.121,189.649,39.121s151.761-13.515,189.649-39.121     c2.593,2.845,4.533,6.237,5.667,9.936c-0.439,1.312-0.573,2.728-0.333,4.139c0.175,1.026,0.545,1.986,1.054,2.858     c-4.757,27.161-83.923,56.321-196.038,56.321c-109.169,0-187.087-27.648-195.498-54.177c0.645-0.983,1.098-2.098,1.294-3.298     C63.212,359.64,62.78,357.601,61.746,355.892z M18.151,111.935c0-21.379,90.9-51.2,238.933-51.2s238.933,29.821,238.933,51.2     c0,7.995-12.716,17.17-36.374,25.525c-0.124,0.012-0.247,0.017-0.371,0.034c-1.254,0.174-2.41,0.619-3.42,1.264     c-40.215,13.404-108.978,24.376-198.769,24.376c-89.78,0-158.536-10.969-198.754-24.372c-0.958-0.614-2.048-1.049-3.231-1.24     c-0.197-0.032-0.393-0.05-0.59-0.068C30.861,129.101,18.151,119.928,18.151,111.935z M257.084,180.201     c72.968,0,146.44-7.718,195.842-22.754c-1.062,4.641-4.156,9.329-9.114,13.917c-0.047,0.017-0.096,0.026-0.143,0.043     c-1.873,0.704-3.395,2.037-4.367,3.715c-27.875,21.145-95.094,39.225-182.218,39.225c-87.227,0-154.501-18.123-182.315-39.301     c-0.212-0.354-0.443-0.701-0.713-1.029c-0.993-1.212-2.254-2.072-3.624-2.581c-5.003-4.611-8.122-9.324-9.191-13.989     C110.644,172.483,184.116,180.201,257.084,180.201z M257.292,453.268c-58.156,1.169-116.236-4.813-172.933-17.812     c-48.858-12.558-66.25-28.004-66.292-37.425c-0.049-7.727,10.316-16.801,28.256-25.082     c17.067,41.19,116.601,63.266,210.76,63.266c95.573,0,196.688-22.741,211.478-65.132c17.289,7.888,27.323,16.651,27.372,24.244     C496.042,418.909,405.309,452.359,257.292,453.268z" fill="#006DF0"/>
		</g>
	</g>
</g>
<g>
</g>
<g>
</g>
<g>
</g>
<g>
</g>
<g>
</g>
<g>
</g>
<g>
</g>
<g>
</g>
<g>
</g>
<g>
</g>
<g>
</g>
<g>
</g>
<g>
</g>
<g>
</g>
<g>
</g>
</svg>
