<?xml version="1.0" encoding="iso-8859-1"?>
<!-- Generator: Adobe Illustrator 16.0.0, SVG Export Plug-In . SVG Version: 6.00 Build 0)  -->
<!DOCTYPE svg PUBLIC "-//W3C//DTD SVG 1.1//EN" "http://www.w3.org/Graphics/SVG/1.1/DTD/svg11.dtd">
<svg xmlns="http://www.w3.org/2000/svg" xmlns:xlink="http://www.w3.org/1999/xlink" version="1.1" id="Capa_1" x="0px" y="0px" width="512px" height="512px" viewBox="0 0 612 612" style="enable-background:new 0 0 612 612;" xml:space="preserve">
<g>
	<g>
		<path d="M610.58,290.891c0.008-0.111,1.42-0.193,1.42-0.305v-0.49c0-0.164,0-0.32,0-0.483V187.574    c0-2.646-2.765-5.099-5.062-6.422c-0.729-0.423-2.185-0.661-2.98-0.817l-185.556-99.69c-2.326-1.256-5.12-1.025-7.261,0.164    c-0.074,0.037-0.238,0.03-0.312,0.074L175.574,216.047l-48.964-26.229c-1.65-0.877-3.464-0.996-5.151-0.617    c-0.148,0.015-0.297,0.022-0.453,0.044c-0.06,0.015-0.119,0.038-0.179,0.06c-0.832,0.149-1.657,0.364-2.43,0.803L4.757,255.283    c-1.323,0.498-2.378,1.382-3.218,2.49c-0.074,0.097-0.134,0.193-0.201,0.297c-0.424,0.617-0.758,1.263-0.981,1.999    c-0.119,0.364-0.164,0.729-0.223,1.107c-0.044,0.216-0.119,0.401-0.134,0.609c-0.007,0.052,1.286,0.104,1.278,0.164    c0,0.089,1.271,0.164,1.271,0.253v162.21c0,0.35-1.167,0.646-1.115,0.981c0.067,0.52-0.528,1.025-0.35,1.523    c0.164,0.453,0.075,0.832,0.32,1.241c0.245,0.416,0.305,0.817,0.624,1.174c0.342,0.387,0.677,0.677,1.093,0.981    c0.275,0.2,0.424,0.483,0.736,0.646l8.138,4.399c1.412,19.094,13.133,36.434,29.425,42.788c5.158,2.007,10.494,2.988,15.786,2.988    c8.778,0,17.37-2.795,24.728-8.057l105.978,57.125c1.1,0.594,2.319,0.892,3.53,0.892c1.271,0,2.534-0.327,3.679-0.974    l29.967-17.503c5.352,10.278,15.861,19.576,36.768,19.576c0.075,0,0.149,0,0.223,0c26.853,0,51.677-21.338,55.408-48.229    c1.004-7.254,0.045-14.976-2.475-22.274l5.418-2.966c0.111-0.059,0.164-0.111,0.275-0.178c0.022-0.015,0.044,0,0.066,0    l193.293-109.798c7.841,12.836,22.207,19.94,40.565,19.94c0.008,0,0.015,0,0.015,0c27.447,0,51.283-21.746,53.127-48.711    c0.542-7.789-0.766-15.251-3.791-22.119l1.62-0.877c0.356-0.201,0.58-0.498,0.885-0.75c0.29-0.23,0.572-0.431,0.825-0.707    c0.468-0.505,0.817-1.062,1.129-1.672c0.104-0.216,0.907-0.401,0.989-0.625C609.726,292.481,610.543,291.708,610.58,290.891z     M314.707,444.888v-85.36L597.136,200.35v85.933L314.707,444.888z M122.864,204.691L293.51,296.13l-101.86,57.318L22.438,262.284    L122.864,204.691z M507.397,232.792l-82.752-45.263c0.045-0.342,1.554-0.639,1.554-0.988v-86.096l161.281,87.523L507.397,232.792z     M414.746,199.808l77.541,41.658L314.707,342.62v-43.665c0-1.523,0.142-3.151-0.461-4.697c-0.2-2.431-1.523-4.727-3.827-5.961    l-25.701-13.75L414.746,199.808z M17.414,419.968V275.045l170.943,91.172v145.005L17.414,419.968z M203.222,366.448l96.62-56.672    v46.81c0,0.602,0,1.129,0,1.687v95.142l-96.62,57.474V366.448L203.222,366.448z M411.327,99.256v86.921l-140.716,80.091    l-77.608-41.948L411.327,99.256z M46.801,464.287c-8.012-3.121-14.508-10.688-17.823-19.77l37.333,20.127    C60.105,466.822,53.238,466.792,46.801,464.287z M302.749,481.939c-2.743,19.807-20.967,35.399-40.67,35.399    c-0.052,0-0.111,0-0.164,0c-12.025,0-19.733-3.627-23.932-12.055l63.732-36.255C302.845,473.384,303.306,477.933,302.749,481.939z     M592.943,318.956c-1.323,19.339-18.506,34.872-38.299,34.872h-0.007c-7.73,0-20.736-1.62-27.642-12.39l63.881-36.232    C592.513,309.494,593.271,314.139,592.943,318.956z" fill="#006DF0"/>
		<path d="M166.945,372.833L35.17,302.537c-2.297-1.249-4.771-1.182-7.016,0.164c-2.245,1.338-3.3,3.761-3.3,6.377v77.378    c0,2.735,0.528,5.255,2.936,6.548l129.961,70.005c1.093,0.588,2.059,0.877,3.263,0.877c1.323,0,5.166-0.349,6.34-1.048    c2.245-1.345,6.139-3.768,6.139-6.377v-77.088C173.493,376.645,169.353,374.125,166.945,372.833z M158.628,444.048L39.711,382.011    v-60.484l118.917,62.283V444.048z" fill="#006DF0"/>
	</g>
</g>
<g>
</g>
<g>
</g>
<g>
</g>
<g>
</g>
<g>
</g>
<g>
</g>
<g>
</g>
<g>
</g>
<g>
</g>
<g>
</g>
<g>
</g>
<g>
</g>
<g>
</g>
<g>
</g>
<g>
</g>
</svg>
