<?xml version="1.0" encoding="UTF-8" standalone="no"?>
<!-- Generator: Adobe Illustrator 16.0.0, SVG Export Plug-In . SVG Version: 6.00 Build 0)  -->

<svg
   xmlns:dc="http://purl.org/dc/elements/1.1/"
   xmlns:cc="http://creativecommons.org/ns#"
   xmlns:rdf="http://www.w3.org/1999/02/22-rdf-syntax-ns#"
   xmlns:svg="http://www.w3.org/2000/svg"
   xmlns="http://www.w3.org/2000/svg"
   xmlns:sodipodi="http://sodipodi.sourceforge.net/DTD/sodipodi-0.dtd"
   xmlns:inkscape="http://www.inkscape.org/namespaces/inkscape"
   version="1.1"
   id="Capa_1"
   x="0px"
   y="0px"
   width="1089.8763"
   height="737.26855"
   viewBox="0 0 117.17875 79.269328"
   xml:space="preserve"
   inkscape:version="0.48.4 r9939"
   sodipodi:docname="@logo.svg"><metadata
     id="metadata51"><rdf:RDF><cc:Work
         rdf:about=""><dc:format>image/svg+xml</dc:format><dc:type
           rdf:resource="http://purl.org/dc/dcmitype/StillImage" /><dc:title></dc:title></cc:Work></rdf:RDF></metadata><defs
     id="defs49" /><sodipodi:namedview
     pagecolor="#ffffff"
     bordercolor="#666666"
     borderopacity="1"
     objecttolerance="10"
     gridtolerance="10"
     guidetolerance="10"
     inkscape:pageopacity="0"
     inkscape:pageshadow="2"
     inkscape:window-width="1797"
     inkscape:window-height="948"
     id="namedview47"
     showgrid="false"
     fit-margin-top="0"
     fit-margin-left="0"
     fit-margin-right="0"
     fit-margin-bottom="0"
     inkscape:zoom="0.921875"
     inkscape:cx="678.42641"
     inkscape:cy="422.92028"
     inkscape:window-x="57"
     inkscape:window-y="34"
     inkscape:window-maximized="0"
     inkscape:current-layer="Capa_1" /><g
     id="g3"
     transform="translate(50.103933,-4.0225754)"><g
       id="g5"
       style="fill:#0061d7;fill-opacity:1"
       transform="translate(0,-8.3863726)"><path
         d="m 34.362995,68.44036 0,-0.04 c 1.616,-0.565 2.424,-1.696 2.424,-3.071 0,-1.718 -1.394,-3.213 -4.102,-3.213 -1.576,0 -3.031,0.485 -3.778,1.01 l 0.566,1.799 c 0.545,-0.363 1.616,-0.828 2.687,-0.828 1.434,0 2.101,0.748 2.101,1.636 0,1.313 -1.455,1.839 -2.606,1.839 l -1.111,0 0,1.818 1.151,0 c 1.516,0 2.97,0.667 2.97,2.222 0.02,1.031 -0.748,2.103 -2.646,2.103 -1.252,0 -2.663481,-0.274207 -3.168481,-0.578207 0,0 -1.449317,-0.786588 -2.326075,-1.126951 -2.617912,-1.016292 -5.497578,2.364061 -5.497578,2.364061 l -0.453079,1.375732 c 0,0 0.06289,0.251991 1.593682,-0.427527 0.911929,-0.404805 2.317632,-2.113369 3.712204,-1.685897 1.08787,0.33346 2.583327,1.148787 2.583327,1.148787 0.794472,0.494157 2.081,0.908 3.677,0.908 3.253,0 5.112,-1.757 5.112,-3.979 0,-1.779 -1.293,-2.991 -2.889,-3.274 z"
         id="path15"
         style="fill:#0061d7;fill-opacity:1"
         inkscape:connector-curvature="0"
         sodipodi:nodetypes="ccssccsssccscscsccsscsscc" /><path
         style="fill:#0361d7;fill-opacity:1"
         inkscape:connector-curvature="0"
         d="m 60.163559,31.715948 -16.75,0 0,-7.417 -11.668,0 0,7.417 -16.748999,0 c -0.874999,0 -1.583998,0.709 -1.583998,1.582999 0,0.874 0.708999,1.583 1.583998,1.583 l 16.748999,0 0,7.417 3.905,0 0,2.403001 c 0,0.562999 0.247,1.066999 0.634001,1.42 -0.251001,0.042 -0.514001,0.075 -0.776001,0.103999 -1.123999,0.131001 -2.398,0.279001 -2.667,1.472001 l -0.012,0.101 c -0.006,0.323 0.113001,0.609999 0.344,0.832 0.716,0.687999 2.333939,0.629966 4.917,0.476999 2.026939,-0.120033 4.550526,-0.268576 5.296,0.412 0.127528,0.116426 0.187191,0.250024 0.193,0.432 0.03119,0.977027 -1.524993,1.174088 -3.730001,1.346 -1.783992,0.139088 -3.466874,0.271106 -4.239999,1.178 -0.301875,0.354107 -0.593337,0.891425 -0.391999,1.295 0.428363,0.858639 1.828212,0.674248 2.77279,0.77582 2.942004,0.316359 5.193337,0.281978 5.020092,2.080736 -0.09117,0.946551 -1.887498,0.503029 -3.14151,0.370706 -1.484051,-0.156597 -2.488848,-0.0642 -3.008522,0.617467 -0.66926,0.877888 -0.589557,1.830698 -0.09826,2.205361 2.16072,0.312906 6.285971,1.401242 4.871746,2.017801 -0.417844,0.182168 -3.102345,-0.643366 -5.093339,-0.06709 -1.759029,0.509141 -2.183174,2.004987 -1.864146,2.673274 0.04134,2.127909 1.339548,1.906931 1.303811,-0.08566 -0.0022,-0.120817 -0.110578,-1.283266 1.369916,-1.735352 0.979211,-0.299014 3.462779,0.624172 4.764224,0.134936 1.080439,-0.504764 0.951086,-1.444637 0.525151,-1.970186 -1.343277,-1.65743 -5.695592,-1.109421 -5.289518,-2.170766 0.263252,-0.688057 1.752634,-0.573266 2.388464,-0.53811 0.494416,0.02734 3.374175,0.346621 4.233808,-0.804286 0.435463,-0.583013 0.253298,-1.617692 -0.217976,-2.172159 -1.649792,-1.941023 -7.784913,-1.381459 -7.381737,-1.978491 0.433535,-0.641989 2.123971,-0.717361 3.555999,-0.828999 2.210972,-0.172363 4.71992,-0.367032 4.652,-2.376 -0.01508,-0.446032 -0.194091,-0.8388 -0.52,-1.136001 -1.059094,-0.965802 -3.584038,-0.816641 -6.028,-0.672 -1.645038,0.09736 -3.685999,0.219001 -4.187,-0.275999 0.163,-0.396001 0.793,-0.497 1.779,-0.61 0.784,-0.092 1.64,-0.197 2.269,-0.623 0.916,-0.149 1.617,-0.938001 1.617,-1.896001 l 0,-2.403999 3.904,0 0,-7.417 16.75,0 c 0.874,0 1.583001,-0.709 1.583001,-1.583001 0,-0.874 -0.710001,-1.586999 -1.584001,-1.586999 z"
         sodipodi:nodetypes="cccccssscccscccccsssssssssscsscsscsssaassssscccscccsssc" /><path
         style="fill:#0361d7;fill-opacity:1"
         inkscape:connector-curvature="0"
         id="path9"
         d="m 30.622559,28.610948 h 0.332001 v -3.375001 h -0.332001 c -0.933,0 -1.688,0.755001 -1.688,1.688 0,0.933 0.755,1.687001 1.688,1.687001 z" /><path
         style="fill:#0361d7;fill-opacity:1"
         inkscape:connector-curvature="0"
         id="path11"
         d="m 43.933559,25.235947 v 3.375001 h 0.332 c 0.934,0 1.688,-0.755001 1.688,-1.688 0,-0.933 -0.755,-1.688001 -1.688,-1.688001 l -0.332,9.68e-4 0,0 z" /><path
         style="fill:#0361d7;fill-opacity:1"
         inkscape:connector-curvature="0"
         id="path13"
         d="m 38.429559,23.920947 0.275,-0.003 c -0.021,-1.668999 0.362999,-2.868999 1.172,-3.668999 1.537,-1.518 4.520999,-1.448 7.406,-1.375 3.006999,0.073 6.118,0.148 7.789999,-1.607 0.938001,-0.985 1.324001,-2.411 1.182,-4.357 l -0.996,0.073 c 0.120001,1.649 -0.176999,2.825 -0.908,3.594 -0.895999,0.939 -2.389999,1.232 -4.130999,1.304 0.390999,-0.204 0.751999,-0.454 1.06,-0.787 0.93,-1.007 1.305999,-2.54 1.149,-4.685 l -0.998001,0.073 c 0.137,1.854 -0.153999,3.141 -0.886999,3.934 -1.104,1.193 -3.150001,1.205 -5.318,1.217 -2.357001,0.014 -4.795,0.028 -6.337,1.598 -1.009,1.026 -1.484999,2.571 -1.458999,4.722 l 0.999999,-0.013 c -9.68e-4,-0.007 0,-0.012 0,-0.019 z" /><text
         xml:space="preserve"
         style="font-size:12.58148098px;font-style:normal;font-weight:normal;line-height:125%;letter-spacing:0px;word-spacing:0px;fill:#000000;fill-opacity:1;stroke:none;font-family:Sans"
         x="26.202744"
         y="60.252274"
         id="text3826"
         sodipodi:linespacing="125%"
         transform="scale(1.0190765,0.98128061)"><tspan
           sodipodi:role="line"
           id="tspan3828"
           x="26.202744"
           y="60.252274"
           style="fill:#0361cd;fill-opacity:1" /></text>
<rect
         style="fill:#0361d7;fill-opacity:1"
         id="rect3830"
         width="1.2370399"
         height="15.380528"
         x="45.435318"
         y="60.043621" /><text
         xml:space="preserve"
         style="font-size:14.68595219px;font-style:normal;font-weight:normal;line-height:125%;letter-spacing:0px;word-spacing:0px;fill:#0361d7;fill-opacity:1;stroke:none;font-family:Sans"
         x="34.950027"
         y="80.64949"
         id="text3832"
         sodipodi:linespacing="125%"
         transform="scale(1.0647716,0.93916855)"><tspan
           sodipodi:role="line"
           id="tspan3834"
           x="34.950027"
           y="80.64949"
           style="fill:#0361d7;fill-opacity:1">o</tspan></text>
<rect
         style="fill:#0361d7;fill-opacity:1"
         id="rect3857"
         width="1.3195091"
         height="20.204985"
         x="48.581081"
         y="60.662144" /><rect
         style="fill:#0361d7;fill-opacity:1"
         id="rect3880"
         width="18.494743"
         height="1.1442618"
         x="48.581356"
         y="79.76265" /></g></g><g
     id="g17"
     transform="translate(50.103933,-4.0225754)" /><g
     id="g19"
     transform="translate(50.103933,-4.0225754)" /><g
     id="g21"
     transform="translate(50.103933,-4.0225754)" /><g
     id="g23"
     transform="translate(50.103933,-4.0225754)" /><g
     id="g25"
     transform="translate(50.103933,-4.0225754)" /><g
     id="g27"
     transform="translate(50.103933,-4.0225754)" /><g
     id="g29"
     transform="translate(50.103933,-4.0225754)" /><g
     id="g31"
     transform="translate(50.103933,-4.0225754)" /><g
     id="g33"
     transform="translate(50.103933,-4.0225754)" /><g
     id="g35"
     transform="translate(50.103933,-4.0225754)" /><g
     id="g37"
     transform="translate(50.103933,-4.0225754)" /><g
     id="g39"
     transform="translate(50.103933,-4.0225754)" /><g
     id="g41"
     transform="translate(50.103933,-4.0225754)" /><g
     id="g43"
     transform="translate(50.103933,-4.0225754)" /><g
     id="g45"
     transform="translate(50.103933,-4.0225754)" /><path
     inkscape:connector-curvature="0"
     d="m 53.074289,34.343717 c 5.9e-5,-0.01566 -0.0058,-0.02942 -0.0066,-0.04509 -0.0036,-0.07251 -0.01197,-0.143096 -0.03021,-0.211776 -0.0086,-0.02944 -0.02223,-0.05596 -0.03382,-0.08444 -0.02029,-0.05302 -0.03959,-0.104056 -0.06871,-0.152234 -0.01748,-0.0295 -0.03987,-0.05508 -0.05932,-0.08164 -0.03114,-0.04228 -0.06322,-0.08361 -0.100255,-0.120073 -0.02535,-0.02463 -0.05464,-0.04631 -0.08288,-0.06807 -0.02635,-0.0207 -0.04873,-0.04534 -0.07702,-0.06413 -0.01665,-0.0099 -0.03518,-0.0149 -0.0518,-0.0238 -0.01366,-0.008 -0.02442,-0.01872 -0.03906,-0.02567 L 26.143906,20.585123 c -0.277486,-0.135746 -0.602761,-0.132647 -0.876878,0.0089 L 0.70505412,33.194537 c -0.0108,0.0058 -0.01767,0.01463 -0.02849,0.02045 -0.0108,0.0058 -0.02356,0.0088 -0.03535,0.01547 -0.03343,0.0204 -0.05903,0.04771 -0.08955,0.072 -0.02855,0.02237 -0.05902,0.04279 -0.08562,0.0681 -0.03743,0.03702 -0.06709,0.07797 -0.09765,0.119962 -0.01972,0.02734 -0.04338,0.0517 -0.06021,0.08099 -0.03067,0.05177 -0.05154,0.107479 -0.07145,0.164195 -0.009,0.02443 -0.02179,0.04593 -0.02881,0.07136 -0.022,0.07924 -0.03519,0.164396 -0.03568,0.251588 L -8.1688479e-4,65.408004 C -0.00281688,65.7793 0.20491012,66.119423 0.53610112,66.2878 L 25.937186,79.164037 c 0.01462,0.0069 0.03036,0.0042 0.045,0.01103 0.126071,0.05556 0.257145,0.09351 0.39234,0.09425 0.135192,7.5e-4 0.267649,-0.03576 0.39336,-0.0909 0.01474,-0.0067 0.03136,-0.0037 0.04511,-0.01057 L 52.354664,66.572773 c 0.33302,-0.16373 0.54454,-0.501536 0.54659,-0.872834 l 0.17299,-31.349365 c 7e-6,-0.001 2.5e-5,-0.0019 -3.3e-5,-0.004 5e-6,-10e-4 2.5e-5,-0.0019 6.9e-5,-0.003 z M 3.9340921,62.490637 c -0.540776,-0.003 -0.977246,-0.444296 -0.974263,-0.985073 0.003,-0.540777 0.444298,-0.977246 0.985074,-0.974264 0.540774,0.003 0.977243,0.444298 0.97426,0.985072 -0.003,0.540777 -0.444296,0.977246 -0.985072,0.974263 z m 0.0324,-5.878006 c -0.540776,-0.003 -0.977249,-0.444297 -0.974263,-0.985073 0.003,-0.540776 0.444298,-0.977245 0.985072,-0.974264 0.540777,0.003 0.977245,0.444298 0.974262,0.985073 -0.003,0.540778 -0.444297,0.977246 -0.985071,0.974264 z m 0.0324,-5.878007 c -0.540777,-0.003 -0.977247,-0.444296 -0.974263,-0.985073 0.003,-0.540776 0.444299,-0.977246 0.985072,-0.974263 0.540777,0.003 0.977245,0.444298 0.974261,0.985072 -0.003,0.540777 -0.444295,0.977245 -0.985071,0.974262 z m 0.03241,-5.878005 c -0.540776,-0.003 -0.977247,-0.444298 -0.974264,-0.985073 0.003,-0.540776 0.444299,-0.977247 0.985073,-0.974265 0.540776,0.003 0.977244,0.444297 0.974262,0.985073 -0.003,0.540776 -0.444295,0.977244 -0.985072,0.974262 z m 0.03241,-5.878007 c -0.540776,-0.003 -0.977248,-0.444297 -0.974264,-0.985074 0.003,-0.540774 0.444298,-0.977245 0.985072,-0.974262 0.540777,0.003 0.977245,0.444297 0.974262,0.985072 -0.003,0.540775 -0.444296,0.977246 -0.985071,0.974262 z m 2.793173,26.467246 c -0.540777,-0.003 -0.977245,-0.444297 -0.974262,-0.985072 0.003,-0.540776 0.444296,-0.977246 0.985072,-0.974264 0.540775,0.003 0.977245,0.444298 0.974261,0.985073 -0.003,0.540777 -0.444296,0.977245 -0.985072,0.974263 z m 0.0324,-5.878007 c -0.540776,-0.003 -0.977244,-0.444296 -0.974262,-0.985072 0.003,-0.540776 0.444297,-0.977245 0.985072,-0.974263 0.540776,0.003 0.977245,0.444299 0.974262,0.985072 -0.003,0.540776 -0.444295,0.977247 -0.985072,0.974262 z m 0.03241,-5.878006 c -0.540777,-0.003 -0.977246,-0.444296 -0.974262,-0.985071 0.003,-0.540778 0.444296,-0.977247 0.985072,-0.974264 0.540775,0.003 0.977244,0.444298 0.97426,0.985071 -0.003,0.540779 -0.444296,0.977248 -0.985071,0.974263 z m 0.03241,-5.878005 c -0.540777,-0.003 -0.977246,-0.444296 -0.974261,-0.985074 0.003,-0.540775 0.444295,-0.977244 0.98507,-0.974262 0.540778,0.003 0.977244,0.444297 0.974261,0.985072 -0.003,0.540778 -0.444295,0.977246 -0.985071,0.974264 z m 0.0324,-5.878007 c -0.540779,-0.003 -0.977247,-0.444297 -0.974262,-0.985073 0.003,-0.540776 0.444296,-0.977246 0.985071,-0.974262 0.540777,0.003 0.977244,0.444296 0.97426,0.985071 -0.003,0.540776 -0.444295,0.977245 -0.98507,0.974262 z m 2.793172,26.467247 c -0.540774,-0.003 -0.977245,-0.444299 -0.974262,-0.985074 0.003,-0.540775 0.444299,-0.977245 0.985072,-0.974263 0.5407759,0.003 0.9772449,0.444296 0.9742619,0.985072 -0.003,0.540777 -0.444295,0.977245 -0.9850719,0.974263 z m 0.0324,-5.878008 c -0.540775,-0.003 -0.977246,-0.444295 -0.974263,-0.985073 0.003,-0.540774 0.444298,-0.977243 0.985071,-0.974262 0.5407779,0.003 0.9772469,0.444297 0.9742629,0.985073 -0.003,0.540776 -0.444297,0.977245 -0.9850709,0.974262 z m 0.03241,-5.878006 c -0.540777,-0.003 -0.977247,-0.444296 -0.974264,-0.985073 0.003,-0.540775 0.444298,-0.977245 0.985072,-0.974262 0.5407769,0.003 0.9772449,0.444297 0.9742629,0.985073 -0.003,0.540776 -0.444297,0.977245 -0.9850709,0.974262 z m 0.03241,-5.878006 c -0.540774,-0.003 -0.977244,-0.444296 -0.974262,-0.985072 0.003,-0.540776 0.444299,-0.977246 0.985071,-0.974263 0.5407779,0.003 0.9772469,0.444299 0.9742639,0.985073 -0.003,0.540775 -0.444296,0.977246 -0.9850729,0.974262 z m 0.03241,-5.878006 c -0.540776,-0.003 -0.977247,-0.444296 -0.974263,-0.985072 0.003,-0.540778 0.444299,-0.977247 0.985072,-0.974264 0.5407759,0.003 0.9772469,0.444298 0.9742629,0.985072 -0.003,0.540778 -0.444297,0.977247 -0.9850719,0.974264 z M 12.702486,71.3563 c -0.540777,-0.003 -0.977247,-0.444297 -0.974265,-0.985073 0.003,-0.540775 0.444299,-0.977245 0.985072,-0.974264 0.540778,0.003 0.977248,0.444299 0.974265,0.985074 -0.003,0.540777 -0.444297,0.977245 -0.985073,0.974263 z m 0.03241,-5.878007 c -0.540772,-0.003 -0.977241,-0.444297 -0.974258,-0.985072 0.003,-0.540777 0.444299,-0.977247 0.985072,-0.974263 0.540779,0.003 0.977248,0.444296 0.974265,0.985073 -0.003,0.540776 -0.444298,0.977245 -0.985074,0.974263 z m 0.03241,-5.878006 c -0.540777,-0.003 -0.977246,-0.444297 -0.974264,-0.985073 0.003,-0.540773 0.444298,-0.977246 0.985074,-0.974263 0.540777,0.003 0.977247,0.444298 0.974263,0.985073 -0.003,0.540777 -0.444299,0.977246 -0.985074,0.974265 z m 0.0324,-5.878007 c -0.540777,-0.003 -0.977247,-0.444294 -0.974263,-0.985073 0.003,-0.540774 0.444297,-0.977244 0.985073,-0.974262 0.540779,0.003 0.977248,0.444299 0.974263,0.985075 -0.003,0.540777 -0.444296,0.977246 -0.985072,0.974263 z m 0.0324,-5.878005 c -0.540776,-0.003 -0.977245,-0.444297 -0.974262,-0.985073 0.003,-0.540775 0.444298,-0.977245 0.985072,-0.974263 0.540778,0.003 0.977249,0.444299 0.974263,0.985074 -0.003,0.540776 -0.444296,0.977246 -0.985073,0.974263 z m 0.84418,-6.333004 0,0 0,0 c -0.07015,0.107379 -0.156856,0.196052 -0.263028,0.268977 -0.03544,0.02622 -0.07083,0.05251 -0.109153,0.07287 -0.0393,0.01937 -0.07759,0.03582 -0.119796,0.05029 -0.100127,0.03766 -0.205106,0.06352 -0.319729,0.06288 -0.540777,-0.003 -0.977247,-0.444294 -0.974262,-0.985072 0.003,-0.540774 0.444297,-0.977244 0.985071,-0.974261 0.540779,0.003 0.977249,0.444297 0.974263,0.985073 -0.0011,0.195934 -0.07355,0.366981 -0.173332,0.519264 z m 1.981435,26.922244 c -0.540777,-0.003 -0.977245,-0.444296 -0.974263,-0.985073 0.003,-0.540775 0.444297,-0.977244 0.985071,-0.974261 0.540781,0.003 0.97725,0.444297 0.974265,0.985074 -0.003,0.540775 -0.444298,0.977244 -0.985073,0.974263 z m 0.0324,-5.878007 c -0.540777,-0.003 -0.977245,-0.444296 -0.974261,-0.985072 0.003,-0.540776 0.444298,-0.977247 0.985072,-0.974263 0.540778,0.003 0.977248,0.444298 0.974262,0.985074 -0.003,0.540776 -0.444296,0.977245 -0.985072,0.974263 z m 0.03241,-5.878006 c -0.540776,-0.003 -0.977244,-0.444296 -0.974263,-0.985072 0.003,-0.540775 0.444297,-0.977244 0.985073,-0.974262 0.540776,0.003 0.977247,0.444298 0.974263,0.985073 -0.003,0.540777 -0.444297,0.977246 -0.985074,0.974264 z m 0.0324,-5.878007 c -0.540776,-0.003 -0.977246,-0.444294 -0.974262,-0.985071 0.003,-0.540776 0.444296,-0.977245 0.985073,-0.974262 0.540777,0.003 0.977247,0.444298 0.974263,0.985072 -0.003,0.540778 -0.444297,0.977247 -0.985074,0.974264 z m 0.03241,-5.878003 c -0.540777,-0.003 -0.977245,-0.444299 -0.974262,-0.985073 0.003,-0.540776 0.444296,-0.977246 0.985071,-0.974263 0.540779,0.003 0.97725,0.444297 0.974263,0.985074 -0.003,0.540777 -0.444297,0.977245 -0.985073,0.974263 z m 2.793044,26.467243 c -0.540778,-0.003 -0.977246,-0.444298 -0.974263,-0.985072 0.003,-0.540777 0.444296,-0.977247 0.985072,-0.974262 0.540776,0.003 0.977248,0.444296 0.974263,0.985072 -0.003,0.540777 -0.444297,0.977245 -0.985073,0.974263 z m 0.03241,-5.878005 c -0.540776,-0.003 -0.977246,-0.444299 -0.974263,-0.985074 0.003,-0.540775 0.444297,-0.977244 0.985073,-0.974262 0.540776,0.003 0.977248,0.444297 0.974264,0.985074 -0.003,0.540775 -0.444299,0.977244 -0.985075,0.974264 z m 0.0324,-5.878008 c -0.54078,-0.003 -0.977248,-0.444295 -0.974265,-0.985074 0.003,-0.540774 0.444298,-0.977245 0.985073,-0.974262 0.540777,0.003 0.977249,0.444296 0.974264,0.985073 -0.003,0.540775 -0.444298,0.977245 -0.985073,0.974262 z m 0.03241,-5.878006 c -0.540778,-0.003 -0.977246,-0.444297 -0.974263,-0.985074 0.003,-0.540773 0.444297,-0.977244 0.985073,-0.974262 0.540776,0.003 0.977247,0.444298 0.974263,0.985073 -0.003,0.540776 -0.444297,0.977245 -0.985073,0.974263 z m 0.03241,-5.878006 c -0.540776,-0.003 -0.977244,-0.444297 -0.974262,-0.985072 0.003,-0.540776 0.444296,-0.977245 0.985074,-0.974263 0.540775,0.003 0.977246,0.444298 0.974263,0.985072 -0.003,0.540779 -0.444299,0.977247 -0.985075,0.974265 z m 2.793316,26.467247 c -0.540778,-0.003 -0.977248,-0.444296 -0.974264,-0.985074 0.003,-0.540775 0.4443,-0.977245 0.985074,-0.974263 0.540775,0.003 0.977245,0.444298 0.974262,0.985073 -0.003,0.540776 -0.444296,0.977245 -0.985072,0.974263 z m 0.03241,-5.878007 c -0.540775,-0.003 -0.977244,-0.444296 -0.974262,-0.985072 0.003,-0.540776 0.444298,-0.977245 0.985073,-0.974263 0.540775,0.003 0.977244,0.444297 0.974262,0.985072 -0.003,0.540779 -0.444296,0.977247 -0.985074,0.974264 z m 0.03241,-5.878006 c -0.540776,-0.003 -0.977246,-0.444297 -0.974262,-0.985072 0.003,-0.540774 0.444296,-0.977246 0.985073,-0.974262 0.540775,0.003 0.977246,0.444296 0.974262,0.985072 -0.003,0.540776 -0.444299,0.977245 -0.985072,0.974263 z m 0.03241,-5.878006 c -0.540776,-0.003 -0.977247,-0.444296 -0.974262,-0.985073 0.003,-0.540774 0.444297,-0.977245 0.985073,-0.974262 0.540776,0.003 0.977245,0.444297 0.974262,0.985072 -0.003,0.540778 -0.444298,0.977246 -0.985073,0.974263 z m 0.0324,-5.878006 c -0.540776,-0.003 -0.977248,-0.444296 -0.974262,-0.985074 0.003,-0.540774 0.444297,-0.977244 0.985072,-0.974263 0.540777,0.003 0.977246,0.444297 0.974264,0.985074 -0.003,0.540776 -0.444299,0.977244 -0.985073,0.974262 z m 2.793175,26.467245 c -0.540775,-0.003 -0.977244,-0.444294 -0.974261,-0.985071 0.003,-0.540776 0.444296,-0.977245 0.985073,-0.974262 0.540777,0.003 0.977246,0.444298 0.974263,0.985074 -0.003,0.540775 -0.444298,0.977246 -0.985073,0.974263 z m 0.03241,-5.878005 c -0.540778,-0.003 -0.977247,-0.444296 -0.974262,-0.985072 0.003,-0.540775 0.444296,-0.977246 0.985071,-0.974263 0.540778,0.003 0.977247,0.444297 0.974263,0.985074 -0.003,0.540776 -0.444298,0.977245 -0.985072,0.974262 z m 0.03241,-5.878006 c -0.540776,-0.003 -0.977246,-0.444296 -0.974263,-0.985072 0.003,-0.540776 0.444297,-0.977246 0.985073,-0.974264 0.540776,0.003 0.977245,0.4443 0.974263,0.985074 -0.003,0.540776 -0.444298,0.977244 -0.985073,0.974263 z m 0.03241,-5.878007 c -0.540775,-0.003 -0.977244,-0.444297 -0.974262,-0.985071 0.003,-0.540778 0.444295,-0.977246 0.985072,-0.974262 0.540777,0.003 0.977246,0.444297 0.974263,0.985071 -0.003,0.540779 -0.444298,0.977246 -0.985073,0.974264 z m 0.0324,-5.878006 c -0.540775,-0.003 -0.977247,-0.444297 -0.974262,-0.985072 0.003,-0.540775 0.444295,-0.977245 0.98507,-0.974261 0.540779,0.003 0.977248,0.444296 0.974264,0.985073 -0.003,0.540776 -0.444299,0.977245 -0.985073,0.974263 z m 0.844177,-6.333004 0,0 0,0 c -0.07015,0.107379 -0.156856,0.196051 -0.263028,0.268977 -0.03544,0.02622 -0.07082,0.05251 -0.109152,0.07287 -0.0393,0.01937 -0.07759,0.03583 -0.119797,0.05028 -0.100127,0.03766 -0.205105,0.06352 -0.319728,0.0629 -0.540777,-0.003 -0.977245,-0.444297 -0.974264,-0.985072 0.003,-0.540776 0.444296,-0.977245 0.985073,-0.974263 0.540777,0.003 0.977247,0.444298 0.974263,0.985072 -0.0011,0.195935 -0.07355,0.366983 -0.173333,0.519264 z M 26.558992,45.845025 3.3082041,34.059301 25.724445,22.558886 49.870644,34.349552 26.558992,45.845025 z M 50.945264,65.083693 27.368369,76.709962 27.529273,47.551134 51.106169,35.924865 50.945264,65.083693 z"
     id="path3"
     style="fill:#036cd0;fill-opacity:1;fill-rule:nonzero" /><text
     xml:space="preserve"
     style="font-size:6.60356236px;font-style:normal;font-weight:normal;line-height:125%;letter-spacing:0px;word-spacing:0px;fill:#0361d7;fill-opacity:1;stroke:none;font-family:Sans"
     x="42.921162"
     y="71.897194"
     id="text3035"
     sodipodi:linespacing="125%"
     transform="matrix(0.98599844,-0.16675453,0.16675453,0.98599844,0,0)"><tspan
       sodipodi:role="line"
       id="tspan3037"
       x="42.921162"
       y="71.897194"
       style="font-size:23.77282715px;fill:#0361d7;fill-opacity:1">@</tspan></text>
</svg>