<?xml version="1.0" encoding="iso-8859-1"?>
<!-- Generator: Adobe Illustrator 18.0.0, SVG Export Plug-In . SVG Version: 6.00 Build 0)  -->
<!DOCTYPE svg PUBLIC "-//W3C//DTD SVG 1.1//EN" "http://www.w3.org/Graphics/SVG/1.1/DTD/svg11.dtd">
<svg xmlns="http://www.w3.org/2000/svg" xmlns:xlink="http://www.w3.org/1999/xlink" version="1.1" id="Capa_1" x="0px" y="0px" viewBox="0 0 60 60" style="enable-background:new 0 0 60 60;" xml:space="preserve" width="512px" height="512px">
<g>
	<path d="M57,13.993c0-0.016-0.006-0.03-0.007-0.046c-0.004-0.074-0.013-0.146-0.032-0.216c-0.009-0.03-0.024-0.057-0.035-0.087   c-0.021-0.053-0.041-0.106-0.07-0.155c-0.018-0.03-0.041-0.056-0.063-0.085c-0.032-0.042-0.064-0.083-0.102-0.12   c-0.027-0.026-0.058-0.048-0.088-0.071c-0.027-0.02-0.049-0.045-0.078-0.063c-0.016-0.01-0.035-0.014-0.052-0.023   c-0.014-0.008-0.025-0.02-0.04-0.027l-27-13c-0.283-0.137-0.615-0.132-0.895,0.014l-25,13c-0.011,0.006-0.018,0.015-0.029,0.021   c-0.011,0.006-0.024,0.009-0.036,0.016c-0.034,0.021-0.06,0.049-0.091,0.074c-0.029,0.023-0.06,0.044-0.087,0.07   c-0.038,0.038-0.068,0.08-0.099,0.123c-0.02,0.028-0.044,0.053-0.061,0.083c-0.031,0.053-0.052,0.11-0.072,0.168   c-0.009,0.025-0.022,0.047-0.029,0.073C3.013,13.824,3,13.911,3,14v32c0,0.379,0.214,0.725,0.553,0.895l26,13   c0.015,0.007,0.031,0.004,0.046,0.011C29.728,59.962,29.862,60,30,60s0.273-0.038,0.401-0.095c0.015-0.007,0.032-0.004,0.046-0.011   l26-13C56.786,46.725,57,46.379,57,46V14c0-0.001,0-0.002,0-0.004C57,13.995,57,13.994,57,13.993z M11.25,11.357   C11.1,11.532,11,11.752,11,12c0,0.552,0.448,1,1,1s1-0.448,1-1c0-0.552-0.448-1-1-1c-0.037,0-0.068,0.017-0.104,0.021l2.453-1.276   C14.525,9.899,14.749,10,15,10c0.552,0,1-0.448,1-1c0-0.036-0.017-0.067-0.021-0.102L26.207,3.58C26.389,3.828,26.668,4,27,4   c0.552,0,1-0.448,1-1c0-0.113-0.03-0.218-0.064-0.319l1.082-0.562l3.264,1.572c0.153,0.159,0.361,0.254,0.591,0.284l2.554,1.229   C35.174,5.385,35,5.667,35,6c0,0.552,0.448,1,1,1s1-0.448,1-1c0-0.015-0.008-0.027-0.009-0.042l7.083,3.41   C44.221,9.737,44.578,10,45,10c0.097,0,0.184-0.029,0.273-0.055l2.35,1.131C47.258,11.226,47,11.582,47,12c0,0.552,0.448,1,1,1   s1-0.448,1-1c0-0.102-0.03-0.196-0.058-0.289l4.788,2.305l-1.752,0.876C51.922,14.394,51.514,14,51,14c-0.552,0-1,0.448-1,1   c0,0.287,0.124,0.541,0.317,0.723l-10.339,5.169C39.922,20.394,39.514,20,39,20c-0.552,0-1,0.448-1,1   c0,0.287,0.124,0.541,0.317,0.723L30,25.882l-8.317-4.159C21.876,21.541,22,21.287,22,21c0-0.552-0.448-1-1-1   c-0.514,0-0.922,0.393-0.978,0.893L9.683,15.724C9.876,15.541,10,15.287,10,15c0-0.552-0.448-1-1-1   c-0.514,0-0.922,0.393-0.978,0.893l-1.82-0.91L11.25,11.357z M5,15.618l24,12v29.764l-24-12V15.618z M55,45.382l-24,12V27.618   l24-12V45.382z" fill="#006DF0"/>
	<circle cx="24" cy="12" r="1" fill="#006DF0"/>
	<circle cx="24" cy="6" r="1" fill="#006DF0"/>
	<circle cx="18" cy="12" r="1" fill="#006DF0"/>
	<circle cx="21" cy="9" r="1" fill="#006DF0"/>
	<circle cx="30" cy="6" r="1" fill="#006DF0"/>
	<circle cx="27" cy="9" r="1" fill="#006DF0"/>
	<circle cx="30" cy="12" r="1" fill="#006DF0"/>
	<circle cx="36" cy="12" r="1" fill="#006DF0"/>
	<circle cx="33" cy="9" r="1" fill="#006DF0"/>
	<circle cx="39" cy="9" r="1" fill="#006DF0"/>
	<circle cx="42" cy="12" r="1" fill="#006DF0"/>
	<circle cx="15" cy="15" r="1" fill="#006DF0"/>
	<circle cx="18" cy="18" r="1" fill="#006DF0"/>
	<circle cx="24" cy="18" r="1" fill="#006DF0"/>
	<circle cx="21" cy="15" r="1" fill="#006DF0"/>
	<circle cx="27" cy="15" r="1" fill="#006DF0"/>
	<circle cx="30" cy="18" r="1" fill="#006DF0"/>
	<circle cx="36" cy="18" r="1" fill="#006DF0"/>
	<circle cx="33" cy="15" r="1" fill="#006DF0"/>
	<circle cx="27" cy="21" r="1" fill="#006DF0"/>
	<circle cx="30" cy="24" r="1" fill="#006DF0"/>
	<circle cx="33" cy="21" r="1" fill="#006DF0"/>
	<circle cx="39" cy="15" r="1" fill="#006DF0"/>
	<circle cx="42" cy="18" r="1" fill="#006DF0"/>
	<circle cx="45" cy="15" r="1" fill="#006DF0"/>
</g>
<g>
</g>
<g>
</g>
<g>
</g>
<g>
</g>
<g>
</g>
<g>
</g>
<g>
</g>
<g>
</g>
<g>
</g>
<g>
</g>
<g>
</g>
<g>
</g>
<g>
</g>
<g>
</g>
<g>
</g>
</svg>
