<?xml version="1.0" encoding="iso-8859-1"?>
<!-- Generator: Adobe Illustrator 19.0.0, SVG Export Plug-In . SVG Version: 6.00 Build 0)  -->
<svg xmlns="http://www.w3.org/2000/svg" xmlns:xlink="http://www.w3.org/1999/xlink" version="1.1" id="Capa_1" x="0px" y="0px" viewBox="0 0 503.68 503.68" style="enable-background:new 0 0 503.68 503.68;" xml:space="preserve" width="512px" height="512px">
<g>
	<g>
		<path d="M251.84,0l-224,129.312v245.056l224,129.312l224-129.312V129.312L251.84,0z M235.84,457.504l-176-101.664V166.256    l176,101.584V457.504z M75.84,138.544l176-101.616l176,101.616l-176,101.632L75.84,138.544z M267.84,457.504v-73.76l46.768,46.768    L267.84,457.504z M343.296,413.952l-75.456-75.456v-45.312L372.032,397.44L343.296,413.952z M400.72,380.8L280.48,260.576    l28.64-16.544l120.32,120.192L400.72,380.8z M443.84,333.44L337.792,227.504l28.8-16.576l77.248,77.152V333.44z M443.84,242.88    l-48.624-48.528l48.624-28.096V242.88z" fill="#006DF0"/>
	</g>
</g>
<g>
</g>
<g>
</g>
<g>
</g>
<g>
</g>
<g>
</g>
<g>
</g>
<g>
</g>
<g>
</g>
<g>
</g>
<g>
</g>
<g>
</g>
<g>
</g>
<g>
</g>
<g>
</g>
<g>
</g>
</svg>
