<?xml version="1.0" encoding="UTF-8" standalone="no"?>
<!-- Generator: Adobe Illustrator 16.0.0, SVG Export Plug-In . SVG Version: 6.00 Build 0)  -->

<svg
   xmlns:dc="http://purl.org/dc/elements/1.1/"
   xmlns:cc="http://creativecommons.org/ns#"
   xmlns:rdf="http://www.w3.org/1999/02/22-rdf-syntax-ns#"
   xmlns:svg="http://www.w3.org/2000/svg"
   xmlns="http://www.w3.org/2000/svg"
   xmlns:sodipodi="http://sodipodi.sourceforge.net/DTD/sodipodi-0.dtd"
   xmlns:inkscape="http://www.inkscape.org/namespaces/inkscape"
   version="1.1"
   id="Capa_1"
   x="0px"
   y="0px"
   width="1064.7386"
   height="730.828"
   viewBox="0 0 114.47605 78.576856"
   xml:space="preserve"
   inkscape:version="0.48.4 r9939"
   sodipodi:docname="logo___.svg"><metadata
     id="metadata51"><rdf:RDF><cc:Work
         rdf:about=""><dc:format>image/svg+xml</dc:format><dc:type
           rdf:resource="http://purl.org/dc/dcmitype/StillImage" /><dc:title></dc:title></cc:Work></rdf:RDF></metadata><defs
     id="defs49" /><sodipodi:namedview
     pagecolor="#ffffff"
     bordercolor="#666666"
     borderopacity="1"
     objecttolerance="10"
     gridtolerance="10"
     guidetolerance="10"
     inkscape:pageopacity="0"
     inkscape:pageshadow="2"
     inkscape:window-width="1797"
     inkscape:window-height="948"
     id="namedview47"
     showgrid="false"
     fit-margin-top="0"
     fit-margin-left="0"
     fit-margin-right="0"
     fit-margin-bottom="0"
     inkscape:zoom="0.65186406"
     inkscape:cx="459.62892"
     inkscape:cy="295.44672"
     inkscape:window-x="57"
     inkscape:window-y="34"
     inkscape:window-maximized="0"
     inkscape:current-layer="Capa_1" /><g
     id="g3"
     transform="translate(47.400987,-4.0225754)"><g
       id="g5"
       style="fill:#0061d7;fill-opacity:1"
       transform="translate(0,-8.3863726)"><path
         d="m 34.362995,68.44036 0,-0.04 c 1.616,-0.565 2.424,-1.696 2.424,-3.071 0,-1.718 -1.394,-3.213 -4.102,-3.213 -1.576,0 -3.031,0.485 -3.778,1.01 l 0.566,1.799 c 0.545,-0.363 1.616,-0.828 2.687,-0.828 1.434,0 2.101,0.748 2.101,1.636 0,1.313 -1.455,1.839 -2.606,1.839 l -1.111,0 0,1.818 1.151,0 c 1.516,0 2.97,0.667 2.97,2.222 0.02,1.031 -0.748,2.103 -2.646,2.103 -1.252,0 -2.663481,-0.274207 -3.168481,-0.578207 0,0 -1.449317,-0.786588 -2.326075,-1.126951 -2.617912,-1.016292 -5.497578,2.364061 -5.497578,2.364061 l -0.453079,1.375732 c 0,0 0.06289,0.251991 1.593682,-0.427527 0.911929,-0.404805 2.317632,-2.113369 3.712204,-1.685897 1.08787,0.33346 2.583327,1.148787 2.583327,1.148787 0.794472,0.494157 2.081,0.908 3.677,0.908 3.253,0 5.112,-1.757 5.112,-3.979 0,-1.779 -1.293,-2.991 -2.889,-3.274 z"
         id="path15"
         style="fill:#0061d7;fill-opacity:1"
         inkscape:connector-curvature="0"
         sodipodi:nodetypes="ccssccsssccscscsccsscsscc" /><path
         style="fill:#0361d7;fill-opacity:1"
         inkscape:connector-curvature="0"
         d="m 54.142579,31.715948 -16.75,0 0,-7.417 -11.668,0 0,7.417 -16.7489999,0 c -0.875,0 -1.584,0.709 -1.584,1.582999 0,0.874 0.709,1.583 1.584,1.583 l 16.7489999,0 0,7.417 3.905,0 0,2.403001 c 0,0.562999 0.247,1.066999 0.634001,1.42 -0.251001,0.042 -0.514001,0.075 -0.776001,0.103999 -1.123999,0.131001 -2.398,0.279001 -2.667,1.472001 l -0.012,0.101 c -0.006,0.323 0.113001,0.609999 0.344,0.832 0.716,0.687999 2.333939,0.629966 4.917,0.476999 2.026939,-0.120033 4.550526,-0.268576 5.296,0.412 0.127528,0.116426 0.187191,0.250024 0.193,0.432 0.03119,0.977027 -1.524993,1.174088 -3.730001,1.346 -1.783992,0.139088 -3.466874,0.271106 -4.239999,1.178 -0.301875,0.354107 -0.593337,0.891425 -0.391999,1.295 0.428363,0.858639 1.828212,0.674248 2.77279,0.77582 2.942004,0.316359 5.193337,0.281978 5.020092,2.080736 -0.09117,0.946551 -1.887498,0.503029 -3.14151,0.370706 -1.484051,-0.156597 -2.488848,-0.0642 -3.008522,0.617467 -0.66926,0.877888 -0.589557,1.830698 -0.09826,2.205361 2.16072,0.312906 4.478218,0.87641 4.871746,1.434655 0.494668,0.701718 -1.287473,1.104876 -0.607347,2.529577 0.04134,2.127909 1.092549,2.071863 1.056403,0.07928 -0.0036,-0.200726 0.06105,-0.442748 0.03141,-0.682035 0.99797,-1.123284 0.579974,-2.033141 0.154039,-2.55869 -1.343277,-1.65743 -5.32448,-0.944482 -4.918406,-2.005827 0.263252,-0.688057 1.752634,-0.573266 2.388464,-0.53811 0.494416,0.02734 3.374175,0.346621 4.233808,-0.804286 0.435463,-0.583013 0.253298,-1.617692 -0.217976,-2.172159 -1.649792,-1.941023 -7.784913,-1.381459 -7.381737,-1.978491 0.433535,-0.641989 2.123971,-0.717361 3.555999,-0.828999 2.210972,-0.172363 4.71992,-0.367032 4.652,-2.376 -0.01508,-0.446032 -0.194091,-0.8388 -0.52,-1.136001 -1.059094,-0.965802 -3.584038,-0.816641 -6.028,-0.672 -1.645038,0.09736 -3.685999,0.219001 -4.187,-0.275999 0.163,-0.396001 0.793,-0.497 1.779,-0.61 0.784,-0.092 1.64,-0.197 2.269,-0.623 0.916,-0.149 1.617,-0.938001 1.617,-1.896001 l 0,-2.403999 3.904,0 0,-7.417 16.75,0 c 0.874,0 1.583001,-0.709 1.583001,-1.583001 0,-0.874 -0.710001,-1.586999 -1.584001,-1.586999 z"
         sodipodi:nodetypes="cccccssscccscccccsssssssssscscscsssaassssscccscccsssc" /><path
         style="fill:#0361d7;fill-opacity:1"
         inkscape:connector-curvature="0"
         id="path9"
         d="m 24.601579,28.610948 h 0.332001 v -3.375001 h -0.332001 c -0.933,0 -1.688,0.755001 -1.688,1.688 0,0.933 0.755,1.687001 1.688,1.687001 z" /><path
         style="fill:#0361d7;fill-opacity:1"
         inkscape:connector-curvature="0"
         id="path11"
         d="m 37.912579,25.235947 v 3.375001 h 0.332 c 0.934,0 1.688,-0.755001 1.688,-1.688 0,-0.933 -0.755,-1.688001 -1.688,-1.688001 l -0.332,9.68e-4 0,0 z" /><path
         style="fill:#0361d7;fill-opacity:1"
         inkscape:connector-curvature="0"
         id="path13"
         d="m 32.408579,23.920947 0.275,-0.003 c -0.021,-1.668999 0.362999,-2.868999 1.172,-3.668999 1.537,-1.518 4.520999,-1.448 7.406,-1.375 3.006999,0.073 6.118,0.148 7.789999,-1.607 0.938001,-0.985 1.324001,-2.411 1.182,-4.357 l -0.996,0.073 c 0.120001,1.649 -0.176999,2.825 -0.908,3.594 -0.895999,0.939 -2.389999,1.232 -4.130999,1.304 0.390999,-0.204 0.751999,-0.454 1.06,-0.787 0.93,-1.007 1.305999,-2.54 1.149,-4.685 l -0.998001,0.073 c 0.137,1.854 -0.153999,3.141 -0.886999,3.934 -1.104,1.193 -3.150001,1.205 -5.318,1.217 -2.357001,0.014 -4.795,0.028 -6.337,1.598 -1.009,1.026 -1.484999,2.571 -1.458999,4.722 l 0.999999,-0.013 c -9.68e-4,-0.007 0,-0.012 0,-0.019 z" /><text
         xml:space="preserve"
         style="font-size:12.58148098px;font-style:normal;font-weight:normal;line-height:125%;letter-spacing:0px;word-spacing:0px;fill:#000000;fill-opacity:1;stroke:none;font-family:Sans"
         x="26.202744"
         y="60.252274"
         id="text3826"
         sodipodi:linespacing="125%"
         transform="scale(1.0190765,0.98128061)"><tspan
           sodipodi:role="line"
           id="tspan3828"
           x="26.202744"
           y="60.252274"
           style="fill:#0361cd;fill-opacity:1" /></text>
<rect
         style="fill:#0361d7;fill-opacity:1"
         id="rect3830"
         width="1.2370399"
         height="15.380528"
         x="45.435318"
         y="60.043621" /><text
         xml:space="preserve"
         style="font-size:14.68595219px;font-style:normal;font-weight:normal;line-height:125%;letter-spacing:0px;word-spacing:0px;fill:#0361d7;fill-opacity:1;stroke:none;font-family:Sans"
         x="34.950027"
         y="80.64949"
         id="text3832"
         sodipodi:linespacing="125%"
         transform="scale(1.0647716,0.93916855)"><tspan
           sodipodi:role="line"
           id="tspan3834"
           x="34.950027"
           y="80.64949"
           style="fill:#0361d7;fill-opacity:1">o</tspan></text>
<rect
         style="fill:#0361d7;fill-opacity:1"
         id="rect3857"
         width="1.3195091"
         height="20.204985"
         x="48.581081"
         y="60.662144" /><rect
         style="fill:#0361d7;fill-opacity:1"
         id="rect3880"
         width="18.494743"
         height="1.1442618"
         x="48.581356"
         y="79.76265" /></g></g><g
     id="g17"
     transform="translate(47.400987,-4.0225754)" /><g
     id="g19"
     transform="translate(47.400987,-4.0225754)" /><g
     id="g21"
     transform="translate(47.400987,-4.0225754)" /><g
     id="g23"
     transform="translate(47.400987,-4.0225754)" /><g
     id="g25"
     transform="translate(47.400987,-4.0225754)" /><g
     id="g27"
     transform="translate(47.400987,-4.0225754)" /><g
     id="g29"
     transform="translate(47.400987,-4.0225754)" /><g
     id="g31"
     transform="translate(47.400987,-4.0225754)" /><g
     id="g33"
     transform="translate(47.400987,-4.0225754)" /><g
     id="g35"
     transform="translate(47.400987,-4.0225754)" /><g
     id="g37"
     transform="translate(47.400987,-4.0225754)" /><g
     id="g39"
     transform="translate(47.400987,-4.0225754)" /><g
     id="g41"
     transform="translate(47.400987,-4.0225754)" /><g
     id="g43"
     transform="translate(47.400987,-4.0225754)" /><g
     id="g45"
     transform="translate(47.400987,-4.0225754)" /><path
     inkscape:connector-curvature="0"
     d="m 49.704387,36.503521 c 5.5e-5,-0.01467 -0.0054,-0.02755 -0.0062,-0.04223 -0.0034,-0.06791 -0.01121,-0.134011 -0.02829,-0.19833 -0.0081,-0.02757 -0.02082,-0.05241 -0.03167,-0.07908 -0.019,-0.04965 -0.03708,-0.09745 -0.06435,-0.142569 -0.01637,-0.02763 -0.03734,-0.05158 -0.05555,-0.07646 -0.02916,-0.0396 -0.05921,-0.0783 -0.09389,-0.11245 -0.02374,-0.02307 -0.05117,-0.04337 -0.07762,-0.06375 -0.02468,-0.01939 -0.04564,-0.04246 -0.07213,-0.06006 -0.01559,-0.0093 -0.03295,-0.01395 -0.04851,-0.02229 -0.01279,-0.0075 -0.02287,-0.01753 -0.03658,-0.02404 L 24.483792,23.618449 c -0.259869,-0.127127 -0.564492,-0.124225 -0.821206,0.0083 L 0.66002341,35.427302 c -0.0101124,0.0054 -0.0165515,0.0137 -0.026684,0.01915 -0.0101124,0.0054 -0.0220588,0.0082 -0.0331065,0.01449 -0.0313138,0.0191 -0.0552759,0.04468 -0.0838614,0.06743 -0.0267347,0.02095 -0.0552686,0.04007 -0.0801796,0.06378 -0.0350462,0.03467 -0.0628341,0.07302 -0.0914478,0.112346 -0.0184721,0.0256 -0.0406278,0.04842 -0.0563908,0.07585 -0.028718,0.04848 -0.0482677,0.100655 -0.0669131,0.15377 -0.008436,0.02288 -0.0204054,0.04301 -0.0269768,0.06683 -0.0206004,0.07421 -0.0329636,0.153958 -0.0334078,0.235614 L -0.00102063,65.59557 c -0.001914,0.347723 0.19266542,0.666251 0.50282977,0.823938 L 24.290209,78.478244 c 0.01369,0.0065 0.02843,0.0039 0.04214,0.01033 0.118067,0.05203 0.240819,0.08757 0.36743,0.08827 0.126609,7.03e-4 0.250657,-0.03349 0.368386,-0.08513 0.0138,-0.0063 0.02937,-0.0035 0.04225,-0.0099 L 49.03045,66.686381 c 0.311877,-0.153335 0.509968,-0.469694 0.511888,-0.817418 l 0.162007,-29.35902 c 6e-6,-9.65e-4 2.3e-5,-0.0018 -3.1e-5,-0.0037 5e-6,-9.67e-4 2.3e-5,-0.0018 6.5e-5,-0.0028 z M 3.684055,62.863417 c -0.5064434,-0.0028 -0.9152027,-0.416088 -0.9124083,-0.922532 0.00279,-0.506443 0.4160896,-0.915201 0.9225319,-0.912409 0.5064424,0.0028 0.9152006,0.41609 0.9124063,0.922531 -0.00279,0.506443 -0.4160886,0.915201 -0.9225309,0.912408 z M 3.7144,57.3586 C 3.2079567,57.3558 2.7991954,56.942511 2.8019917,56.436069 c 0.00279,-0.506443 0.4160896,-0.915201 0.922531,-0.912409 0.5064443,0.0028 0.9152016,0.41609 0.9124082,0.922532 C 4.6341409,56.952636 4.2208413,57.361393 3.7144,57.3586 z m 0.030345,-5.504817 c -0.5064433,-0.0028 -0.9152026,-0.416088 -0.9124083,-0.922531 0.00279,-0.506443 0.4160906,-0.915202 0.922531,-0.912408 0.5064443,0.0028 0.9152016,0.41609 0.9124073,0.92253 -0.00279,0.506444 -0.4160876,0.915201 -0.9225309,0.912407 z M 3.77509,46.348968 c -0.5064434,-0.0028 -0.9152037,-0.41609 -0.9124093,-0.922532 0.00279,-0.506442 0.4160916,-0.915202 0.9225319,-0.912409 0.5064434,0.0028 0.9152006,0.416089 0.9124073,0.922531 -0.00279,0.506443 -0.4160876,0.9152 -0.9225309,0.912407 z m 0.030345,-5.504817 c -0.5064433,-0.0028 -0.9152036,-0.416089 -0.9124093,-0.922533 0.00279,-0.50644 0.4160906,-0.9152 0.922532,-0.912407 0.5064433,0.0028 0.9152006,0.416089 0.9124072,0.922531 -0.00279,0.506442 -0.4160886,0.915201 -0.9225309,0.912407 z m 2.6158398,24.786862 c -0.5064443,-0.0028 -0.9152016,-0.416089 -0.9124083,-0.922531 0.00279,-0.506442 0.4160886,-0.915201 0.922531,-0.912408 0.5064423,0.0028 0.9152016,0.41609 0.9124073,0.922531 -0.00279,0.506444 -0.4160886,0.915201 -0.922531,0.912408 z m 0.030345,-5.504817 c -0.5064434,-0.0028 -0.9152007,-0.416088 -0.9124083,-0.922531 0.00279,-0.506442 0.4160896,-0.9152 0.9225319,-0.912408 0.5064424,0.0028 0.9152006,0.416091 0.9124073,0.922531 -0.00279,0.506443 -0.4160876,0.915202 -0.9225309,0.912407 z m 0.030345,-5.504816 c -0.5064433,-0.0028 -0.9152016,-0.416088 -0.9124083,-0.92253 0.00279,-0.506444 0.4160886,-0.915202 0.9225319,-0.912409 0.5064424,0.0028 0.9152007,0.41609 0.9124063,0.92253 -0.00279,0.506445 -0.4160886,0.915203 -0.9225309,0.912408 z m 0.030345,-5.504816 c -0.5064443,-0.0028 -0.9152026,-0.416088 -0.9124073,-0.922532 0.00279,-0.506442 0.4160876,-0.9152 0.92253,-0.912407 0.5064443,0.0028 0.9152006,0.416089 0.9124073,0.922531 -0.00279,0.506444 -0.4160886,0.915201 -0.922531,0.912408 z m 0.030345,-5.504817 c -0.5064454,-0.0028 -0.9152027,-0.416089 -0.9124083,-0.922531 0.00279,-0.506443 0.4160886,-0.915202 0.9225309,-0.912407 0.5064434,0.0028 0.9152006,0.416088 0.9124063,0.922529 -0.00279,0.506443 -0.4160876,0.915201 -0.9225299,0.912407 z M 9.1584929,68.39861 c -0.5064413,-0.0028 -0.9152016,-0.41609 -0.9124073,-0.922532 0.00279,-0.506442 0.4160906,-0.915201 0.9225309,-0.912408 0.5064434,0.0028 0.9152015,0.416088 0.9124075,0.922531 -0.0028,0.506443 -0.4160878,0.9152 -0.9225311,0.912408 z m 0.030345,-5.504818 c -0.5064423,-0.0028 -0.9152026,-0.416087 -0.9124083,-0.922531 0.00279,-0.506441 0.4160896,-0.915199 0.922531,-0.912407 0.5064443,0.0028 0.9152024,0.416089 0.9124084,0.922531 -0.0028,0.506443 -0.4160897,0.915201 -0.9225311,0.912407 z m 0.030345,-5.504816 c -0.5064434,-0.0028 -0.9152027,-0.416088 -0.9124083,-0.922531 0.00279,-0.506442 0.4160896,-0.915201 0.9225309,-0.912407 0.5064443,0.0028 0.9152015,0.416089 0.9124085,0.922531 -0.0028,0.506443 -0.4160898,0.915201 -0.9225311,0.912407 z m 0.030345,-5.504816 c -0.5064413,-0.0028 -0.9152006,-0.416088 -0.9124073,-0.922531 0.00279,-0.506442 0.4160916,-0.915201 0.9225309,-0.912408 0.5064444,0.0028 0.9152025,0.416091 0.9124085,0.922532 -0.0028,0.506442 -0.4160888,0.915201 -0.9225321,0.912407 z m 0.030345,-5.504816 c -0.5064423,-0.0028 -0.9152026,-0.416088 -0.9124083,-0.922531 0.00279,-0.506444 0.4160916,-0.915202 0.922532,-0.912409 0.5064433,0.0028 0.9152024,0.41609 0.9124084,0.922531 -0.0028,0.506444 -0.4160887,0.915202 -0.9225321,0.912409 z m 2.6158441,24.786862 c -0.506444,-0.0028 -0.915203,-0.416089 -0.91241,-0.922532 0.0028,-0.506441 0.416091,-0.9152 0.922531,-0.912408 0.506444,0.0028 0.915203,0.41609 0.912409,0.922532 -0.0028,0.506444 -0.416089,0.915201 -0.922531,0.912408 z m 0.03035,-5.504817 c -0.506444,-0.0028 -0.915202,-0.416089 -0.912408,-0.922531 0.0028,-0.506443 0.416091,-0.915202 0.922531,-0.912408 0.506445,0.0028 0.915203,0.416088 0.912409,0.922532 -0.0028,0.506442 -0.41609,0.9152 -0.922532,0.912408 z m 0.03035,-5.504816 c -0.506444,-0.0028 -0.915202,-0.416089 -0.912409,-0.922532 0.0028,-0.50644 0.41609,-0.915201 0.922532,-0.912408 0.506444,0.0028 0.915203,0.41609 0.912408,0.922532 -0.0028,0.506443 -0.416091,0.915201 -0.922532,0.912409 z m 0.03034,-5.504818 c -0.506444,-0.0028 -0.915203,-0.416086 -0.912408,-0.922531 0.0028,-0.506441 0.416089,-0.9152 0.922531,-0.912407 0.506446,0.0028 0.915204,0.416091 0.912408,0.922533 -0.0028,0.506444 -0.416088,0.915202 -0.92253,0.912408 z m 0.03034,-5.504815 c -0.506443,-0.0028 -0.915201,-0.416089 -0.912407,-0.922531 0.0028,-0.506442 0.41609,-0.915201 0.922531,-0.912408 0.506444,0.0028 0.915204,0.416091 0.912407,0.922532 -0.0028,0.506443 -0.416088,0.915202 -0.922531,0.912408 z m 0.790584,-5.930927 0,0 0,0 c -0.0657,0.100562 -0.146898,0.183605 -0.246329,0.2519 -0.03319,0.02456 -0.06633,0.04918 -0.102223,0.06824 -0.0368,0.01814 -0.07266,0.03355 -0.11219,0.0471 -0.09377,0.03527 -0.192084,0.05949 -0.29943,0.05889 -0.506443,-0.0028 -0.915202,-0.416087 -0.912407,-0.922531 0.0028,-0.506441 0.416089,-0.9152 0.92253,-0.912406 0.506445,0.0028 0.915204,0.416089 0.912408,0.922532 -10e-4,0.183494 -0.06888,0.343681 -0.162328,0.486296 z m 1.855635,25.212973 c -0.506444,-0.0028 -0.915201,-0.416088 -0.912408,-0.922531 0.0028,-0.506442 0.416089,-0.9152 0.92253,-0.912406 0.506447,0.0028 0.915205,0.416089 0.912409,0.922532 -0.0028,0.506442 -0.416089,0.9152 -0.922531,0.912408 z m 0.03034,-5.504817 c -0.506443,-0.0028 -0.9152,-0.416088 -0.912406,-0.922531 0.0028,-0.506442 0.41609,-0.915202 0.922531,-0.912407 0.506444,0.0028 0.915203,0.416089 0.912407,0.922532 -0.0028,0.506443 -0.416088,0.915201 -0.922531,0.912408 z m 0.03035,-5.504816 c -0.506443,-0.0028 -0.9152,-0.416088 -0.912408,-0.922531 0.0028,-0.506441 0.416089,-0.915199 0.922531,-0.912407 0.506443,0.0028 0.915203,0.41609 0.912408,0.922532 -0.0028,0.506443 -0.416089,0.915201 -0.922532,0.912409 z m 0.03034,-5.504817 c -0.506443,-0.0028 -0.915202,-0.416087 -0.912407,-0.92253 0.0028,-0.506443 0.416088,-0.915201 0.922531,-0.912407 0.506444,0.0028 0.915203,0.41609 0.912408,0.922531 -0.0028,0.506444 -0.416089,0.915202 -0.922532,0.912408 z m 0.03035,-5.504814 c -0.506443,-0.0028 -0.9152,-0.416091 -0.912407,-0.922531 0.0028,-0.506443 0.416088,-0.915202 0.92253,-0.912408 0.506445,0.0028 0.915205,0.416089 0.912408,0.922532 -0.0028,0.506444 -0.416089,0.915201 -0.922532,0.912408 z m 2.615716,24.78686 c -0.506444,-0.0028 -0.915201,-0.41609 -0.912408,-0.922531 0.0028,-0.506443 0.416088,-0.915202 0.922531,-0.912407 0.506442,0.0028 0.915203,0.416088 0.912408,0.922531 -0.0028,0.506443 -0.416089,0.9152 -0.922532,0.912408 z m 0.03035,-5.504816 c -0.506443,-0.0028 -0.915202,-0.41609 -0.912408,-0.922532 0.0028,-0.506442 0.416089,-0.9152 0.922531,-0.912407 0.506443,0.0028 0.915204,0.416089 0.912409,0.922532 -0.0028,0.506442 -0.416091,0.9152 -0.922533,0.912409 z m 0.03034,-5.504818 c -0.506447,-0.0028 -0.915204,-0.416087 -0.91241,-0.922532 0.0028,-0.506441 0.41609,-0.915201 0.922532,-0.912407 0.506443,0.0028 0.915204,0.416088 0.912408,0.922531 -0.0028,0.506442 -0.41609,0.915201 -0.922531,0.912407 z m 0.03035,-5.504816 c -0.506444,-0.0028 -0.915201,-0.416089 -0.912408,-0.922532 0.0028,-0.50644 0.416089,-0.9152 0.922532,-0.912407 0.506442,0.0028 0.915202,0.41609 0.912408,0.922531 -0.0028,0.506443 -0.416089,0.915201 -0.922532,0.912408 z m 0.03035,-5.504816 c -0.506443,-0.0028 -0.9152,-0.416089 -0.912407,-0.922531 0.0028,-0.506442 0.416088,-0.9152 0.922532,-0.912408 0.506442,0.0028 0.915202,0.41609 0.912408,0.922531 -0.0028,0.506445 -0.416091,0.915202 -0.922533,0.91241 z m 2.61597,24.786863 c -0.506444,-0.0028 -0.915203,-0.416088 -0.912408,-0.922532 0.0028,-0.506442 0.416091,-0.915201 0.922532,-0.912408 0.506442,0.0028 0.915201,0.41609 0.912407,0.922531 -0.0028,0.506443 -0.416088,0.915201 -0.922531,0.912408 z m 0.03035,-5.504817 c -0.506442,-0.0028 -0.9152,-0.416088 -0.912407,-0.922531 0.0028,-0.506442 0.41609,-0.9152 0.922531,-0.912408 0.506442,0.0028 0.9152,0.416089 0.912407,0.922531 -0.0028,0.506445 -0.416088,0.915202 -0.922532,0.912409 z m 0.03035,-5.504816 c -0.506442,-0.0028 -0.915201,-0.416089 -0.912407,-0.922531 0.0028,-0.506441 0.416088,-0.915201 0.922532,-0.912407 0.506442,0.0028 0.915201,0.416088 0.912407,0.922531 -0.0028,0.506442 -0.416091,0.9152 -0.922531,0.912408 z m 0.03035,-5.504817 c -0.506443,-0.0028 -0.915203,-0.416088 -0.912407,-0.922531 0.0028,-0.506441 0.416089,-0.915201 0.922531,-0.912407 0.506443,0.0028 0.915201,0.416089 0.912407,0.922531 -0.0028,0.506444 -0.41609,0.915201 -0.922531,0.912407 z m 0.03034,-5.504816 c -0.506443,-0.0028 -0.915203,-0.416088 -0.912407,-0.922532 0.0028,-0.506441 0.416089,-0.9152 0.922531,-0.912408 0.506443,0.0028 0.915201,0.416089 0.912408,0.922532 -0.0028,0.506443 -0.41609,0.9152 -0.922531,0.912407 z m 2.615839,24.786862 c -0.506442,-0.0028 -0.9152,-0.416087 -0.912406,-0.92253 0.0028,-0.506443 0.416088,-0.915201 0.922531,-0.912407 0.506444,0.0028 0.915202,0.41609 0.912408,0.922532 -0.0028,0.506442 -0.41609,0.915202 -0.922532,0.912408 z m 0.03035,-5.504816 c -0.506444,-0.0028 -0.915202,-0.416088 -0.912407,-0.92253 0.0028,-0.506442 0.416088,-0.915202 0.92253,-0.912408 0.506444,0.0028 0.915202,0.416089 0.912408,0.922532 -0.0028,0.506443 -0.41609,0.915201 -0.922531,0.912407 z m 0.03035,-5.504816 c -0.506442,-0.0028 -0.915201,-0.416088 -0.912407,-0.922531 0.0028,-0.506442 0.416089,-0.915201 0.922531,-0.912408 0.506443,0.0028 0.915201,0.416091 0.912408,0.922532 -0.0028,0.506443 -0.41609,0.9152 -0.922532,0.912408 z m 0.03035,-5.504817 c -0.506442,-0.0028 -0.9152,-0.416089 -0.912407,-0.92253 0.0028,-0.506444 0.416087,-0.915201 0.922531,-0.912407 0.506443,0.0028 0.915201,0.416089 0.912407,0.92253 -0.0028,0.506445 -0.416089,0.915201 -0.922531,0.912409 z m 0.03034,-5.504816 c -0.506442,-0.0028 -0.915202,-0.416089 -0.912407,-0.922531 0.0028,-0.506442 0.416087,-0.9152 0.922529,-0.912406 0.506445,0.0028 0.915203,0.416088 0.912409,0.922532 -0.0028,0.506442 -0.416091,0.9152 -0.922532,0.912407 z m 0.790581,-5.930927 0,0 0,0 c -0.0657,0.100561 -0.146897,0.183604 -0.246329,0.2519 -0.03319,0.02456 -0.06632,0.04918 -0.102222,0.06824 -0.0368,0.01814 -0.07266,0.03355 -0.112191,0.04709 -0.09377,0.03527 -0.192083,0.05949 -0.299429,0.05891 -0.506443,-0.0028 -0.9152,-0.416089 -0.912408,-0.92253 0.0028,-0.506443 0.416088,-0.915201 0.922531,-0.912408 0.506444,0.0028 0.915203,0.41609 0.912408,0.922531 -10e-4,0.183495 -0.06888,0.343683 -0.162328,0.486296 z M 24.872524,47.274621 3.0979034,36.237163 24.090962,25.4669 46.704139,36.508986 24.872524,47.274621 z M 47.710532,65.291842 25.630515,76.179968 25.781203,48.87241 47.861221,37.984284 47.710532,65.291842 z"
     id="path3"
     style="fill:#036cd0;fill-opacity:1;fill-rule:nonzero" /><text
     xml:space="preserve"
     style="font-size:6.60356236px;font-style:normal;font-weight:normal;line-height:125%;letter-spacing:0px;word-spacing:0px;fill:#0361d7;fill-opacity:1;stroke:none;font-family:Sans"
     x="40.256062"
     y="71.446465"
     id="text3035"
     sodipodi:linespacing="125%"
     transform="matrix(0.98599844,-0.16675453,0.16675453,0.98599844,0,0)"><tspan
       sodipodi:role="line"
       id="tspan3037"
       x="40.256062"
       y="71.446465"
       style="font-size:23.77282715px;fill:#0361d7;fill-opacity:1">@</tspan></text>
</svg>