<?xml version="1.0" encoding="UTF-8" standalone="no"?>
<!-- Generator: Adobe Illustrator 16.0.0, SVG Export Plug-In . SVG Version: 6.00 Build 0)  -->

<svg
   xmlns:dc="http://purl.org/dc/elements/1.1/"
   xmlns:cc="http://creativecommons.org/ns#"
   xmlns:rdf="http://www.w3.org/1999/02/22-rdf-syntax-ns#"
   xmlns:svg="http://www.w3.org/2000/svg"
   xmlns="http://www.w3.org/2000/svg"
   xmlns:sodipodi="http://sodipodi.sourceforge.net/DTD/sodipodi-0.dtd"
   xmlns:inkscape="http://www.inkscape.org/namespaces/inkscape"
   version="1.1"
   id="Capa_1"
   x="0px"
   y="0px"
   width="1297.2715"
   height="750.82794"
   viewBox="0 0 139.47696 80.727201"
   xml:space="preserve"
   inkscape:version="0.48.4 r9939"
   sodipodi:docname="logo____.svg"><metadata
     id="metadata51"><rdf:RDF><cc:Work
         rdf:about=""><dc:format>image/svg+xml</dc:format><dc:type
           rdf:resource="http://purl.org/dc/dcmitype/StillImage" /><dc:title></dc:title></cc:Work></rdf:RDF></metadata><defs
     id="defs49" /><sodipodi:namedview
     pagecolor="#ffffff"
     bordercolor="#666666"
     borderopacity="1"
     objecttolerance="10"
     gridtolerance="10"
     guidetolerance="10"
     inkscape:pageopacity="0"
     inkscape:pageshadow="2"
     inkscape:window-width="1797"
     inkscape:window-height="948"
     id="namedview47"
     showgrid="false"
     fit-margin-top="0"
     fit-margin-left="0"
     fit-margin-right="0"
     fit-margin-bottom="0"
     inkscape:zoom="0.65186406"
     inkscape:cx="670.15983"
     inkscape:cy="315.44669"
     inkscape:window-x="57"
     inkscape:window-y="34"
     inkscape:window-maximized="0"
     inkscape:current-layer="Capa_1" /><g
     id="g3"
     transform="translate(72.402145,-4.0225754)"><g
       id="g5"
       style="fill:#0061d7;fill-opacity:1"
       transform="translate(0,-8.3863726)"><path
         d="m 34.362995,68.44036 0,-0.04 c 1.616,-0.565 2.424,-1.696 2.424,-3.071 0,-1.718 -1.394,-3.213 -4.102,-3.213 -1.576,0 -3.031,0.485 -3.778,1.01 l 0.566,1.799 c 0.545,-0.363 1.616,-0.828 2.687,-0.828 1.434,0 2.101,0.748 2.101,1.636 0,1.313 -1.455,1.839 -2.606,1.839 l -1.111,0 0,1.818 1.151,0 c 1.516,0 2.97,0.667 2.97,2.222 0.02,1.031 -0.748,2.103 -2.646,2.103 -1.252,0 -2.663481,-0.274207 -3.168481,-0.578207 0,0 -1.449317,-0.786588 -2.326075,-1.126951 -2.617912,-1.016292 -5.497578,2.364061 -5.497578,2.364061 l -0.453079,1.375732 c 0,0 0.06289,0.251991 1.593682,-0.427527 0.911929,-0.404805 2.317632,-2.113369 3.712204,-1.685897 1.08787,0.33346 2.583327,1.148787 2.583327,1.148787 0.794472,0.494157 2.081,0.908 3.677,0.908 3.253,0 5.112,-1.757 5.112,-3.979 0,-1.779 -1.293,-2.991 -2.889,-3.274 z"
         id="path15"
         style="fill:#0061d7;fill-opacity:1"
         inkscape:connector-curvature="0"
         sodipodi:nodetypes="ccssccsssccscscsccsscsscc" /><path
         style="fill:#0361d7;fill-opacity:1"
         inkscape:connector-curvature="0"
         d="m 54.142579,31.715948 -16.75,0 0,-7.417 -11.668,0 0,7.417 -16.7489999,0 c -0.875,0 -1.584,0.709 -1.584,1.582999 0,0.874 0.709,1.583 1.584,1.583 l 16.7489999,0 0,7.417 3.905,0 0,2.403001 c 0,0.562999 0.247,1.066999 0.634001,1.42 -0.251001,0.042 -0.514001,0.075 -0.776001,0.103999 -1.123999,0.131001 -2.398,0.279001 -2.667,1.472001 l -0.012,0.101 c -0.006,0.323 0.113001,0.609999 0.344,0.832 0.716,0.687999 2.333939,0.629966 4.917,0.476999 2.026939,-0.120033 4.550526,-0.268576 5.296,0.412 0.127528,0.116426 0.187191,0.250024 0.193,0.432 0.03119,0.977027 -1.524993,1.174088 -3.730001,1.346 -1.783992,0.139088 -3.466874,0.271106 -4.239999,1.178 -0.301875,0.354107 -0.593337,0.891425 -0.391999,1.295 0.428363,0.858639 1.828212,0.674248 2.77279,0.77582 2.942004,0.316359 5.193337,0.281978 5.020092,2.080736 -0.09117,0.946551 -1.887498,0.503029 -3.14151,0.370706 -1.484051,-0.156597 -2.488848,-0.0642 -3.008522,0.617467 -0.66926,0.877888 -0.589557,1.830698 -0.09826,2.205361 2.16072,0.312906 4.478218,0.87641 4.871746,1.434655 0.494668,0.701718 -1.287473,1.104876 -0.607347,2.529577 0.04134,2.127909 1.092549,2.071863 1.056403,0.07928 -0.0036,-0.200726 0.06105,-0.442748 0.03141,-0.682035 0.99797,-1.123284 0.579974,-2.033141 0.154039,-2.55869 -1.343277,-1.65743 -5.32448,-0.944482 -4.918406,-2.005827 0.263252,-0.688057 1.752634,-0.573266 2.388464,-0.53811 0.494416,0.02734 3.374175,0.346621 4.233808,-0.804286 0.435463,-0.583013 0.253298,-1.617692 -0.217976,-2.172159 -1.649792,-1.941023 -7.784913,-1.381459 -7.381737,-1.978491 0.433535,-0.641989 2.123971,-0.717361 3.555999,-0.828999 2.210972,-0.172363 4.71992,-0.367032 4.652,-2.376 -0.01508,-0.446032 -0.194091,-0.8388 -0.52,-1.136001 -1.059094,-0.965802 -3.584038,-0.816641 -6.028,-0.672 -1.645038,0.09736 -3.685999,0.219001 -4.187,-0.275999 0.163,-0.396001 0.793,-0.497 1.779,-0.61 0.784,-0.092 1.64,-0.197 2.269,-0.623 0.916,-0.149 1.617,-0.938001 1.617,-1.896001 l 0,-2.403999 3.904,0 0,-7.417 16.75,0 c 0.874,0 1.583001,-0.709 1.583001,-1.583001 0,-0.874 -0.710001,-1.586999 -1.584001,-1.586999 z"
         sodipodi:nodetypes="cccccssscccscccccsssssssssscscscsssaassssscccscccsssc"
         id="path9" /><path
         style="fill:#0361d7;fill-opacity:1"
         inkscape:connector-curvature="0"
         id="path11"
         d="m 24.601579,28.610948 h 0.332001 v -3.375001 h -0.332001 c -0.933,0 -1.688,0.755001 -1.688,1.688 0,0.933 0.755,1.687001 1.688,1.687001 z" /><path
         style="fill:#0361d7;fill-opacity:1"
         inkscape:connector-curvature="0"
         id="path13"
         d="m 37.912579,25.235947 v 3.375001 h 0.332 c 0.934,0 1.688,-0.755001 1.688,-1.688 0,-0.933 -0.755,-1.688001 -1.688,-1.688001 l -0.332,9.68e-4 0,0 z" /><path
         style="fill:#0361d7;fill-opacity:1"
         inkscape:connector-curvature="0"
         id="path16"
         d="m 32.408579,23.920947 0.275,-0.003 c -0.021,-1.668999 0.362999,-2.868999 1.172,-3.668999 1.537,-1.518 4.520999,-1.448 7.406,-1.375 3.006999,0.073 6.118,0.148 7.789999,-1.607 0.938001,-0.985 1.324001,-2.411 1.182,-4.357 l -0.996,0.073 c 0.120001,1.649 -0.176999,2.825 -0.908,3.594 -0.895999,0.939 -2.389999,1.232 -4.130999,1.304 0.390999,-0.204 0.751999,-0.454 1.06,-0.787 0.93,-1.007 1.305999,-2.54 1.149,-4.685 l -0.998001,0.073 c 0.137,1.854 -0.153999,3.141 -0.886999,3.934 -1.104,1.193 -3.150001,1.205 -5.318,1.217 -2.357001,0.014 -4.795,0.028 -6.337,1.598 -1.009,1.026 -1.484999,2.571 -1.458999,4.722 l 0.999999,-0.013 c -9.68e-4,-0.007 0,-0.012 0,-0.019 z" /><text
         xml:space="preserve"
         style="font-size:12.58148098px;font-style:normal;font-weight:normal;line-height:125%;letter-spacing:0px;word-spacing:0px;fill:#000000;fill-opacity:1;stroke:none;font-family:Sans"
         x="26.202744"
         y="60.252274"
         id="text3826"
         sodipodi:linespacing="125%"
         transform="scale(1.0190765,0.98128061)"><tspan
           sodipodi:role="line"
           id="tspan3828"
           x="26.202744"
           y="60.252274"
           style="fill:#0361cd;fill-opacity:1" /></text>
<rect
         style="fill:#0361d7;fill-opacity:1"
         id="rect3830"
         width="1.2370399"
         height="15.380528"
         x="45.435318"
         y="60.043621" /><text
         xml:space="preserve"
         style="font-size:14.68595219px;font-style:normal;font-weight:normal;line-height:125%;letter-spacing:0px;word-spacing:0px;fill:#0361d7;fill-opacity:1;stroke:none;font-family:Sans"
         x="34.950027"
         y="80.64949"
         id="text3832"
         sodipodi:linespacing="125%"
         transform="scale(1.0647716,0.93916855)"><tspan
           sodipodi:role="line"
           id="tspan3834"
           x="34.950027"
           y="80.64949"
           style="fill:#0361d7;fill-opacity:1">o</tspan></text>
<rect
         style="fill:#0361d7;fill-opacity:1"
         id="rect3857"
         width="1.3195091"
         height="20.204985"
         x="48.581081"
         y="60.662144" /><rect
         style="fill:#0361d7;fill-opacity:1"
         id="rect3880"
         width="18.494743"
         height="1.1442618"
         x="48.581356"
         y="79.76265" /></g></g><g
     id="g17"
     transform="translate(70.03676,-4.0225754)" /><g
     id="g19"
     transform="translate(70.03676,-4.0225754)" /><g
     id="g21"
     transform="translate(70.03676,-4.0225754)" /><g
     id="g23"
     transform="translate(70.03676,-4.0225754)" /><g
     id="g25"
     transform="translate(70.03676,-4.0225754)" /><g
     id="g27"
     transform="translate(70.03676,-4.0225754)" /><g
     id="g29"
     transform="translate(70.03676,-4.0225754)" /><g
     id="g31"
     transform="translate(70.03676,-4.0225754)" /><g
     id="g33"
     transform="translate(70.03676,-4.0225754)" /><g
     id="g35"
     transform="translate(70.03676,-4.0225754)" /><g
     id="g37"
     transform="translate(70.03676,-4.0225754)" /><g
     id="g39"
     transform="translate(70.03676,-4.0225754)" /><g
     id="g41"
     transform="translate(70.03676,-4.0225754)" /><g
     id="g43"
     transform="translate(70.03676,-4.0225754)" /><g
     id="g45"
     transform="translate(70.03676,-4.0225754)" /><path
     inkscape:connector-curvature="0"
     d="m 72.34016,19.493565 c 8e-5,-0.02135 -0.0079,-0.0401 -0.009,-0.06146 -0.0049,-0.09884 -0.01631,-0.19504 -0.04117,-0.28865 -0.01179,-0.04012 -0.0303,-0.07628 -0.04609,-0.115093 -0.02765,-0.07226 -0.05397,-0.141829 -0.09366,-0.207495 -0.02382,-0.04021 -0.05434,-0.07507 -0.08085,-0.11128 -0.04244,-0.05763 -0.08617,-0.113958 -0.136648,-0.16366 -0.03455,-0.03358 -0.07447,-0.06312 -0.112968,-0.09278 -0.03592,-0.02822 -0.06643,-0.0618 -0.104979,-0.08741 -0.02269,-0.01354 -0.04796,-0.0203 -0.0706,-0.03244 -0.01861,-0.01092 -0.03328,-0.02551 -0.05324,-0.03499 L 35.63404,0.74059765 C 35.255826,0.55557668 34.812477,0.55980026 34.438855,0.75267749 L 0.96086561,17.927233 c -0.01472,0.0079 -0.02409,0.01994 -0.03884,0.02787 -0.01472,0.0079 -0.0321,0.01193 -0.04818,0.02109 -0.04557,0.0278 -0.08045,0.06503 -0.122052,0.09814 -0.03891,0.03049 -0.08044,0.05832 -0.116694,0.09282 -0.05101,0.05046 -0.09145,0.106274 -0.133093,0.163509 -0.02689,0.03726 -0.05913,0.07047 -0.08207,0.110392 -0.0418,0.07056 -0.07025,0.146494 -0.09739,0.223797 -0.01228,0.0333 -0.0297,0.0626 -0.03926,0.09727 -0.02998,0.108005 -0.04798,0.224071 -0.04862,0.342913 l -0.235886,42.729177 c -0.0028,0.506077 0.280406,0.969664 0.73182,1.199162 L 35.352299,80.583688 c 0.01992,0.0095 0.04138,0.0057 0.06133,0.01503 0.171835,0.07572 0.350488,0.127449 0.534758,0.128468 0.184267,10e-4 0.364807,-0.04874 0.53615,-0.123898 0.02008,-0.0092 0.04275,-0.0051 0.06149,-0.01441 l 34.813283,-17.1671 c 0.453907,-0.223164 0.742209,-0.683594 0.745003,-1.189672 l 0.235786,-42.729194 c 8e-6,-0.0014 3.3e-5,-0.0026 -4.5e-5,-0.0054 7e-6,-0.0014 3.3e-5,-0.0026 9.4e-5,-0.0041 z M 5.3620497,57.857826 c -0.737079,-0.0041 -1.331989,-0.605575 -1.327922,-1.342655 0.0041,-0.737078 0.605578,-1.331986 1.342655,-1.327922 0.737078,0.0041 1.331986,0.605578 1.327919,1.342654 -0.0041,0.737078 -0.605576,1.331986 -1.342654,1.327921 z m 0.04416,-8.011725 c -0.737079,-0.0041 -1.331991,-0.605577 -1.327922,-1.342654 0.0041,-0.737078 0.605578,-1.331985 1.342654,-1.327922 0.737081,0.0041 1.331987,0.605578 1.327922,1.342655 -0.0041,0.73708 -0.605578,1.331986 -1.342654,1.327921 z m 0.04416,-8.011725 c -0.737079,-0.0041 -1.331988,-0.605575 -1.327921,-1.342654 0.0041,-0.737078 0.605579,-1.331987 1.342654,-1.327921 0.73708,0.0041 1.331986,0.605579 1.32792,1.342653 -0.0041,0.73708 -0.605575,1.331986 -1.342654,1.32792 z m 0.04416,-8.011722 c -0.737079,-0.0041 -1.33199,-0.605578 -1.327923,-1.342655 0.0041,-0.737077 0.605581,-1.331988 1.342656,-1.327923 0.737079,0.0041 1.331985,0.605577 1.32792,1.342654 -0.0041,0.737079 -0.605575,1.331985 -1.342654,1.32792 z m 0.04416,-8.011725 c -0.737079,-0.0041 -1.331989,-0.605577 -1.327923,-1.342657 0.0041,-0.737074 0.60558,-1.331984 1.342656,-1.327919 0.737079,0.0041 1.331985,0.605577 1.32792,1.342654 -0.0041,0.737077 -0.605577,1.331986 -1.342654,1.327919 z m 3.8071,36.074864 c -0.73708,-0.0041 -1.331986,-0.605577 -1.327921,-1.342654 0.0041,-0.737077 0.605576,-1.331986 1.342654,-1.327921 0.7370773,0.0041 1.3319873,0.605578 1.3279203,1.342654 -0.0041,0.73708 -0.605576,1.331986 -1.3426543,1.327921 z m 0.04416,-8.011725 c -0.737079,-0.0041 -1.331986,-0.605576 -1.327922,-1.342654 0.0041,-0.737077 0.605578,-1.331985 1.342656,-1.327921 0.7370773,0.0041 1.3319853,0.60558 1.3279193,1.342654 -0.0041,0.737078 -0.605575,1.331987 -1.3426533,1.327919 z m 0.04416,-8.011724 c -0.737079,-0.0041 -1.331987,-0.605575 -1.327922,-1.342652 0.0041,-0.73708 0.605577,-1.331988 1.342656,-1.327923 0.7370773,0.0041 1.3319853,0.605579 1.3279183,1.342653 -0.0041,0.737081 -0.605576,1.331989 -1.3426543,1.327921 z m 0.04416,-8.011723 c -0.73708,-0.0041 -1.331988,-0.605576 -1.32792,-1.342656 0.0041,-0.737077 0.605575,-1.331984 1.342653,-1.327919 0.7370803,0.0041 1.3319853,0.605577 1.3279203,1.342654 -0.0041,0.73708 -0.605577,1.331986 -1.3426543,1.327921 z m 0.04416,-8.011725 c -0.737082,-0.0041 -1.331988,-0.605577 -1.327921,-1.342654 0.0041,-0.737079 0.605576,-1.331988 1.342654,-1.32792 0.7370793,0.0041 1.3319853,0.605576 1.3279183,1.342651 -0.0041,0.737079 -0.605575,1.331986 -1.3426523,1.32792 z m 3.8070983,36.074865 c -0.737076,-0.0041 -1.331987,-0.605579 -1.32792,-1.342656 0.0041,-0.737077 0.605579,-1.331986 1.342654,-1.327921 0.737079,0.0041 1.331986,0.605576 1.327919,1.342654 -0.0041,0.737079 -0.605574,1.331985 -1.342653,1.327921 z m 0.04416,-8.011727 c -0.737077,-0.0041 -1.331988,-0.605574 -1.327921,-1.342654 0.0041,-0.737075 0.605577,-1.331983 1.342654,-1.327919 0.73708,0.0041 1.331987,0.605577 1.32792,1.342654 -0.0041,0.737078 -0.605577,1.331986 -1.342653,1.327919 z m 0.04416,-8.011723 c -0.737079,-0.0041 -1.331988,-0.605576 -1.327921,-1.342654 0.0041,-0.737077 0.605578,-1.331986 1.342654,-1.32792 0.73708,0.0041 1.331985,0.605577 1.32792,1.342654 -0.0041,0.737079 -0.605577,1.331986 -1.342653,1.32792 z m 0.04416,-8.011724 c -0.737076,-0.0041 -1.331985,-0.605575 -1.32792,-1.342654 0.0041,-0.737077 0.605581,-1.331986 1.342654,-1.327921 0.737081,0.0041 1.331987,0.60558 1.327921,1.342656 -0.0041,0.737077 -0.605576,1.331986 -1.342655,1.327919 z m 0.04416,-8.011723 c -0.737077,-0.0041 -1.331989,-0.605576 -1.327922,-1.342654 0.0041,-0.73708 0.605581,-1.331988 1.342656,-1.327923 0.737079,0.0041 1.331987,0.605579 1.327921,1.342654 -0.0041,0.73708 -0.605576,1.331988 -1.342655,1.327923 z m 3.807105,36.074863 c -0.73708,-0.0041 -1.331988,-0.605577 -1.327924,-1.342655 0.0041,-0.737076 0.60558,-1.331985 1.342655,-1.327921 0.737079,0.0041 1.331988,0.605578 1.327922,1.342655 -0.0041,0.73708 -0.605577,1.331986 -1.342654,1.327921 z m 0.04417,-8.011725 c -0.73708,-0.0041 -1.331987,-0.605577 -1.327921,-1.342654 0.0041,-0.737078 0.60558,-1.331987 1.342654,-1.327921 0.737082,0.0041 1.331989,0.605576 1.327923,1.342656 -0.0041,0.737077 -0.605579,1.331984 -1.342656,1.327921 z m 0.04417,-8.011723 c -0.73708,-0.0041 -1.331987,-0.605577 -1.327922,-1.342656 0.0041,-0.737074 0.605578,-1.331986 1.342655,-1.327921 0.73708,0.0041 1.331989,0.605579 1.327921,1.342656 -0.0041,0.737078 -0.60558,1.331986 -1.342655,1.327922 z m 0.04416,-8.011727 c -0.73708,-0.0041 -1.331988,-0.605572 -1.327921,-1.342654 0.0041,-0.737075 0.605577,-1.331984 1.342654,-1.327919 0.737083,0.0041 1.331991,0.60558 1.327921,1.342657 -0.0041,0.737079 -0.605575,1.331987 -1.342652,1.327921 z m 0.04416,-8.011722 c -0.737078,-0.0041 -1.331986,-0.605577 -1.327919,-1.342654 0.0041,-0.737077 0.605578,-1.331986 1.342654,-1.327921 0.73708,0.0041 1.33199,0.60558 1.327919,1.342656 -0.0041,0.737078 -0.605575,1.331987 -1.342654,1.327921 z m 1.150618,-8.631887 0,0 0,0 c -0.09562,0.146359 -0.213795,0.26722 -0.358507,0.366616 -0.0483,0.03574 -0.09654,0.07158 -0.148776,0.09932 -0.05356,0.0264 -0.10575,0.04883 -0.163282,0.06855 -0.136473,0.05133 -0.279559,0.08658 -0.435791,0.08571 -0.737078,-0.0041 -1.331987,-0.605574 -1.327919,-1.342654 0.0041,-0.737075 0.605577,-1.331984 1.342652,-1.327918 0.737081,0.0041 1.33199,0.605577 1.327921,1.342656 -0.0015,0.267057 -0.100248,0.500194 -0.236253,0.707756 z m 2.700696,36.695027 c -0.73708,-0.0041 -1.331986,-0.605575 -1.327921,-1.342654 0.0041,-0.737077 0.605577,-1.331984 1.342653,-1.327918 0.737084,0.0041 1.331992,0.605577 1.327922,1.342656 -0.0041,0.737077 -0.605577,1.331984 -1.342654,1.327921 z m 0.04416,-8.011725 c -0.737078,-0.0041 -1.331984,-0.605575 -1.327918,-1.342654 0.0041,-0.737077 0.605579,-1.331987 1.342654,-1.327919 0.73708,0.0041 1.331989,0.605577 1.32792,1.342655 -0.0041,0.737079 -0.605576,1.331986 -1.342654,1.327921 z m 0.04417,-8.011723 c -0.737078,-0.0041 -1.331984,-0.605576 -1.327921,-1.342654 0.0041,-0.737076 0.605577,-1.331983 1.342654,-1.32792 0.737079,0.0041 1.331989,0.605578 1.327921,1.342655 -0.0041,0.737079 -0.605577,1.331986 -1.342655,1.327923 z m 0.04416,-8.011725 c -0.737078,-0.0041 -1.331987,-0.605575 -1.327919,-1.342653 0.0041,-0.737079 0.605575,-1.331986 1.342654,-1.32792 0.73708,0.0041 1.331989,0.605579 1.327921,1.342654 -0.0041,0.73708 -0.605577,1.331988 -1.342656,1.327921 z m 0.04417,-8.011721 c -0.737078,-0.0041 -1.331984,-0.60558 -1.327919,-1.342654 0.0041,-0.737079 0.605575,-1.331988 1.342652,-1.327921 0.737082,0.0041 1.331992,0.605577 1.327921,1.342655 -0.0041,0.73708 -0.605577,1.331986 -1.342655,1.327921 z m 3.80692,36.074861 c -0.73708,-0.0041 -1.331986,-0.605579 -1.327921,-1.342654 0.0041,-0.737079 0.605576,-1.331988 1.342654,-1.32792 0.737077,0.0041 1.331989,0.605576 1.327921,1.342654 -0.0041,0.737079 -0.605577,1.331985 -1.342655,1.327921 z m 0.04417,-8.011724 c -0.737078,-0.0041 -1.331987,-0.605578 -1.327921,-1.342655 0.0041,-0.737077 0.605577,-1.331985 1.342654,-1.32792 0.737079,0.0041 1.331991,0.605577 1.327923,1.342655 -0.0041,0.737077 -0.60558,1.331985 -1.342657,1.327923 z m 0.04416,-8.011726 c -0.737084,-0.0041 -1.33199,-0.605575 -1.327924,-1.342656 0.0041,-0.737076 0.605579,-1.331986 1.342656,-1.327919 0.737078,0.0041 1.33199,0.605575 1.327921,1.342654 -0.0041,0.737077 -0.605579,1.331985 -1.342654,1.327919 z m 0.04417,-8.011724 c -0.73708,-0.0041 -1.331986,-0.605577 -1.327921,-1.342656 0.0041,-0.737074 0.605577,-1.331984 1.342656,-1.327919 0.737077,0.0041 1.331987,0.605578 1.327921,1.342654 -0.0041,0.737078 -0.605577,1.331986 -1.342656,1.327921 z m 0.04417,-8.011724 c -0.737078,-0.0041 -1.331984,-0.605577 -1.327919,-1.342654 0.0041,-0.737077 0.605575,-1.331984 1.342655,-1.327921 0.737077,0.0041 1.331988,0.605579 1.327921,1.342654 -0.0041,0.737082 -0.60558,1.331988 -1.342657,1.327924 z m 3.80729,36.074865 c -0.73708,-0.0041 -1.331989,-0.605575 -1.327921,-1.342655 0.0041,-0.737077 0.60558,-1.331986 1.342655,-1.327921 0.737077,0.0041 1.331986,0.605578 1.32792,1.342654 -0.0041,0.737079 -0.605576,1.331986 -1.342654,1.327921 z m 0.04417,-8.011725 c -0.737077,-0.0041 -1.331985,-0.605575 -1.32792,-1.342654 0.0041,-0.737077 0.605579,-1.331984 1.342654,-1.327921 0.737077,0.0041 1.331985,0.605577 1.32792,1.342654 -0.0041,0.737082 -0.605576,1.331988 -1.342656,1.327923 z m 0.04417,-8.011723 c -0.737077,-0.0041 -1.331986,-0.605577 -1.32792,-1.342654 0.0041,-0.737076 0.605576,-1.331986 1.342656,-1.32792 0.737077,0.0041 1.331986,0.605576 1.327919,1.342654 -0.0041,0.737077 -0.60558,1.331985 -1.342654,1.327921 z m 0.04417,-8.011725 c -0.737079,-0.0041 -1.331989,-0.605576 -1.32792,-1.342654 0.0041,-0.737076 0.605577,-1.331986 1.342654,-1.32792 0.737079,0.0041 1.331986,0.605577 1.32792,1.342654 -0.0041,0.73708 -0.605579,1.331986 -1.342654,1.32792 z m 0.04416,-8.011724 c -0.737079,-0.0041 -1.331989,-0.605575 -1.32792,-1.342655 0.0041,-0.737076 0.605577,-1.331985 1.342654,-1.327921 0.737079,0.0041 1.331986,0.605577 1.327921,1.342655 -0.0041,0.737079 -0.605578,1.331985 -1.342654,1.32792 z m 3.807098,36.074864 c -0.737076,-0.0041 -1.331984,-0.605574 -1.327917,-1.342653 0.0041,-0.737078 0.605575,-1.331986 1.342653,-1.327919 0.73708,0.0041 1.331988,0.605578 1.327921,1.342655 -0.0041,0.737077 -0.605578,1.331988 -1.342655,1.327921 z m 0.04417,-8.011724 c -0.73708,-0.0041 -1.331987,-0.605575 -1.327919,-1.342652 0.0041,-0.737077 0.605575,-1.331988 1.342652,-1.327921 0.73708,0.0041 1.331987,0.605577 1.327921,1.342655 -0.0041,0.737079 -0.605579,1.331986 -1.342654,1.32792 z m 0.04417,-8.011723 c -0.737077,-0.0041 -1.331985,-0.605576 -1.327919,-1.342654 0.0041,-0.737077 0.605577,-1.331986 1.342654,-1.327921 0.737078,0.0041 1.331986,0.60558 1.327921,1.342655 -0.0041,0.737079 -0.605579,1.331985 -1.342656,1.327921 z m 0.04417,-8.011725 c -0.737077,-0.0041 -1.331984,-0.605577 -1.327919,-1.342653 0.0041,-0.73708 0.605573,-1.331986 1.342653,-1.327919 0.737079,0.0041 1.331986,0.605577 1.32792,1.342652 -0.0041,0.737082 -0.605577,1.331986 -1.342654,1.327923 z m 0.04416,-8.011724 c -0.737077,-0.0041 -1.331987,-0.605577 -1.327919,-1.342654 0.0041,-0.737077 0.605573,-1.331984 1.34265,-1.327918 0.737082,0.0041 1.331989,0.605576 1.327923,1.342656 -0.0041,0.737077 -0.60558,1.331984 -1.342656,1.327919 z m 1.150613,-8.631886 0,0 0,0 c -0.09562,0.146356 -0.213794,0.267217 -0.358507,0.366615 -0.0483,0.03574 -0.09652,0.07158 -0.148775,0.09932 -0.05356,0.0264 -0.105749,0.04883 -0.163283,0.06854 -0.136473,0.05133 -0.279558,0.08658 -0.435789,0.08574 -0.737079,-0.0041 -1.331985,-0.605577 -1.327921,-1.342653 0.0041,-0.737078 0.605575,-1.331986 1.342654,-1.327921 0.737079,0.0041 1.331988,0.605579 1.327921,1.342654 -0.0015,0.267059 -0.100249,0.500197 -0.236253,0.707757 z M 36.199802,35.169852 4.5089627,19.105907 35.062314,3.4308381 67.973591,19.501519 36.199802,35.169852 z M 69.438298,61.392163 37.302984,77.23877 37.522295,37.495278 69.657611,21.648671 69.438298,61.392163 z"
     id="path3"
     style="fill:#036cd0;fill-opacity:1;fill-rule:nonzero" /><text
     xml:space="preserve"
     style="font-size:6.60356236px;font-style:normal;font-weight:normal;line-height:125%;letter-spacing:0px;word-spacing:0px;fill:#0361d7;fill-opacity:1;stroke:none;font-family:Sans"
     x="64.90715"
     y="75.615517"
     id="text3035"
     sodipodi:linespacing="125%"
     transform="matrix(0.98599844,-0.16675453,0.16675453,0.98599844,0,0)"><tspan
       sodipodi:role="line"
       id="tspan3037"
       x="64.90715"
       y="75.615517"
       style="font-size:23.77282715px;fill:#0361d7;fill-opacity:1">@</tspan></text>
</svg>