<?xml version="1.0" encoding="UTF-8" standalone="no"?>
<!-- Created with Inkscape (http://www.inkscape.org/) -->

<svg
   xmlns:dc="http://purl.org/dc/elements/1.1/"
   xmlns:cc="http://creativecommons.org/ns#"
   xmlns:rdf="http://www.w3.org/1999/02/22-rdf-syntax-ns#"
   xmlns:svg="http://www.w3.org/2000/svg"
   xmlns="http://www.w3.org/2000/svg"
   xmlns:sodipodi="http://sodipodi.sourceforge.net/DTD/sodipodi-0.dtd"
   xmlns:inkscape="http://www.inkscape.org/namespaces/inkscape"
   width="438.12973mm"
   height="355.74286mm"
   viewBox="0 0 438.12973 355.74286"
   version="1.1"
   id="svg2377"
   inkscape:version="0.92.3 (2405546, 2018-03-11)"
   sodipodi:docname="logo-@m-it.svg">
  <defs
     id="defs2371" />
  <sodipodi:namedview
     id="base"
     pagecolor="#ffffff"
     bordercolor="#666666"
     borderopacity="1.0"
     inkscape:pageopacity="0.0"
     inkscape:pageshadow="2"
     inkscape:zoom="0.35"
     inkscape:cx="1085.1046"
     inkscape:cy="703.69841"
     inkscape:document-units="mm"
     inkscape:current-layer="layer1"
     showgrid="false"
     fit-margin-top="10"
     fit-margin-left="10"
     fit-margin-right="10"
     fit-margin-bottom="10"
     inkscape:window-width="1871"
     inkscape:window-height="1025"
     inkscape:window-x="49"
     inkscape:window-y="27"
     inkscape:window-maximized="1" />
  <metadata
     id="metadata2374">
    <rdf:RDF>
      <cc:Work
         rdf:about="">
        <dc:format>image/svg+xml</dc:format>
        <dc:type
           rdf:resource="http://purl.org/dc/dcmitype/StillImage" />
        <dc:title></dc:title>
      </cc:Work>
    </rdf:RDF>
  </metadata>
  <g
     inkscape:label="Calque 1"
     inkscape:groupmode="layer"
     id="layer1"
     transform="translate(181.26726,20.722618)">
    <g
       transform="matrix(2.460838,0,0,2.460838,1117.5103,-983.21874)"
       id="g1711">
      <path
         sodipodi:nodetypes="ccssscsccscsscc"
         inkscape:connector-curvature="0"
         id="path1320-4-8"
         d="m -405.89476,397.62668 c -15.05657,-6.66185 -7.96083,16.36267 -13.37442,14.56386 -4.77419,-3.7387 -7.41778,-8.03268 -6.95544,-4.51265 0.46234,3.52002 9.90408,11.54854 3.69815,10.43555 -6.20592,-1.11297 -8.8507,-0.17339 -4.85464,3.7226 3.99607,3.89598 3.67076,8.75896 -0.14479,5.29373 -3.81553,-3.46522 -4.6568,-10.70903 -7.37667,-5.51778 -2.71986,5.19126 5.24191,4.04912 4.30528,8.66184 -0.93661,4.61274 -5.63693,1.85594 -5.63693,1.85594 0,0 -5.27466,-2.51611 -8.15598,-0.12692 -2.88133,2.38918 8.10185,6.87953 6.3734,10.81125 -1.72845,3.93173 -5.61676,1.86989 -10.55361,0.56269 -4.93685,-1.30721 -13.73154,-3.36097 -10.95927,5.2681 2.77227,8.62907 -3.30913,9.82722 -3.30913,9.82722 l 0.0602,0.14358"
         style="opacity:0.97000002;fill:none;fill-opacity:1;stroke:#009ddc;stroke-width:2.49073815;stroke-linecap:butt;stroke-linejoin:miter;stroke-miterlimit:4;stroke-dasharray:none;stroke-opacity:1" />
      <text
         xml:space="preserve"
         style="font-style:normal;font-weight:normal;font-size:11.20353985px;line-height:1.25;font-family:sans-serif;letter-spacing:0px;word-spacing:0px;fill:#009ddc;fill-opacity:1;stroke:none;stroke-width:0.15004741"
         x="-540.9339"
         y="386.27859"
         id="text1071"
         transform="scale(0.80186095,1.247099)"><tspan
           sodipodi:role="line"
           id="tspan1069"
           x="-540.9339"
           y="386.27859"
           style="font-size:28.80910301px;fill:#009ddc;fill-opacity:1;stroke-width:0.15004741">m-it</tspan></text>
      <g
         id="g1324-5-1-3-0-8-1-0-2-5"
         transform="matrix(12.117651,0.43315076,-0.43315076,12.117651,-2985.6755,-15.124559)"
         style="fill:#009ddc;fill-opacity:1">
        <g
           id="g1328-1-6-2-8-6-7-8-5-3"
           transform="translate(85.574679,47.868718)"
           style="fill:#009ddc;fill-opacity:1">
          <path
             sodipodi:type="star"
             style="fill:#009ddc;fill-opacity:1;stroke:none;stroke-width:0.12845102"
             id="path1237-1-0-5-6-8-7-9-0-5"
             sodipodi:sides="6"
             sodipodi:cx="-26.493023"
             sodipodi:cy="-44.686535"
             sodipodi:r1="2.9171312"
             sodipodi:r2="1.4585655"
             sodipodi:arg1="0.85843873"
             sodipodi:arg2="1.3820375"
             inkscape:flatsided="false"
             inkscape:rounded="0.39"
             inkscape:randomized="0.076"
             d="m -24.368763,-42.459402 c -0.510632,0.458109 -0.966292,-1.013121 -1.673771,-0.941195 -0.70748,0.07193 -0.713441,1.943161 -1.33609,1.649999 -0.62265,-0.293163 0.476797,-1.660298 -1.99e-4,-2.167068 -0.476997,-0.506769 -1.962992,0.698959 -2.041117,-0.01042 -0.07813,-0.709382 1.403473,-0.584108 1.673571,-1.225873 0.270099,-0.641765 -1.074275,-1.238953 -0.529768,-1.66393 0.544507,-0.424977 0.932233,0.862979 1.649867,0.736536 0.717635,-0.126443 0.251286,-1.622607 0.91659,-1.44534 0.665304,0.177267 -0.02098,1.244997 0.44361,1.77276 0.464589,0.527762 1.510908,-0.06253 1.621617,0.658485 0.110709,0.721014 -1.238868,0.06682 -1.453697,0.732663 -0.214829,0.665845 1.240019,1.445276 0.729387,1.903385 z"
             transform="matrix(1.0770063,0.9492221,-1.0046359,1.1398799,106.44427,61.330811)"
             inkscape:transform-center-x="2.5574772"
             inkscape:transform-center-y="1.5017564" />
        </g>
      </g>
      <g
         transform="matrix(6.577196,1.2350992,-1.1654965,6.969982,-887.37822,73.574691)"
         id="g893-0-8-9-0-7-0-3"
         style="fill:#ffffff;fill-opacity:1">
        <text
           xml:space="preserve"
           style="font-style:normal;font-weight:normal;font-size:4.02731276px;line-height:0%;font-family:sans-serif;letter-spacing:0px;word-spacing:0px;fill:#ffffff;fill-opacity:1;stroke:none;stroke-width:0.33560941"
           x="60.580288"
           y="58.202869"
           id="text3035-8-5-0-6-4-4-6"
           transform="rotate(-9.5991739)"><tspan
             sodipodi:role="line"
             id="tspan3037-1-7-1-9-3-5-7"
             x="60.580288"
             y="58.202869"
             style="font-size:7.97838449px;line-height:1.25;font-family:sans-serif;fill:#ffffff;fill-opacity:1;stroke-width:0.33560941">@</tspan></text>
      </g>
      <path
         sodipodi:nodetypes="ccccccc"
         inkscape:connector-curvature="0"
         id="path1578"
         d="m -462.32872,494.69794 c 0,0 9.39936,2.4352 13.26007,5.8208 4.06861,2.9252 4.41013,0.4752 4.46952,0.059 0.0594,-0.4158 3.74194,-3.2371 3.68253,-4.6032 -0.0594,-1.3661 -3.38554,-5.3456 -4.24678,-5.5535 -0.86124,-0.2078 -4.54377,-0.3563 -5.28621,-0.2969 -0.74245,0.059 -11.87913,4.5734 -11.87913,4.5734 z"
         style="fill:#009ddc;fill-opacity:1;stroke:none;stroke-width:0.10751758px;stroke-linecap:butt;stroke-linejoin:miter;stroke-opacity:1" />
      <path
         style="fill:none;fill-opacity:1;stroke:#009ddc;stroke-width:4.40325403;stroke-miterlimit:4;stroke-dasharray:none;stroke-dashoffset:0;stroke-opacity:1"
         d="m -440.59593,414.11724 a 31.677096,30.154865 0 0 0 -31.67703,30.1551 31.677096,30.154865 0 0 0 0.63192,5.851 26.648483,27.817275 0 0 0 -17.93006,26.2523 26.648483,27.817275 0 0 0 7.09186,18.8569 c 2.87257,4.003 6.96189,7.067 11.73508,8.6646 a 29.091448,23.14092 0 0 0 27.90768,16.6553 29.091448,23.14092 0 0 0 23.23791,-9.2661 15.647669,14.104942 0 0 0 12.72779,5.9296 15.647669,14.104942 0 0 0 13.22256,-6.5939 21.377806,19.394296 0 0 0 16.26761,6.8448 21.377806,19.394296 0 0 0 21.37763,-19.3942 21.377806,19.394296 0 0 0 -8.20764,-15.2488 24.185177,25.245932 0 0 0 0.30622,-3.7989 24.185177,25.245932 0 0 0 -15.74677,-23.6264 18.155251,18.856527 0 0 0 1.03748,-6.2172 18.155251,18.856527 0 0 0 -18.15521,-18.8569 18.155251,18.856527 0 0 0 -13.27087,6.0232 31.677096,30.154865 0 0 0 -30.55616,-22.2304 z"
         id="path1065-4-0-1-3-5-0-61"
         inkscape:connector-curvature="0" />
    </g>
  </g>
</svg>
