<?xml version="1.0" encoding="UTF-8" standalone="no"?>
<!-- Generator: Adobe Illustrator 16.0.0, SVG Export Plug-In . SVG Version: 6.00 Build 0)  -->

<svg
   xmlns:dc="http://purl.org/dc/elements/1.1/"
   xmlns:cc="http://creativecommons.org/ns#"
   xmlns:rdf="http://www.w3.org/1999/02/22-rdf-syntax-ns#"
   xmlns:svg="http://www.w3.org/2000/svg"
   xmlns="http://www.w3.org/2000/svg"
   xmlns:sodipodi="http://sodipodi.sourceforge.net/DTD/sodipodi-0.dtd"
   xmlns:inkscape="http://www.inkscape.org/namespaces/inkscape"
   version="1.1"
   id="Capa_1"
   x="0px"
   y="0px"
   width="855.55487"
   height="780.71497"
   viewBox="0 0 91.985516 83.940582"
   xml:space="preserve"
   inkscape:version="0.48.4 r9939"
   sodipodi:docname="logo.svg"><metadata
     id="metadata51"><rdf:RDF><cc:Work
         rdf:about=""><dc:format>image/svg+xml</dc:format><dc:type
           rdf:resource="http://purl.org/dc/dcmitype/StillImage" /><dc:title /></cc:Work></rdf:RDF></metadata><defs
     id="defs49" /><sodipodi:namedview
     pagecolor="#ffffff"
     bordercolor="#666666"
     borderopacity="1"
     objecttolerance="10"
     gridtolerance="10"
     guidetolerance="10"
     inkscape:pageopacity="0"
     inkscape:pageshadow="2"
     inkscape:window-width="1797"
     inkscape:window-height="948"
     id="namedview47"
     showgrid="false"
     fit-margin-top="0"
     fit-margin-left="0"
     fit-margin-right="0"
     fit-margin-bottom="0"
     inkscape:zoom="0.4609375"
     inkscape:cx="-7.017006"
     inkscape:cy="305.58594"
     inkscape:window-x="57"
     inkscape:window-y="34"
     inkscape:window-maximized="0"
     inkscape:current-layer="Capa_1" /><g
     id="g3"
     transform="translate(36.737182,9.6230458)"><g
       id="g5"
       style="fill:#0061d7;fill-opacity:1"
       transform="translate(0,-8.3863726)"><path
         d="m 20.600755,57.903645 0,-0.04 c 1.616,-0.565 2.424,-1.696 2.424,-3.071 0,-1.718 -1.394,-3.213 -4.102,-3.213 -1.576,0 -3.031,0.485 -3.778,1.01 l 0.566,1.799 c 0.545,-0.363 1.616,-0.828 2.687,-0.828 1.434,0 2.101,0.748 2.101,1.636 0,1.313 -1.455,1.839 -2.606,1.839 l -1.111,0 0,1.818 1.151,0 c 1.516,0 2.97,0.667 2.97,2.222 0.02,1.031 -0.748,2.103 -2.646,2.103 -1.252,0 -2.485,-0.506 -2.99,-0.81 0,0 -2.210944,-1.079627 -3.087702,-1.41999 C 9.5611404,59.932363 8.8391138,64.36238 8.8391138,64.36238 l 1.5879342,0.09281 c 0,0 0.702301,-2.015492 1.777852,-1.471963 0.662026,0.334554 2.495855,1.265416 2.495855,1.265416 0.794472,0.494157 2.081,0.908 3.677,0.908 3.253,0 5.112,-1.757 5.112,-3.979 0,-1.779 -1.293,-2.991 -2.889,-3.274 z"
         id="path15"
         style="fill:#0061d7;fill-opacity:1"
         inkscape:connector-curvature="0"
         sodipodi:nodetypes="ccssccsssccscscsccscssc" /><path
         style="fill:#0361d7;fill-opacity:1"
         inkscape:connector-curvature="0"
         d="m 51.809994,18.070327 -16.75,0 0,-7.417 -11.668,0 0,7.417 -16.7489996,0 c -0.875,0 -1.584,0.709 -1.584,1.582999 0,0.874 0.709,1.583 1.584,1.583 l 16.7489996,0 0,7.417 3.905,0 0,2.403001 c 0,0.562999 0.247,1.066999 0.634001,1.42 -0.251001,0.042 -0.514001,0.075 -0.776001,0.103999 -1.123999,0.131001 -2.398,0.279001 -2.667,1.472001 l -0.012,0.101 c -0.006,0.323 0.113001,0.609999 0.344,0.832 0.716,0.687999 2.333939,0.629966 4.917,0.476999 2.026939,-0.120033 4.550526,-0.268576 5.296,0.412 0.127528,0.116426 0.187191,0.250024 0.193,0.432 0.03119,0.977027 -1.524993,1.174088 -3.730001,1.346 -1.783992,0.139088 -3.466874,0.271106 -4.239999,1.178 -0.301875,0.354107 -0.593337,0.891425 -0.391999,1.295 0.428363,0.858639 1.828212,0.674248 2.77279,0.77582 2.942004,0.316359 5.193337,0.281978 5.020092,2.080736 -0.09117,0.946551 -1.887498,0.503029 -3.14151,0.370706 -1.484051,-0.156597 -2.488848,-0.0642 -3.008522,0.617467 -0.66926,0.877888 -0.589557,1.830698 -0.09826,2.205361 2.16072,0.312906 4.478218,0.87641 4.871746,1.434655 0.494668,0.701718 -1.287473,1.104876 -0.607347,2.529577 0.04134,2.127909 1.092549,2.071863 1.056403,0.07928 -0.0036,-0.200726 0.06105,-0.442748 0.03141,-0.682035 0.99797,-1.123284 0.579974,-2.033141 0.154039,-2.55869 -1.343277,-1.65743 -5.32448,-0.944482 -4.918406,-2.005827 0.263252,-0.688057 1.752634,-0.573266 2.388464,-0.53811 0.494416,0.02734 3.374175,0.346621 4.233808,-0.804286 0.435463,-0.583013 0.253298,-1.617692 -0.217976,-2.172159 -1.649792,-1.941023 -7.784913,-1.381459 -7.381737,-1.978491 0.433535,-0.641989 2.123971,-0.717361 3.555999,-0.828999 2.210972,-0.172363 4.71992,-0.367032 4.652,-2.376 -0.01508,-0.446032 -0.194091,-0.8388 -0.52,-1.136001 -1.059094,-0.965802 -3.584038,-0.816641 -6.028,-0.672 -1.645038,0.09736 -3.685999,0.219001 -4.187,-0.275999 0.163,-0.396001 0.793,-0.497 1.779,-0.61 0.784,-0.092 1.64,-0.197 2.269,-0.623 0.916,-0.149 1.617,-0.938001 1.617,-1.896001 l 0,-2.403999 3.904,0 0,-7.417 16.75,0 c 0.874,0 1.583001,-0.709 1.583001,-1.583001 0,-0.874 -0.710001,-1.586999 -1.584001,-1.586999 z"
         sodipodi:nodetypes="cccccssscccscccccsssssssssscscscsssaassssscccscccsssc"
         id="path9" /><path
         style="fill:#0361d7;fill-opacity:1"
         inkscape:connector-curvature="0"
         id="path11"
         d="m 22.268994,14.965327 h 0.332001 v -3.375001 h -0.332001 c -0.933,0 -1.688,0.755001 -1.688,1.688 0,0.933 0.755,1.687001 1.688,1.687001 z" /><path
         style="fill:#0361d7;fill-opacity:1"
         inkscape:connector-curvature="0"
         id="path13"
         d="m 35.579994,11.590326 v 3.375001 h 0.332 c 0.934,0 1.688,-0.755001 1.688,-1.688 0,-0.933 -0.755,-1.688001 -1.688,-1.688001 l -0.332,9.68e-4 0,0 z" /><path
         style="fill:#0361d7;fill-opacity:1"
         inkscape:connector-curvature="0"
         id="path16"
         d="m 30.075994,10.275326 0.275,-0.003 c -0.021,-1.6689992 0.362999,-2.8689992 1.172,-3.6689992 1.537,-1.518 4.520999,-1.448 7.406,-1.375 3.006999,0.073 6.118,0.148 7.789999,-1.607 0.938001,-0.985 1.324001,-2.411 1.182,-4.35700001 l -0.996,0.073 c 0.120001,1.649 -0.176999,2.82500001 -0.908,3.59400001 -0.895999,0.939 -2.389999,1.232 -4.130999,1.304 0.390999,-0.204 0.751999,-0.454 1.06,-0.787 0.93,-1.007 1.305999,-2.54000001 1.149,-4.685 l -0.998001,0.073 c 0.137,1.85399999 -0.153999,3.141 -0.886999,3.934 -1.104,1.193 -3.150001,1.205 -5.318,1.217 -2.357001,0.014 -4.795,0.028 -6.337,1.598 -1.009,1.026 -1.484999,2.571 -1.458999,4.7220002 l 0.999999,-0.013 c -9.68e-4,-0.007 0,-0.012 0,-0.019 z" /><text
         xml:space="preserve"
         style="font-size:12.58148098px;font-style:normal;font-weight:normal;line-height:125%;letter-spacing:0px;word-spacing:0px;fill:#000000;fill-opacity:1;stroke:none;font-family:Sans"
         x="26.202744"
         y="60.252274"
         id="text3826"
         sodipodi:linespacing="125%"
         transform="scale(1.0190765,0.98128061)"><tspan
           sodipodi:role="line"
           id="tspan3828"
           x="26.202744"
           y="60.252274"
           style="fill:#0361cd;fill-opacity:1" /></text>
<rect
         style="fill:#0361d7;fill-opacity:1"
         id="rect3830"
         width="1.2370399"
         height="15.380528"
         x="32.533249"
         y="49.506931" /><text
         xml:space="preserve"
         style="font-size:14.68595219px;font-style:normal;font-weight:normal;line-height:125%;letter-spacing:0px;word-spacing:0px;fill:#0361d7;fill-opacity:1;stroke:none;font-family:Sans"
         x="23.034746"
         y="69.430168"
         id="text3832"
         sodipodi:linespacing="125%"
         transform="scale(1.0647716,0.93916855)"><tspan
           sodipodi:role="line"
           id="tspan3834"
           x="23.034746"
           y="69.430168"
           style="fill:#0361d7;fill-opacity:1">o</tspan></text>
<rect
         style="fill:#0361d7;fill-opacity:1"
         id="rect3857"
         width="1.3195091"
         height="20.204985"
         x="36.754185"
         y="50.125454" /><rect
         style="fill:#0361d7;fill-opacity:1"
         id="rect3880"
         width="18.494743"
         height="1.1442618"
         x="36.754459"
         y="69.22596" /></g></g><g
     id="g17"
     transform="translate(36.737182,9.6230458)" /><g
     id="g19"
     transform="translate(36.737182,9.6230458)" /><g
     id="g21"
     transform="translate(36.737182,9.6230458)" /><g
     id="g23"
     transform="translate(36.737182,9.6230458)" /><g
     id="g25"
     transform="translate(36.737182,9.6230458)" /><g
     id="g27"
     transform="translate(36.737182,9.6230458)" /><g
     id="g29"
     transform="translate(36.737182,9.6230458)" /><g
     id="g31"
     transform="translate(36.737182,9.6230458)" /><g
     id="g33"
     transform="translate(36.737182,9.6230458)" /><g
     id="g35"
     transform="translate(36.737182,9.6230458)" /><g
     id="g37"
     transform="translate(36.737182,9.6230458)" /><g
     id="g39"
     transform="translate(36.737182,9.6230458)" /><g
     id="g41"
     transform="translate(36.737182,9.6230458)" /><g
     id="g43"
     transform="translate(36.737182,9.6230458)" /><g
     id="g45"
     transform="translate(36.737182,9.6230458)" /><path
     inkscape:connector-curvature="0"
     d="m 49.543302,41.729919 c 0,-0.01468 -0.0055,-0.02752 -0.0064,-0.0422 -0.0037,-0.06789 -0.01193,-0.133952 -0.02936,-0.198176 -0.0083,-0.02752 -0.0211,-0.0523 -0.03211,-0.0789 -0.01927,-0.04954 -0.03762,-0.09725 -0.06514,-0.142209 -0.01652,-0.02752 -0.03762,-0.05138 -0.05597,-0.07615 -0.02936,-0.03945 -0.05964,-0.07798 -0.0945,-0.111933 -0.02386,-0.02294 -0.05138,-0.04312 -0.07799,-0.06331 -0.02477,-0.01927 -0.04587,-0.0422 -0.07248,-0.05964 -0.0156,-0.0092 -0.03303,-0.01376 -0.04863,-0.02202 -0.01284,-0.0073 -0.02294,-0.01743 -0.0367,-0.02385 L 24.25196,28.98424 c -0.260564,-0.125695 -0.565169,-0.121108 -0.821147,0.01285 L 0.49372479,40.924375 c -0.01009,0.0055 -0.01651,0.01376 -0.02661,0.01927 -0.01009,0.0055 -0.02202,0.0083 -0.03303,0.01468 -0.0312,0.01927 -0.05505,0.04496 -0.08349,0.06789 -0.02661,0.0211 -0.05505,0.04037 -0.07982,0.06422 -0.03486,0.03486 -0.06239,0.0734 -0.09083,0.11285 -0.01835,0.02569 -0.04037,0.04863 -0.05597,0.07615 -0.02844,0.04863 -0.04771,0.100922 -0.06606,0.154137 -0.0083,0.02294 -0.02018,0.04312 -0.02661,0.06698 -0.02018,0.07432 -0.0321100021,0.154139 -0.0321100021,0.235795 v 29.359461 c 0,0.347727 0.1963420021,0.665176 0.5073690121,0.821149 L 24.361131,83.84424 c 0.01376,0.0064 0.02844,0.0037 0.0422,0.0101 0.118355,0.05138 0.241298,0.08624 0.367911,0.08624 0.126613,0 0.250473,-0.03486 0.367911,-0.08716 0.01376,-0.0064 0.02936,-0.0037 0.0422,-0.0101 L 49.035927,71.916038 c 0.311027,-0.155054 0.507369,-0.472503 0.507369,-0.82023 V 41.736342 c 0,-9.67e-4 0,-0.0018 0,-0.0037 0,-9.68e-4 0,-0.0018 0,-0.0028 z M 3.6691344,68.343358 c -0.506451,0 -0.917484,-0.411032 -0.917484,-0.917483 0,-0.50645 0.411033,-0.917483 0.917484,-0.917483 0.506451,0 0.917483,0.411033 0.917483,0.917483 0,0.506451 -0.411032,0.917483 -0.917483,0.917483 z m 0,-5.5049 c -0.506451,0 -0.917484,-0.411032 -0.917484,-0.917483 0,-0.50645 0.411033,-0.917483 0.917484,-0.917483 0.506451,0 0.917483,0.411033 0.917483,0.917483 0,0.506451 -0.411032,0.917483 -0.917483,0.917483 z m 0,-5.5049 c -0.506451,0 -0.917484,-0.411032 -0.917484,-0.917483 0,-0.50645 0.411033,-0.917483 0.917484,-0.917483 0.506451,0 0.917483,0.411033 0.917483,0.917483 0,0.506451 -0.411032,0.917483 -0.917483,0.917483 z m 0,-5.5049 c -0.506451,0 -0.917484,-0.411032 -0.917484,-0.917483 0,-0.50645 0.411033,-0.917483 0.917484,-0.917483 0.506451,0 0.917483,0.411033 0.917483,0.917483 0,0.506451 -0.411032,0.917483 -0.917483,0.917483 z m 0,-5.5049 c -0.506451,0 -0.917484,-0.411032 -0.917484,-0.917483 0,-0.50645 0.411033,-0.917483 0.917484,-0.917483 0.506451,0 0.917483,0.411033 0.917483,0.917483 0,0.506451 -0.411032,0.917483 -0.917483,0.917483 z m 2.75245,24.77205 c -0.506451,0 -0.917484,-0.411032 -0.917484,-0.917483 0,-0.50645 0.411033,-0.917483 0.917484,-0.917483 0.506451,0 0.917483,0.411033 0.917483,0.917483 0,0.506451 -0.411032,0.917483 -0.917483,0.917483 z m 0,-5.5049 c -0.506451,0 -0.917484,-0.411032 -0.917484,-0.917483 0,-0.50645 0.411033,-0.917483 0.917484,-0.917483 0.506451,0 0.917483,0.411033 0.917483,0.917483 0,0.506451 -0.411032,0.917483 -0.917483,0.917483 z m 0,-5.5049 c -0.506451,0 -0.917484,-0.411032 -0.917484,-0.917483 0,-0.50645 0.411033,-0.917483 0.917484,-0.917483 0.506451,0 0.917483,0.411033 0.917483,0.917483 0,0.506451 -0.411032,0.917483 -0.917483,0.917483 z m 0,-5.5049 c -0.506451,0 -0.917484,-0.411032 -0.917484,-0.917483 0,-0.50645 0.411033,-0.917483 0.917484,-0.917483 0.506451,0 0.917483,0.411033 0.917483,0.917483 0,0.506451 -0.411032,0.917483 -0.917483,0.917483 z m 0,-5.5049 c -0.506451,0 -0.917484,-0.411032 -0.917484,-0.917483 0,-0.50645 0.411033,-0.917483 0.917484,-0.917483 0.506451,0 0.917483,0.411033 0.917483,0.917483 0,0.506451 -0.411032,0.917483 -0.917483,0.917483 z m 2.75245,24.77205 c -0.506451,0 -0.917484,-0.411032 -0.917484,-0.917483 0,-0.50645 0.411033,-0.917483 0.917484,-0.917483 0.506451,0 0.9174836,0.411033 0.9174836,0.917483 0,0.506451 -0.4110326,0.917483 -0.9174836,0.917483 z m 0,-5.5049 c -0.506451,0 -0.917484,-0.411032 -0.917484,-0.917483 0,-0.50645 0.411033,-0.917483 0.917484,-0.917483 0.506451,0 0.9174836,0.411033 0.9174836,0.917483 0,0.506451 -0.4110326,0.917483 -0.9174836,0.917483 z m 0,-5.5049 c -0.506451,0 -0.917484,-0.411032 -0.917484,-0.917483 0,-0.50645 0.411033,-0.917483 0.917484,-0.917483 0.506451,0 0.9174836,0.411033 0.9174836,0.917483 0,0.506451 -0.4110326,0.917483 -0.9174836,0.917483 z m 0,-5.5049 c -0.506451,0 -0.917484,-0.411032 -0.917484,-0.917483 0,-0.50645 0.411033,-0.917483 0.917484,-0.917483 0.506451,0 0.9174836,0.411033 0.9174836,0.917483 0,0.506451 -0.4110326,0.917483 -0.9174836,0.917483 z m 0,-5.5049 c -0.506451,0 -0.917484,-0.411032 -0.917484,-0.917483 0,-0.50645 0.411033,-0.917483 0.917484,-0.917483 0.506451,0 0.9174836,0.411033 0.9174836,0.917483 0,0.506451 -0.4110326,0.917483 -0.9174836,0.917483 z m 2.7524506,24.77205 c -0.506451,0 -0.917484,-0.411032 -0.917484,-0.917483 0,-0.50645 0.411033,-0.917483 0.917484,-0.917483 0.506451,0 0.917484,0.411033 0.917484,0.917483 0,0.506451 -0.411033,0.917483 -0.917484,0.917483 z m 0,-5.5049 c -0.506451,0 -0.917484,-0.411032 -0.917484,-0.917483 0,-0.50645 0.411033,-0.917483 0.917484,-0.917483 0.506451,0 0.917484,0.411033 0.917484,0.917483 0,0.506451 -0.411033,0.917483 -0.917484,0.917483 z m 0,-5.5049 c -0.506451,0 -0.917484,-0.411032 -0.917484,-0.917483 0,-0.50645 0.411033,-0.917483 0.917484,-0.917483 0.506451,0 0.917484,0.411033 0.917484,0.917483 0,0.506451 -0.411033,0.917483 -0.917484,0.917483 z m 0,-5.5049 c -0.506451,0 -0.917484,-0.411032 -0.917484,-0.917483 0,-0.50645 0.411033,-0.917483 0.917484,-0.917483 0.506451,0 0.917484,0.411033 0.917484,0.917483 0,0.506451 -0.411033,0.917483 -0.917484,0.917483 z m 0,-5.5049 c -0.506451,0 -0.917484,-0.411032 -0.917484,-0.917483 0,-0.50645 0.411033,-0.917483 0.917484,-0.917483 0.506451,0 0.917484,0.411033 0.917484,0.917483 0,0.506451 -0.411033,0.917483 -0.917484,0.917483 z m 0.757842,-5.935199 0,0 0,0 c -0.06514,0.100924 -0.14588,0.184414 -0.244968,0.253225 -0.03303,0.02477 -0.06606,0.04954 -0.101841,0.06881 -0.0367,0.01835 -0.07248,0.03395 -0.111933,0.04771 -0.09358,0.03578 -0.191754,0.06055 -0.2991,0.06055 -0.506451,0 -0.917484,-0.411032 -0.917484,-0.917483 0,-0.50645 0.411033,-0.917483 0.917484,-0.917483 0.506451,0 0.917484,0.411033 0.917484,0.917483 0,0.183497 -0.06698,0.344057 -0.159642,0.487184 z m 1.994608,25.202349 c -0.506451,0 -0.917483,-0.411032 -0.917483,-0.917483 0,-0.50645 0.411032,-0.917483 0.917483,-0.917483 0.506451,0 0.917484,0.411033 0.917484,0.917483 0,0.506451 -0.411033,0.917483 -0.917484,0.917483 z m 0,-5.5049 c -0.506451,0 -0.917483,-0.411032 -0.917483,-0.917483 0,-0.50645 0.411032,-0.917483 0.917483,-0.917483 0.506451,0 0.917484,0.411033 0.917484,0.917483 0,0.506451 -0.411033,0.917483 -0.917484,0.917483 z m 0,-5.5049 c -0.506451,0 -0.917483,-0.411032 -0.917483,-0.917483 0,-0.50645 0.411032,-0.917483 0.917483,-0.917483 0.506451,0 0.917484,0.411033 0.917484,0.917483 0,0.506451 -0.411033,0.917483 -0.917484,0.917483 z m 0,-5.5049 c -0.506451,0 -0.917483,-0.411032 -0.917483,-0.917483 0,-0.50645 0.411032,-0.917483 0.917483,-0.917483 0.506451,0 0.917484,0.411033 0.917484,0.917483 0,0.506451 -0.411033,0.917483 -0.917484,0.917483 z m 0,-5.5049 c -0.506451,0 -0.917483,-0.411032 -0.917483,-0.917483 0,-0.50645 0.411032,-0.917483 0.917483,-0.917483 0.506451,0 0.917484,0.411033 0.917484,0.917483 0,0.506451 -0.411033,0.917483 -0.917484,0.917483 z m 2.75245,24.77205 c -0.506451,0 -0.917483,-0.411032 -0.917483,-0.917483 0,-0.50645 0.411032,-0.917483 0.917483,-0.917483 0.506451,0 0.917484,0.411033 0.917484,0.917483 0,0.506451 -0.411033,0.917483 -0.917484,0.917483 z m 0,-5.5049 c -0.506451,0 -0.917483,-0.411032 -0.917483,-0.917483 0,-0.50645 0.411032,-0.917483 0.917483,-0.917483 0.506451,0 0.917484,0.411033 0.917484,0.917483 0,0.506451 -0.411033,0.917483 -0.917484,0.917483 z m 0,-5.5049 c -0.506451,0 -0.917483,-0.411032 -0.917483,-0.917483 0,-0.50645 0.411032,-0.917483 0.917483,-0.917483 0.506451,0 0.917484,0.411033 0.917484,0.917483 0,0.506451 -0.411033,0.917483 -0.917484,0.917483 z m 0,-5.5049 c -0.506451,0 -0.917483,-0.411032 -0.917483,-0.917483 0,-0.50645 0.411032,-0.917483 0.917483,-0.917483 0.506451,0 0.917484,0.411033 0.917484,0.917483 0,0.506451 -0.411033,0.917483 -0.917484,0.917483 z m 0,-5.5049 c -0.506451,0 -0.917483,-0.411032 -0.917483,-0.917483 0,-0.50645 0.411032,-0.917483 0.917483,-0.917483 0.506451,0 0.917484,0.411033 0.917484,0.917483 0,0.506451 -0.411033,0.917483 -0.917484,0.917483 z m 2.75245,24.77205 c -0.506451,0 -0.917483,-0.411032 -0.917483,-0.917483 0,-0.50645 0.411032,-0.917483 0.917483,-0.917483 0.506451,0 0.917484,0.411033 0.917484,0.917483 0,0.506451 -0.411033,0.917483 -0.917484,0.917483 z m 0,-5.5049 c -0.506451,0 -0.917483,-0.411032 -0.917483,-0.917483 0,-0.50645 0.411032,-0.917483 0.917483,-0.917483 0.506451,0 0.917484,0.411033 0.917484,0.917483 0,0.506451 -0.411033,0.917483 -0.917484,0.917483 z m 0,-5.5049 c -0.506451,0 -0.917483,-0.411032 -0.917483,-0.917483 0,-0.50645 0.411032,-0.917483 0.917483,-0.917483 0.506451,0 0.917484,0.411033 0.917484,0.917483 0,0.506451 -0.411033,0.917483 -0.917484,0.917483 z m 0,-5.5049 c -0.506451,0 -0.917483,-0.411032 -0.917483,-0.917483 0,-0.50645 0.411032,-0.917483 0.917483,-0.917483 0.506451,0 0.917484,0.411033 0.917484,0.917483 0,0.506451 -0.411033,0.917483 -0.917484,0.917483 z m 0,-5.5049 c -0.506451,0 -0.917483,-0.411032 -0.917483,-0.917483 0,-0.50645 0.411032,-0.917483 0.917483,-0.917483 0.506451,0 0.917484,0.411033 0.917484,0.917483 0,0.506451 -0.411033,0.917483 -0.917484,0.917483 z m 2.75245,24.77205 c -0.506451,0 -0.917483,-0.411032 -0.917483,-0.917483 0,-0.50645 0.411032,-0.917483 0.917483,-0.917483 0.506451,0 0.917484,0.411033 0.917484,0.917483 0,0.506451 -0.411033,0.917483 -0.917484,0.917483 z m 0,-5.5049 c -0.506451,0 -0.917483,-0.411032 -0.917483,-0.917483 0,-0.50645 0.411032,-0.917483 0.917483,-0.917483 0.506451,0 0.917484,0.411033 0.917484,0.917483 0,0.506451 -0.411033,0.917483 -0.917484,0.917483 z m 0,-5.5049 c -0.506451,0 -0.917483,-0.411032 -0.917483,-0.917483 0,-0.50645 0.411032,-0.917483 0.917483,-0.917483 0.506451,0 0.917484,0.411033 0.917484,0.917483 0,0.506451 -0.411033,0.917483 -0.917484,0.917483 z m 0,-5.5049 c -0.506451,0 -0.917483,-0.411032 -0.917483,-0.917483 0,-0.50645 0.411032,-0.917483 0.917483,-0.917483 0.506451,0 0.917484,0.411033 0.917484,0.917483 0,0.506451 -0.411033,0.917483 -0.917484,0.917483 z m 0,-5.5049 c -0.506451,0 -0.917483,-0.411032 -0.917483,-0.917483 0,-0.50645 0.411032,-0.917483 0.917483,-0.917483 0.506451,0 0.917484,0.411033 0.917484,0.917483 0,0.506451 -0.411033,0.917483 -0.917484,0.917483 z m 0.757842,-5.935199 0,0 0,0 c -0.06514,0.100924 -0.14588,0.184414 -0.244968,0.253225 -0.03303,0.02477 -0.06606,0.04955 -0.101841,0.06881 -0.0367,0.01835 -0.07248,0.03395 -0.111933,0.04771 -0.09358,0.03578 -0.191754,0.06055 -0.2991,0.06055 -0.506451,0 -0.917483,-0.411032 -0.917483,-0.917483 0,-0.50645 0.411032,-0.917483 0.917483,-0.917483 0.506451,0 0.917484,0.411033 0.917484,0.917483 0,0.183497 -0.06698,0.344057 -0.159642,0.487184 z M 24.771252,52.637879 2.9360654,41.720745 23.869366,30.834804 46.543131,41.751939 24.771252,52.637879 z m 22.937083,17.890925 -22.0196,11.0098 V 54.23063 l 22.0196,-11.0098 v 27.307974 z"
     id="path3"
     style="fill:#036cd0;fill-opacity:1;fill-rule:nonzero" /><text
     xml:space="preserve"
     style="font-size:6.60356236px;font-style:normal;font-weight:normal;line-height:125%;letter-spacing:0px;word-spacing:0px;fill:#0361d7;fill-opacity:1;stroke:none;font-family:Sans"
     x="-16.98735"
     y="78.715279"
     id="text3035"
     sodipodi:linespacing="125%"
     transform="matrix(0.82094481,-0.57100755,0.57100755,0.82094481,0,0)"><tspan
       sodipodi:role="line"
       id="tspan3037"
       x="-16.98735"
       y="78.715279"
       style="font-size:23.77282715px;fill:#0361d7;fill-opacity:1">@</tspan></text>
</svg>