<?xml version="1.0" encoding="UTF-8" standalone="no"?>
<!-- Generator: Adobe Illustrator 16.0.0, SVG Export Plug-In . SVG Version: 6.00 Build 0)  -->

<svg
   xmlns:dc="http://purl.org/dc/elements/1.1/"
   xmlns:cc="http://creativecommons.org/ns#"
   xmlns:rdf="http://www.w3.org/1999/02/22-rdf-syntax-ns#"
   xmlns:svg="http://www.w3.org/2000/svg"
   xmlns="http://www.w3.org/2000/svg"
   xmlns:sodipodi="http://sodipodi.sourceforge.net/DTD/sodipodi-0.dtd"
   xmlns:inkscape="http://www.inkscape.org/namespaces/inkscape"
   version="1.1"
   id="Capa_1"
   x="0px"
   y="0px"
   width="1056.0443"
   height="637.08618"
   viewBox="0 0 113.54127 68.497962"
   xml:space="preserve"
   inkscape:version="0.48.4 r9939"
   sodipodi:docname="logo__.svg"><metadata
     id="metadata51"><rdf:RDF><cc:Work
         rdf:about=""><dc:format>image/svg+xml</dc:format><dc:type
           rdf:resource="http://purl.org/dc/dcmitype/StillImage" /><dc:title /></cc:Work></rdf:RDF></metadata><defs
     id="defs49" /><sodipodi:namedview
     pagecolor="#ffffff"
     bordercolor="#666666"
     borderopacity="1"
     objecttolerance="10"
     gridtolerance="10"
     guidetolerance="10"
     inkscape:pageopacity="0"
     inkscape:pageshadow="2"
     inkscape:window-width="1797"
     inkscape:window-height="948"
     id="namedview47"
     showgrid="false"
     fit-margin-top="0"
     fit-margin-left="0"
     fit-margin-right="0"
     fit-margin-bottom="0"
     inkscape:zoom="0.65186406"
     inkscape:cx="816.1458"
     inkscape:cy="201.70496"
     inkscape:window-x="57"
     inkscape:window-y="34"
     inkscape:window-maximized="0"
     inkscape:current-layer="Capa_1" /><g
     id="g3"
     transform="translate(46.466193,-4.0225754)"><g
       id="g5"
       style="fill:#0061d7;fill-opacity:1"
       transform="translate(0,-8.3863726)"><path
         d="m 34.362995,68.44036 0,-0.04 c 1.616,-0.565 2.424,-1.696 2.424,-3.071 0,-1.718 -1.394,-3.213 -4.102,-3.213 -1.576,0 -3.031,0.485 -3.778,1.01 l 0.566,1.799 c 0.545,-0.363 1.616,-0.828 2.687,-0.828 1.434,0 2.101,0.748 2.101,1.636 0,1.313 -1.455,1.839 -2.606,1.839 l -1.111,0 0,1.818 1.151,0 c 1.516,0 2.97,0.667 2.97,2.222 0.02,1.031 -0.748,2.103 -2.646,2.103 -1.252,0 -2.663481,-0.274207 -3.168481,-0.578207 0,0 -1.449317,-0.786588 -2.326075,-1.126951 -2.617912,-1.016292 -5.497578,2.364061 -5.497578,2.364061 l -0.453079,1.375732 c 0,0 0.06289,0.251991 1.593682,-0.427527 0.911929,-0.404805 2.317632,-2.113369 3.712204,-1.685897 1.08787,0.33346 2.583327,1.148787 2.583327,1.148787 0.794472,0.494157 2.081,0.908 3.677,0.908 3.253,0 5.112,-1.757 5.112,-3.979 0,-1.779 -1.293,-2.991 -2.889,-3.274 z"
         id="path15"
         style="fill:#0061d7;fill-opacity:1"
         inkscape:connector-curvature="0"
         sodipodi:nodetypes="ccssccsssccscscsccsscsscc" /><path
         style="fill:#0361d7;fill-opacity:1"
         inkscape:connector-curvature="0"
         d="m 54.142579,31.715948 -16.75,0 0,-7.417 -11.668,0 0,7.417 -16.7489999,0 c -0.875,0 -1.584,0.709 -1.584,1.582999 0,0.874 0.709,1.583 1.584,1.583 l 16.7489999,0 0,7.417 3.905,0 0,2.403001 c 0,0.562999 0.247,1.066999 0.634001,1.42 -0.251001,0.042 -0.514001,0.075 -0.776001,0.103999 -1.123999,0.131001 -2.398,0.279001 -2.667,1.472001 l -0.012,0.101 c -0.006,0.323 0.113001,0.609999 0.344,0.832 0.716,0.687999 2.333939,0.629966 4.917,0.476999 2.026939,-0.120033 4.550526,-0.268576 5.296,0.412 0.127528,0.116426 0.187191,0.250024 0.193,0.432 0.03119,0.977027 -1.524993,1.174088 -3.730001,1.346 -1.783992,0.139088 -3.466874,0.271106 -4.239999,1.178 -0.301875,0.354107 -0.593337,0.891425 -0.391999,1.295 0.428363,0.858639 1.828212,0.674248 2.77279,0.77582 2.942004,0.316359 5.193337,0.281978 5.020092,2.080736 -0.09117,0.946551 -1.887498,0.503029 -3.14151,0.370706 -1.484051,-0.156597 -2.488848,-0.0642 -3.008522,0.617467 -0.66926,0.877888 -0.589557,1.830698 -0.09826,2.205361 2.16072,0.312906 4.478218,0.87641 4.871746,1.434655 0.494668,0.701718 -1.287473,1.104876 -0.607347,2.529577 0.04134,2.127909 1.092549,2.071863 1.056403,0.07928 -0.0036,-0.200726 0.06105,-0.442748 0.03141,-0.682035 0.99797,-1.123284 0.579974,-2.033141 0.154039,-2.55869 -1.343277,-1.65743 -5.32448,-0.944482 -4.918406,-2.005827 0.263252,-0.688057 1.752634,-0.573266 2.388464,-0.53811 0.494416,0.02734 3.374175,0.346621 4.233808,-0.804286 0.435463,-0.583013 0.253298,-1.617692 -0.217976,-2.172159 -1.649792,-1.941023 -7.784913,-1.381459 -7.381737,-1.978491 0.433535,-0.641989 2.123971,-0.717361 3.555999,-0.828999 2.210972,-0.172363 4.71992,-0.367032 4.652,-2.376 -0.01508,-0.446032 -0.194091,-0.8388 -0.52,-1.136001 -1.059094,-0.965802 -3.584038,-0.816641 -6.028,-0.672 -1.645038,0.09736 -3.685999,0.219001 -4.187,-0.275999 0.163,-0.396001 0.793,-0.497 1.779,-0.61 0.784,-0.092 1.64,-0.197 2.269,-0.623 0.916,-0.149 1.617,-0.938001 1.617,-1.896001 l 0,-2.403999 3.904,0 0,-7.417 16.75,0 c 0.874,0 1.583001,-0.709 1.583001,-1.583001 0,-0.874 -0.710001,-1.586999 -1.584001,-1.586999 z"
         sodipodi:nodetypes="cccccssscccscccccsssssssssscscscsssaassssscccscccsssc"
         id="path9" /><path
         style="fill:#0361d7;fill-opacity:1"
         inkscape:connector-curvature="0"
         id="path11"
         d="m 24.601579,28.610948 h 0.332001 v -3.375001 h -0.332001 c -0.933,0 -1.688,0.755001 -1.688,1.688 0,0.933 0.755,1.687001 1.688,1.687001 z" /><path
         style="fill:#0361d7;fill-opacity:1"
         inkscape:connector-curvature="0"
         id="path13"
         d="m 37.912579,25.235947 v 3.375001 h 0.332 c 0.934,0 1.688,-0.755001 1.688,-1.688 0,-0.933 -0.755,-1.688001 -1.688,-1.688001 l -0.332,9.68e-4 0,0 z" /><path
         style="fill:#0361d7;fill-opacity:1"
         inkscape:connector-curvature="0"
         id="path16"
         d="m 32.408579,23.920947 0.275,-0.003 c -0.021,-1.668999 0.362999,-2.868999 1.172,-3.668999 1.537,-1.518 4.520999,-1.448 7.406,-1.375 3.006999,0.073 6.118,0.148 7.789999,-1.607 0.938001,-0.985 1.324001,-2.411 1.182,-4.357 l -0.996,0.073 c 0.120001,1.649 -0.176999,2.825 -0.908,3.594 -0.895999,0.939 -2.389999,1.232 -4.130999,1.304 0.390999,-0.204 0.751999,-0.454 1.06,-0.787 0.93,-1.007 1.305999,-2.54 1.149,-4.685 l -0.998001,0.073 c 0.137,1.854 -0.153999,3.141 -0.886999,3.934 -1.104,1.193 -3.150001,1.205 -5.318,1.217 -2.357001,0.014 -4.795,0.028 -6.337,1.598 -1.009,1.026 -1.484999,2.571 -1.458999,4.722 l 0.999999,-0.013 c -9.68e-4,-0.007 0,-0.012 0,-0.019 z" /><text
         xml:space="preserve"
         style="font-size:12.58148098px;font-style:normal;font-weight:normal;line-height:125%;letter-spacing:0px;word-spacing:0px;fill:#000000;fill-opacity:1;stroke:none;font-family:Sans"
         x="26.202744"
         y="60.252274"
         id="text3826"
         sodipodi:linespacing="125%"
         transform="scale(1.0190765,0.98128061)"><tspan
           sodipodi:role="line"
           id="tspan3828"
           x="26.202744"
           y="60.252274"
           style="fill:#0361cd;fill-opacity:1" /></text>
<rect
         style="fill:#0361d7;fill-opacity:1"
         id="rect3830"
         width="1.2370399"
         height="15.380528"
         x="45.435318"
         y="60.043621" /><text
         xml:space="preserve"
         style="font-size:14.68595219px;font-style:normal;font-weight:normal;line-height:125%;letter-spacing:0px;word-spacing:0px;fill:#0361d7;fill-opacity:1;stroke:none;font-family:Sans"
         x="34.950027"
         y="80.64949"
         id="text3832"
         sodipodi:linespacing="125%"
         transform="scale(1.0647716,0.93916855)"><tspan
           sodipodi:role="line"
           id="tspan3834"
           x="34.950027"
           y="80.64949"
           style="fill:#0361d7;fill-opacity:1">o</tspan></text>
<rect
         style="fill:#0361d7;fill-opacity:1"
         id="rect3857"
         width="1.3195091"
         height="20.204985"
         x="48.581081"
         y="60.662144" /><rect
         style="fill:#0361d7;fill-opacity:1"
         id="rect3880"
         width="18.494743"
         height="1.1442618"
         x="48.581356"
         y="79.76265" /></g></g><g
     id="g17"
     transform="translate(46.466193,-4.0225754)" /><g
     id="g19"
     transform="translate(46.466193,-4.0225754)" /><g
     id="g21"
     transform="translate(46.466193,-4.0225754)" /><g
     id="g23"
     transform="translate(46.466193,-4.0225754)" /><g
     id="g25"
     transform="translate(46.466193,-4.0225754)" /><g
     id="g27"
     transform="translate(46.466193,-4.0225754)" /><g
     id="g29"
     transform="translate(46.466193,-4.0225754)" /><g
     id="g31"
     transform="translate(46.466193,-4.0225754)" /><g
     id="g33"
     transform="translate(46.466193,-4.0225754)" /><g
     id="g35"
     transform="translate(46.466193,-4.0225754)" /><g
     id="g37"
     transform="translate(46.466193,-4.0225754)" /><g
     id="g39"
     transform="translate(46.466193,-4.0225754)" /><g
     id="g41"
     transform="translate(46.466193,-4.0225754)" /><g
     id="g43"
     transform="translate(46.466193,-4.0225754)" /><g
     id="g45"
     transform="translate(46.466193,-4.0225754)" /><path
     inkscape:connector-curvature="0"
     d="m 49.543011,42.312273 c -3.2e-5,0.01467 -0.0055,0.02752 -0.0064,0.04219 -0.0038,0.06789 -0.01201,0.133942 -0.02947,0.198159 -0.0083,0.02752 -0.02113,0.05229 -0.03214,0.07889 -0.01929,0.04954 -0.03766,0.09723 -0.06519,0.142184 -0.01653,0.02753 -0.03764,0.05136 -0.056,0.07613 -0.02939,0.03943 -0.05967,0.07795 -0.09455,0.111891 -0.02388,0.02293 -0.05143,0.04307 -0.078,0.06329 -0.0248,0.01924 -0.04589,0.04219 -0.07249,0.05963 -0.01564,0.0092 -0.03303,0.01375 -0.04864,0.022 -0.01283,0.0074 -0.02297,0.01739 -0.03672,0.02382 l -24.77694,11.917099 c -0.260618,0.125584 -0.565218,0.120875 -0.821142,-0.01319 L 0.49312853,43.097633 c -0.01008,-0.0055 -0.01647,-0.0138 -0.02657,-0.01931 -0.01008,-0.0055 -0.02201,-0.0083 -0.03302,-0.01469 -0.0312,-0.01928 -0.05501,-0.04501 -0.08346,-0.06793 -0.02661,-0.02111 -0.05503,-0.0404 -0.0798,-0.06425 -0.03484,-0.03488 -0.0624,-0.07339 -0.09078,-0.112887 -0.01832,-0.02571 -0.04034,-0.04866 -0.05594,-0.07618 -0.02843,-0.04865 -0.04767,-0.100939 -0.066,-0.154164 -0.0083,-0.02293 -0.02015,-0.04313 -0.02658,-0.06699 -0.02016,-0.07433 -0.03205,-0.154151 -0.03201,-0.235808 l 0.01203,-29.359453 c 1.48e-4,-0.347728 0.196613,-0.665096 0.507707,-0.820941 L 24.378197,0.18757114 c 0.01373,-0.0064 0.02845,-0.0037 0.0422,-0.01008 0.118374,-0.05133 0.241334,-0.08614 0.367947,-0.08609 0.126611,4.8e-5 0.250454,0.03498 0.367875,0.08731 0.01376,0.0064 0.02935,0.0037 0.04219,0.01013 L 49.048075,12.125948 c 0.310962,0.155181 0.507174,0.47271 0.507031,0.820439 l -0.0121,29.359464 c 0,9.65e-4 1.2e-5,0.0018 -5.3e-5,0.0037 -1e-6,9.67e-4 1.2e-5,0.0018 4.8e-5,0.0028 z M 3.6798075,15.679933 c -0.506451,-2.1e-4 -0.917654,0.410654 -0.917863,0.917105 -2.11e-4,0.506451 0.410655,0.917653 0.917105,0.917864 0.50645,2.09e-4 0.917652,-0.410655 0.917861,-0.917104 2.1e-4,-0.506451 -0.410654,-0.917652 -0.917104,-0.917863 z m -0.0023,5.504901 c -0.506451,-2.11e-4 -0.917656,0.410654 -0.917863,0.917104 -2.1e-4,0.50645 0.410655,0.917652 0.917104,0.917863 0.506452,2.1e-4 0.917653,-0.410655 0.917863,-0.917105 2.09e-4,-0.506451 -0.410655,-0.917652 -0.917104,-0.917862 z m -0.0023,5.5049 c -0.506451,-2.1e-4 -0.917654,0.410653 -0.917863,0.917104 -2.09e-4,0.50645 0.410656,0.917653 0.917104,0.917862 0.506452,2.11e-4 0.917653,-0.410655 0.917862,-0.917103 2.11e-4,-0.506451 -0.410653,-0.917652 -0.917104,-0.917861 z m -0.0023,5.504898 c -0.506451,-2.09e-4 -0.917655,0.410655 -0.917864,0.917105 -2.1e-4,0.50645 0.410657,0.917653 0.917105,0.917864 0.506451,2.1e-4 0.917652,-0.410655 0.917862,-0.917104 2.11e-4,-0.506451 -0.410653,-0.917652 -0.917104,-0.917862 z m -0.0023,5.5049 c -0.506451,-2.1e-4 -0.917655,0.410654 -0.917864,0.917106 -2.09e-4,0.506448 0.410656,0.917651 0.917105,0.917862 0.506451,2.1e-4 0.917652,-0.410655 0.917862,-0.917104 2.1e-4,-0.50645 -0.410654,-0.917653 -0.917104,-0.917862 z m 2.762784,-24.770914 c -0.506452,-2.11e-4 -0.917653,0.410655 -0.917863,0.917104 -2.1e-4,0.50645 0.410654,0.917653 0.917104,0.917863 0.50645,2.1e-4 0.917653,-0.410655 0.917862,-0.917104 2.1e-4,-0.506452 -0.410654,-0.917653 -0.917104,-0.917863 z m -0.0023,5.5049 c -0.506451,-2.1e-4 -0.917652,0.410654 -0.917863,0.917104 -2.09e-4,0.50645 0.410655,0.917652 0.917105,0.917863 0.50645,2.1e-4 0.917652,-0.410656 0.917862,-0.917104 2.1e-4,-0.506451 -0.410653,-0.917653 -0.917104,-0.917862 z m -0.0023,5.504899 c -0.506451,-2.1e-4 -0.917653,0.410654 -0.917863,0.917104 -2.1e-4,0.506451 0.410654,0.917653 0.917105,0.917863 0.50645,2.1e-4 0.917652,-0.410655 0.917861,-0.917103 2.11e-4,-0.506452 -0.410654,-0.917654 -0.917104,-0.917863 z m -0.0023,5.5049 c -0.506452,-2.1e-4 -0.917654,0.410653 -0.917862,0.917105 -2.11e-4,0.506449 0.410653,0.917651 0.917103,0.917861 0.506452,2.1e-4 0.917652,-0.410654 0.917862,-0.917104 2.1e-4,-0.506451 -0.410654,-0.917652 -0.917104,-0.917862 z m -0.0023,5.5049 c -0.506453,-2.1e-4 -0.917654,0.410654 -0.917863,0.917104 -2.1e-4,0.50645 0.410654,0.917653 0.917104,0.917862 0.506451,2.11e-4 0.917652,-0.410654 0.917861,-0.917103 2.11e-4,-0.50645 -0.410653,-0.917652 -0.917103,-0.917861 z m 2.762782,-24.770915 c -0.506449,-2.09e-4 -0.917653,0.410655 -0.917862,0.917105 -2.1e-4,0.50645 0.410656,0.917652 0.917104,0.917863 0.506451,2.1e-4 0.9176535,-0.410654 0.9178625,-0.917104 2.11e-4,-0.506451 -0.4106535,-0.917652 -0.9171045,-0.917863 z m -0.0023,5.504901 c -0.50645,-2.11e-4 -0.917654,0.410652 -0.917863,0.917104 -2.1e-4,0.506449 0.410655,0.917651 0.917104,0.917862 0.506452,2.1e-4 0.9176545,-0.410655 0.9178635,-0.917104 2.1e-4,-0.506451 -0.4106555,-0.917653 -0.9171045,-0.917862 z m -0.0023,5.504899 c -0.506451,-2.11e-4 -0.917654,0.410654 -0.917863,0.917104 -2.1e-4,0.50645 0.410655,0.917653 0.917104,0.917862 0.506452,2.11e-4 0.9176535,-0.410654 0.9178635,-0.917104 2.09e-4,-0.506451 -0.4106555,-0.917652 -0.9171045,-0.917862 z m -0.0023,5.504899 c -0.506449,-2.1e-4 -0.917652,0.410654 -0.917862,0.917104 -2.1e-4,0.50645 0.410657,0.917653 0.917104,0.917863 0.506452,2.1e-4 0.9176545,-0.410656 0.9178635,-0.917105 2.1e-4,-0.50645 -0.4106545,-0.917652 -0.9171055,-0.917862 z m -0.0023,5.5049 c -0.50645,-2.1e-4 -0.917654,0.410653 -0.917863,0.917104 -2.1e-4,0.506451 0.410657,0.917653 0.917105,0.917863 0.506451,2.09e-4 0.9176535,-0.410655 0.9178625,-0.917104 2.1e-4,-0.506451 -0.4106535,-0.917653 -0.9171045,-0.917863 z M 11.94056,7.4259846 c -0.506451,-2.1e-4 -0.917654,0.4106545 -0.917864,0.917106 -2.09e-4,0.506448 0.410656,0.9176515 0.917104,0.9178625 0.506452,2.1e-4 0.917655,-0.4106555 0.917863,-0.9171055 2.1e-4,-0.5064515 -0.410654,-0.917653 -0.917104,-0.917863 z m -0.0023,5.5049024 c -0.506451,-2.1e-4 -0.917653,0.410654 -0.917862,0.917104 -2.09e-4,0.506451 0.410656,0.917653 0.917104,0.917863 0.506452,2.11e-4 0.917654,-0.410654 0.917863,-0.917105 2.1e-4,-0.50645 -0.410655,-0.917652 -0.917105,-0.917863 z m -0.0023,5.504899 c -0.506451,-2.1e-4 -0.917653,0.410654 -0.917863,0.917105 -2.1e-4,0.506448 0.410655,0.917652 0.917105,0.917863 0.506451,2.09e-4 0.917654,-0.410656 0.917862,-0.917105 2.1e-4,-0.506451 -0.410655,-0.917653 -0.917105,-0.917864 z m -0.0023,5.504901 c -0.506451,-2.11e-4 -0.917654,0.410652 -0.917862,0.917104 -2.1e-4,0.506449 0.410654,0.917652 0.917104,0.917862 0.506453,2.1e-4 0.917655,-0.410656 0.917863,-0.917106 2.11e-4,-0.506452 -0.410654,-0.917653 -0.917104,-0.917863 z m -0.0023,5.504898 c -0.506451,-2.1e-4 -0.917653,0.410655 -0.917862,0.917104 -2.11e-4,0.50645 0.410655,0.917653 0.917104,0.917863 0.506452,2.1e-4 0.917655,-0.410656 0.917862,-0.917105 2.11e-4,-0.506451 -0.410654,-0.917653 -0.917104,-0.917863 z m 0.755398,5.935511 0,0 0,0 c -0.0651,-0.100949 -0.145806,-0.184473 -0.244831,-0.253356 -0.03304,-0.02476 -0.06604,-0.04957 -0.101816,-0.06885 -0.03669,-0.01836 -0.07246,-0.03398 -0.111909,-0.04776 -0.09356,-0.03583 -0.191728,-0.06063 -0.299075,-0.06067 -0.506451,-2.11e-4 -0.917654,0.410652 -0.917862,0.917104 -2.11e-4,0.506449 0.410654,0.917651 0.917103,0.917861 0.506453,2.11e-4 0.917655,-0.410655 0.917863,-0.917105 7.9e-5,-0.183497 -0.06684,-0.344084 -0.159442,-0.48725 z m 2.005119,-25.201525 c -0.506451,-2.1e-4 -0.917652,0.410653 -0.917862,0.917104 -2.1e-4,0.50645 0.410654,0.917651 0.917103,0.917861 0.506454,2.11e-4 0.917656,-0.410655 0.917864,-0.917105 2.09e-4,-0.50645 -0.410655,-0.917652 -0.917105,-0.917863 z m -0.0023,5.5049 c -0.506451,-2.11e-4 -0.917652,0.410653 -0.917861,0.917104 -2.11e-4,0.50645 0.410655,0.917653 0.917104,0.917862 0.506452,2.1e-4 0.917654,-0.410655 0.917862,-0.917105 2.1e-4,-0.506451 -0.410654,-0.917653 -0.917104,-0.917863 z m -0.0023,5.504899 c -0.506451,-2.11e-4 -0.917652,0.410654 -0.917863,0.917104 -2.1e-4,0.506449 0.410654,0.917651 0.917104,0.917862 0.506451,2.1e-4 0.917654,-0.410655 0.917863,-0.917105 2.09e-4,-0.506451 -0.410655,-0.917652 -0.917105,-0.917864 z m -0.0023,5.5049 c -0.506451,-2.1e-4 -0.917654,0.410653 -0.917862,0.917103 -2.1e-4,0.506451 0.410653,0.917653 0.917104,0.917862 0.506452,2.11e-4 0.917654,-0.410655 0.917863,-0.917104 2.1e-4,-0.506452 -0.410655,-0.917653 -0.917105,-0.917863 z m -0.0023,5.504898 c -0.506451,-2.09e-4 -0.917652,0.410656 -0.917862,0.917104 -2.1e-4,0.50645 0.410653,0.917653 0.917103,0.917862 0.506453,2.11e-4 0.917656,-0.410654 0.917863,-0.917105 2.1e-4,-0.506451 -0.410655,-0.917652 -0.917105,-0.917863 z m 2.76266,-24.7709154 c -0.506451,-2.11e-4 -0.917653,0.4106555 -0.917862,0.917105 -2.1e-4,0.506451 0.410653,0.9176535 0.917104,0.9178625 0.50645,2.11e-4 0.917654,-0.4106545 0.917863,-0.9171045 2.1e-4,-0.5064515 -0.410655,-0.917653 -0.917105,-0.917864 z m -0.0023,5.5049014 c -0.506451,-2.09e-4 -0.917654,0.410655 -0.917863,0.917105 -2.09e-4,0.50645 0.410654,0.917652 0.917104,0.917862 0.506451,2.11e-4 0.917655,-0.410655 0.917864,-0.917105 2.09e-4,-0.50645 -0.410658,-0.917652 -0.917106,-0.917864 z m -0.0023,5.504901 c -0.506453,-2.1e-4 -0.917654,0.410653 -0.917863,0.917105 -2.09e-4,0.506449 0.410655,0.917653 0.917105,0.917862 0.506451,2.11e-4 0.917655,-0.410653 0.917863,-0.917104 2.09e-4,-0.50645 -0.410656,-0.917652 -0.917104,-0.917862 z m -0.0023,5.504899 c -0.506452,-2.11e-4 -0.917653,0.410655 -0.917863,0.917105 -2.09e-4,0.506448 0.410654,0.917652 0.917105,0.917862 0.50645,2.1e-4 0.917654,-0.410655 0.917863,-0.917104 2.1e-4,-0.506451 -0.410655,-0.917652 -0.917105,-0.917863 z m -0.0023,5.5049 c -0.506451,-2.1e-4 -0.917652,0.410654 -0.917862,0.917104 -2.09e-4,0.506449 0.410654,0.917651 0.917105,0.917862 0.50645,2.11e-4 0.917654,-0.410655 0.917863,-0.917104 2.1e-4,-0.506452 -0.410656,-0.917653 -0.917106,-0.917864 z M 20.199051,4.6769354 c -0.506452,-2.1e-4 -0.917655,0.4106537 -0.917863,0.9171057 -2.1e-4,0.5064495 0.410656,0.917653 0.917105,0.917863 0.50645,2.1e-4 0.917652,-0.4106555 0.917862,-0.917105 2.1e-4,-0.50645 -0.410654,-0.9176527 -0.917104,-0.9178627 z m -0.0023,5.5049046 c -0.50645,-2.1e-4 -0.917652,0.410653 -0.917862,0.917104 -2.1e-4,0.506449 0.410655,0.917651 0.917104,0.917862 0.50645,2.1e-4 0.917652,-0.410654 0.917862,-0.917104 2.1e-4,-0.506452 -0.410654,-0.917653 -0.917105,-0.917863 z m -0.0023,5.504899 c -0.50645,-2.1e-4 -0.917653,0.410654 -0.917862,0.917104 -2.1e-4,0.506449 0.410654,0.917652 0.917105,0.917862 0.50645,2.11e-4 0.917653,-0.410654 0.917862,-0.917104 2.1e-4,-0.50645 -0.410656,-0.917652 -0.917104,-0.917863 z m -0.0023,5.5049 c -0.506451,-2.11e-4 -0.917654,0.410653 -0.917862,0.917104 -2.1e-4,0.506449 0.410655,0.917652 0.917104,0.917862 0.506451,2.1e-4 0.917653,-0.410655 0.917862,-0.917104 2.1e-4,-0.506452 -0.410655,-0.917653 -0.917104,-0.917862 z m -0.0023,5.504899 c -0.506451,-2.11e-4 -0.917654,0.410654 -0.917862,0.917105 -2.11e-4,0.506449 0.410655,0.917652 0.917104,0.917863 0.506451,2.08e-4 0.917653,-0.410655 0.917863,-0.917105 2.1e-4,-0.506451 -0.410655,-0.917652 -0.917104,-0.917862 z M 22.952634,1.9256172 c -0.50645,-2.1e-4 -0.917652,0.4106535 -0.917861,0.917104 -2.11e-4,0.5064515 0.410654,0.9176537 0.917104,0.9178627 0.506452,2.11e-4 0.917654,-0.4106552 0.917863,-0.9171057 2.1e-4,-0.5064505 -0.410655,-0.917654 -0.917105,-0.917864 z m -0.0023,5.5049034 c -0.506452,-2.09e-4 -0.917653,0.4106545 -0.917862,0.917105 -2.11e-4,0.506449 0.410654,0.9176535 0.917103,0.9178625 0.506452,2.1e-4 0.917654,-0.4106545 0.917863,-0.9171055 2.1e-4,-0.5064515 -0.410655,-0.917653 -0.917104,-0.917863 z m -0.0023,5.5049024 c -0.50645,-2.1e-4 -0.917652,0.410653 -0.917862,0.917104 -2.1e-4,0.506449 0.410655,0.917652 0.917104,0.917862 0.506451,2.09e-4 0.917653,-0.410656 0.917863,-0.917105 2.1e-4,-0.50645 -0.410655,-0.917651 -0.917105,-0.917862 z m -0.0023,5.5049 c -0.50645,-2.1e-4 -0.917651,0.410654 -0.917862,0.917103 -2.1e-4,0.506451 0.410653,0.917652 0.917104,0.917862 0.506451,2.09e-4 0.917653,-0.410655 0.917862,-0.917104 2.11e-4,-0.506452 -0.410654,-0.917652 -0.917104,-0.917863 z m -0.0023,5.504899 c -0.50645,-2.1e-4 -0.917653,0.410654 -0.917862,0.917104 -2.1e-4,0.50645 0.410653,0.917651 0.917103,0.917861 0.506452,2.1e-4 0.917654,-0.410654 0.917863,-0.917105 2.1e-4,-0.50645 -0.410656,-0.917652 -0.917105,-0.917862 z m 0.755396,5.935511 0,0 0,0 c -0.0651,-0.100949 -0.145806,-0.184472 -0.244831,-0.253356 -0.03304,-0.02476 -0.06603,-0.04957 -0.101815,-0.06885 -0.03669,-0.01836 -0.07246,-0.03398 -0.11191,-0.04776 -0.09356,-0.03582 -0.191727,-0.06063 -0.299075,-0.06068 -0.50645,-2.09e-4 -0.917651,0.410655 -0.917862,0.917104 -2.1e-4,0.50645 0.410653,0.917652 0.917104,0.917862 0.506451,2.1e-4 0.917654,-0.410655 0.917862,-0.917104 8e-5,-0.183498 -0.06684,-0.344085 -0.159441,-0.48725 z M 24.775459,31.394106 2.9357685,42.302243 23.864588,53.196808 46.542848,42.289017 24.775459,31.394106 z M 47.719911,13.512635 25.70485,2.4937557 25.693597,29.801734 47.708658,40.820606 47.719911,13.512635 z"
     id="path3"
     style="fill:#036cd0;fill-opacity:1;fill-rule:nonzero" /><text
     xml:space="preserve"
     style="font-size:6.60356236px;font-style:normal;font-weight:normal;line-height:125%;letter-spacing:0px;word-spacing:0px;fill:#0361d7;fill-opacity:1;stroke:none;font-family:Sans"
     x="39.334354"
     y="71.290588"
     id="text3035"
     sodipodi:linespacing="125%"
     transform="matrix(0.98599844,-0.16675453,0.16675453,0.98599844,0,0)"><tspan
       sodipodi:role="line"
       id="tspan3037"
       x="39.334354"
       y="71.290588"
       style="font-size:23.77282715px;fill:#0361d7;fill-opacity:1">@</tspan></text>
</svg>