<?xml version="1.0" encoding="iso-8859-1"?>
<!-- Generator: Adobe Illustrator 19.0.0, SVG Export Plug-In . SVG Version: 6.00 Build 0)  -->
<svg xmlns="http://www.w3.org/2000/svg" xmlns:xlink="http://www.w3.org/1999/xlink" version="1.1" id="Layer_1" x="0px" y="0px" viewBox="0 0 504 504" style="enable-background:new 0 0 504 504;" xml:space="preserve" width="512px" height="512px">
<g>
	<g>
		<path d="M252,111.2c-2.4,0-4,1.6-4,4v366c0,2.4,1.6,4,4,4c2.4,0,4-2,4-4v-366C256,112.8,254.4,111.2,252,111.2z" fill="#006DF0"/>
	</g>
</g>
<g>
	<g>
		<path d="M252,44c-2.4,0-4,1.6-4,4v31.6c0,2.4,1.6,4,4,4c2.4,0,4-2,4-4V48C256,45.6,254.4,44,252,44z" fill="#006DF0"/>
	</g>
</g>
<g>
	<g>
		<path d="M98.4,204.4c0-2.4-1.6-4-4-4c-2.4,0-4,1.6-4,4l0.4,184.8c0,2.4,1.6,4,4,4c2,0,4-1.6,4-4L98.4,204.4z" fill="#006DF0"/>
	</g>
</g>
<g>
	<g>
		<path d="M409.2,200c-2.4,0-4,1.6-4,4v185.2c0,2.4,1.6,4,4,4c2,0,4-2,4-4V204C413.2,201.6,411.6,200,409.2,200z" fill="#006DF0"/>
	</g>
</g>
<g>
	<g>
		<path d="M252,18.8c-8.8,0-16,7.2-16,16s7.2,16,16,16s16-7.2,16-16S260.8,18.8,252,18.8z M252,42.8c-4.4,0-8-3.6-8-8s3.6-8,8-8    c4.4,0,8,3.6,8,8S256.4,42.8,252,42.8z" fill="#006DF0"/>
	</g>
</g>
<g>
	<g>
		<path d="M15.6,420.8C7.2,420.8,0,428,0,436.4c0,8.4,6.8,15.6,15.6,15.6c8.8,0,15.6-7.2,15.6-15.6C31.2,428,24.4,420.8,15.6,420.8z     M15.6,444c-4,0-7.6-3.6-7.6-7.6s3.2-7.6,7.6-7.6c4.4,0,7.6,3.6,7.6,7.6S19.6,444,15.6,444z" fill="#006DF0"/>
	</g>
</g>
<g>
	<g>
		<path d="M366,229.6c-1.2-2-3.6-2.8-5.6-1.6L92.8,385.6c-2,1.2-2.8,3.6-1.6,5.6c0.8,1.2,2.4,2,3.6,2c0.8,0,1.2,0,2-0.4l267.6-157.6    C366.4,234,367.2,231.6,366,229.6z" fill="#006DF0"/>
	</g>
</g>
<g>
	<g>
		<path d="M72,403.2c-1.2-2-3.6-2.8-5.6-1.6L24,426.8c-2,1.2-2.8,3.6-1.6,5.6c0.8,1.2,2.4,2,3.6,2c0.4,0,1.2-0.4,2-0.8l42.4-24.8    C72.4,407.6,73.2,405.2,72,403.2z" fill="#006DF0"/>
	</g>
</g>
<g>
	<g>
		<path d="M410.8,385.2L96.4,200.4c-2-0.8-4.8-0.4-5.6,1.6c-0.8,2-0.4,4.4,1.6,5.6l314.8,185.2c0.8,0.4,1.2,0.4,2,0.4    c1.2,0,2.4-0.8,3.2-2.4C413.2,388.8,412.8,386.4,410.8,385.2z" fill="#006DF0"/>
	</g>
</g>
<g>
	<g>
		<path d="M412.8,387.2c-1.2-2-3.6-2.8-5.6-1.6l-157.2,92c-2,1.2-2.8,3.6-1.6,5.6c0.8,1.2,2.4,2,3.6,2c0.8,0,1.2-0.4,2-0.4l157.2-92    C413.2,391.6,414,389.2,412.8,387.2z" fill="#006DF0"/>
	</g>
</g>
<g>
	<g>
		<path d="M254,477.6l-157.2-92c-2-0.8-4.4-0.4-5.6,1.6c-0.8,2-0.4,4.4,1.6,5.6l157.2,92c0.8,0.4,1.2,0.4,2,0.4c1.2,0,2.8-0.8,3.6-2    C256.4,481.2,256,478.8,254,477.6z" fill="#006DF0"/>
	</g>
</g>
<g>
	<g>
		<path d="M253.6,440.8l-156.4-92c-2-0.8-4.8-0.4-5.6,1.6c-0.8,2-0.4,4.4,1.6,5.6l156.4,92c0.8,0.4,1.2,0.4,2,0.4    c1.2,0,2.8-0.4,3.6-2C256,444.4,255.6,442,253.6,440.8z" fill="#006DF0"/>
	</g>
</g>
<g>
	<g>
		<path d="M253.6,404l-156-92c-2-0.8-4.4-0.4-5.6,1.6c-0.8,2-0.4,4.4,1.6,5.6l156,92c0.8,0.4,1.2,0.4,2,0.4c1.2,0,2.8-0.8,3.6-2    C256,407.6,255.6,405.2,253.6,404z" fill="#006DF0"/>
	</g>
</g>
<g>
	<g>
		<path d="M253.6,330.4L97.2,238c-2-0.8-4.4-0.4-5.6,1.6c-0.8,2-0.4,4.4,1.6,5.6l156.4,92.4c0.8,0.4,1.2,0.4,2,0.4    c1.2,0,2.8-0.8,3.6-2C256,334,255.6,331.6,253.6,330.4z" fill="#006DF0"/>
	</g>
</g>
<g>
	<g>
		<path d="M411.2,200L254,111.2c-2-1.2-4.8-0.4-5.6,1.6s-0.4,4.4,1.6,5.6l157.2,89.2c0.8,0.4,1.2,0.4,2,0.4c1.2,0,2.4-0.8,3.6-2.4    C413.6,203.6,413.2,201.2,411.2,200z" fill="#006DF0"/>
	</g>
</g>
<g>
	<g>
		<path d="M255.6,113.2c-1.2-2-3.6-2.8-5.6-1.6L92.4,200.8c-2,1.2-2.8,3.6-1.6,5.6c0.8,1.2,2.4,2,3.6,2c0.8,0,1.6-0.4,2-0.8    L254,118.8C256,117.6,256.8,115.2,255.6,113.2z" fill="#006DF0"/>
	</g>
</g>
<g>
	<g>
		<path d="M253.6,367.2L96.8,274.8c-2-0.8-4.4-0.4-5.6,1.6c-0.8,2-0.4,4.4,1.6,5.6l156.8,92.4c0.8,0.4,1.2,0.4,2,0.4    c1.2,0,2.8-0.8,3.6-2C256,370.8,255.6,368.4,253.6,367.2z" fill="#006DF0"/>
	</g>
</g>
<g>
	<g>
		<path d="M488.4,420.8c-8.4,0-15.6,7.2-15.6,15.6c0,8.4,6.8,15.6,15.6,15.6c8.4,0,15.6-7.2,15.6-15.6    C504,428,497.2,420.8,488.4,420.8z M488.4,444c-4,0-7.6-3.6-7.6-7.6s3.2-7.6,7.6-7.6c4,0,7.6,3.6,7.6,7.6S492.4,444,488.4,444z" fill="#006DF0"/>
	</g>
</g>
<g>
	<g>
		<path d="M480,426.8l-42.4-25.2c-2-0.8-4.4-0.4-5.6,1.6c-0.8,2-0.4,4.4,1.6,5.6L476,434c0.8,0.4,1.2,0.4,2,0.4c1.6,0,2.8-0.8,3.6-2    C482.4,430.4,482,428,480,426.8z" fill="#006DF0"/>
	</g>
</g>
<g>
</g>
<g>
</g>
<g>
</g>
<g>
</g>
<g>
</g>
<g>
</g>
<g>
</g>
<g>
</g>
<g>
</g>
<g>
</g>
<g>
</g>
<g>
</g>
<g>
</g>
<g>
</g>
<g>
</g>
</svg>
