<?xml version="1.0" encoding="iso-8859-1"?>
<!-- Generator: Adobe Illustrator 16.0.0, SVG Export Plug-In . SVG Version: 6.00 Build 0)  -->
<!DOCTYPE svg PUBLIC "-//W3C//DTD SVG 1.1//EN" "http://www.w3.org/Graphics/SVG/1.1/DTD/svg11.dtd">
<svg xmlns="http://www.w3.org/2000/svg" xmlns:xlink="http://www.w3.org/1999/xlink" version="1.1" id="Capa_1" x="0px" y="0px" width="512px" height="512px" viewBox="0 0 611.992 611.992" style="enable-background:new 0 0 611.992 611.992;" xml:space="preserve">
<g>
	<g>
		<path d="M610.536,369.469c0-0.111,1.456-0.192,1.456-0.305v-0.49c0-0.163,0-0.319,0-0.482V110.1c0-2.646-2.809-5.098-5.098-6.42    c-0.729-0.423-2.207-0.662-3.01-0.817L418.352,3.188c-2.326-1.256-5.12-1.025-7.26,0.164c-0.075,0.037-0.246,0.037-0.312,0.075    L118.467,171.37c-1.345,0.773-2.363,1.955-2.995,3.307c-0.089,0.193-0.171,0.379-0.245,0.587c-0.29,0.772-0.773,1.575-0.788,2.422    c0,0.052-0.327,0.089-0.327,0.141v93.001L4.466,333.875c-1.323,0.498-2.229,1.39-3.069,2.497c-0.074,0.097-0.06,0.193-0.126,0.29    c-0.423,0.616-0.728,1.271-0.943,2.006c-0.126,0.364-0.149,0.729-0.208,1.107c-0.038,0.2-0.104,0.387-0.119,0.595    c-0.007,0.052,1.337,0.104,1.33,0.156c0,0.089,1.308,0.163,1.308,0.252v162.186c0,0.349-1.204,0.646-1.159,0.98    c0.074,0.521-0.55,1.033-0.372,1.523c0.163,0.453,0.067,0.825,0.312,1.233c0.245,0.416,0.297,0.817,0.617,1.175    c0.342,0.394,0.676,0.676,1.1,0.98c0.275,0.2,0.424,0.483,0.736,0.654l8.137,4.398C13.428,533,25.14,550.344,41.429,556.69    c5.157,2.007,10.493,2.987,15.791,2.987c8.776,0,17.367-2.794,24.724-8.055l105.953,57.131c1.1,0.594,2.319,0.892,3.53,0.892    c1.271,0,2.534-0.327,3.679-0.974l29.962-19.388c5.351,10.277,15.858,17.671,36.762,17.671c0.074,0,0.149,0,0.223,0    c26.849,0,51.668-19.425,55.399-46.318c1.004-7.245,0.045-14.03-2.475-21.327l5.418-2.489c0.111-0.06,0.163,0.118,0.274,0.052    c0.022-0.015,0.045,0.126,0.067,0.119l193.262-111.624c7.84,12.834,22.204,18.095,40.566,18.095c0.008,0,0.008,0,0.015,0    c27.443,0,51.275-19.855,53.118-46.815c0.543-7.781-0.766-14.298-3.79-21.164l1.62-0.401c0.356-0.201,0.58-0.26,0.885-0.506    c0.282-0.229,0.572-0.312,0.824-0.587c0.469-0.505,0.817-1.003,1.13-1.604c0.104-0.216,0.922-0.372,1.011-0.603    C609.667,371.03,610.499,370.288,610.536,369.469z M314.754,523.443V282.027l282.384-159.153v241.988L314.754,523.443z     M299.892,361.273l-170.917-91.269v-79.736l170.917,91.715V361.273z M122.859,283.283l170.619,91.425l-101.844,57.31    l-169.193-91.15L122.859,283.283z M17.508,498.527v-144.9l170.917,91.158v144.989L17.508,498.527z M203.287,445.007l96.605-56.855    v143.814l-96.605,57.466V445.007L203.287,445.007z M414.681,18.281l171.354,92.221L307.36,269.127l-169.958-91.515L414.681,18.281    z M46.809,542.838c-8.011-3.121-14.505-10.686-17.82-19.767l37.327,20.123C60.103,545.373,53.237,545.343,46.809,542.838z     M302.715,560.941c-2.75,19.855-20.896,35.967-40.827,35.848c-12.023-0.052-19.729-4.08-23.928-12.507l63.722-36.249    C302.812,552.395,303.273,556.943,302.715,560.941z M592.857,395.635c-1.323,19.328-18.504,32.972-38.293,32.972h-0.007    c-7.729,0-20.733,0.274-27.637-10.493l63.87-36.227C592.427,386.175,593.191,390.812,592.857,395.635z" fill="#006DF0"/>
		<path d="M166.971,451.398l-131.77-70.283c-2.311-1.241-4.741-1.182-6.993,0.163c-2.244,1.338-3.27,3.76-3.27,6.376v77.365    c0,2.735,0.483,5.254,2.906,6.547l129.918,70.002c1.093,0.587,2.051,0.877,3.255,0.877c1.323,0,5.202-0.35,6.369-1.048    c2.244-1.345,6.175-3.768,6.175-6.376v-77.083C173.562,455.21,169.378,452.691,166.971,451.398z M158.7,522.604L39.801,460.576    v-60.475L158.7,462.374V522.604z" fill="#006DF0"/>
	</g>
</g>
<g>
</g>
<g>
</g>
<g>
</g>
<g>
</g>
<g>
</g>
<g>
</g>
<g>
</g>
<g>
</g>
<g>
</g>
<g>
</g>
<g>
</g>
<g>
</g>
<g>
</g>
<g>
</g>
<g>
</g>
</svg>
